<svg version="1.2" xmlns="http://www.w3.org/2000/svg" viewBox="0 0 1184 864" width="1184" height="864"><style>.a{fill:none;stroke:#f6d9a3;stroke-width:2}.b{fill:none;stroke:#ebb099;stroke-width:2}.c{fill:none;stroke:#9ecdcc;stroke-width:2}.d{fill:#edb346}.e{fill:#d86133}.f{fill:#3d9a99}</style><path class="a" d="m756.4 326.3c-18.6-52.2-61.5-91.8-114.2-107.7q-21.9-6.7-46.7-7.1c-74.1-1.5-141.8 43.4-167.8 113.2q0 0.1 0 0.1 0 0.1 0.1 0.1 0 0.1 0.1 0.1 0.1 0 0.1-0.1 19.1-13.9 38.1 0.9 0.1 0 0.2 0.1 0.1 0 0.2 0 0.1 0 0.2 0 0.1-0.1 0.2-0.2 1.3-1.1 1.5-2.7 0-0.1 0-0.3 0-0.1 0-0.3 0-0.1-0.1-0.2-0.1-0.1-0.1-0.2c-9.4-12-8.5-28.5 2.5-39.1q12-11.5 28.8-7.3c2.2 0.6 4.2 1.8 6 2.6q0.2 0 0.3 0.1 0.2 0 0.3 0 0.2-0.1 0.3-0.1 0.1-0.1 0.3-0.2 23.5-19.6 54.2-26.3 0.2-0.1 0.4-0.2 0.2-0.1 0.3-0.3 0.2-0.2 0.2-0.4 0-0.2 0-0.5-2.3-14.6 6.8-24.7c19.4-21.3 56.2-4.2 51 24.5q0 0.2 0 0.3 0.1 0.1 0.2 0.2 0.2 0.1 0.3 0 0.1 0 0.2-0.1c12.2-13.3 33.3-11.1 44.1 2.6q6.9 8.9 5.7 20-0.1 0.1 0 0.2 0 0.2 0 0.3 0.1 0.1 0.2 0.2 0 0.1 0.1 0.2l4.2 3.4q0.2 0.1 0.3 0.1 0.2 0.1 0.4 0.1 0.1 0 0.3 0 0.2 0 0.3-0.1c14.5-7.5 32.1-0.9 39.1 13.4 4.4 8.9 4.1 19.5-1.3 27.9q-0.1 0.1-0.2 0.3 0 0.2 0 0.4 0 0.2 0 0.4 0.1 0.1 0.2 0.3l2.6 4.4q0.1 0.1 0.3 0.2 0.1 0.2 0.3 0.2 0.2 0 0.4 0 0.2-0.1 0.4-0.2c11.6-9.1 27.6-8.6 38.3 1.7q0 0.1 0.1 0.1 0.1 0 0.1 0 0.1-0.1 0.1-0.2 0.1-0.1 0.1-0.1z"/><path class="b" d="m591.3 275.6q0.5 0 1.1-0.5 6.7-5.8 13.5-13.6c5-5.7 7.9-12.1 6.7-19-2-11.1-10.8-19.1-22.5-18.9-11.6 0.3-20.1 8.7-21.6 19.9-0.9 6.9 2.3 13.2 7.5 18.7q7.1 7.5 14.1 13 0.6 0.4 1.2 0.4z"/><path class="a" d="m649.9 250.9c-13.5-6.1-29.4 2.1-31 17q-0.7 6 2.6 14.5 3.3 8.3 6.8 15 0 0.1 0.5 0.3 0.4 0.2 0.5 0.2 7.3-1.8 15.7-4.9 8.6-3.1 12.6-7.6c10.2-11.1 5.8-28.5-7.7-34.5z"/><path class="b" d="m545.8 279.8c-12.7 1.4-20.9 14.6-15.5 26.5q2.1 4.7 8.4 9.6 6.1 4.7 11.7 8.2 0.1 0 0.5-0.1 0.4 0 0.5-0.1 4.6-4.5 9.5-10.5 5-6.2 6.1-11.3c2.5-12.8-8.4-23.8-21.2-22.4z"/><path class="c" d="m475.4 366q-0.3-0.1-0.6 0-0.3 0.1-0.5 0.3-0.1 0.3-0.1 0.6 0 0.3 0.2 0.5 0.6 0.8 1.2 1.2 31 23.4 35.3 26.6 0.4 0.4 0.5 0.5 0 0 0 0.1 0 0.1 0 0.2-0.1 0-0.1 0.1-0.1 0-0.2 0-18.5 0.7-38.2 3-0.3 0-0.5 0.1-0.2 0.1-0.4 0.3-0.1 0.2-0.2 0.4-0.1 0.2-0.1 0.5 0 0.2 0.1 0.5 0.1 0.2 0.2 0.3 0.2 0.2 0.4 0.3 0.2 0.1 0.5 0.1 26.2 1.1 50.1 5.6 3 0.6 3.7 1.1 13.6 10.3 26.3 21.2 11.8 10.1 21.9 23.6 2.8 3.9 3.1 8.5 0 0.1-0.1 0.2-0.1 0.1-0.2 0.2-0.1 0-0.3 0-0.1 0-0.2-0.1-7.9-7.9-17.7-12.4-11.8-5.4-24.9-6.1-0.2-0.1-0.4 0-0.2 0.1-0.3 0.3-0.2 0.1-0.2 0.3-0.1 0.3 0 0.5 0.1 0.7 0.7 0.9c12.9 5.8 24.2 11.9 33.4 22.7q3.3 3.9 7.7 13.4 0.1 0.2 0.1 0.4 0.1 0.2 0.1 0.3 0.1 0.2 0.1 0.4 0 0.2 0 0.4 0 0.7-0.2 4c-1.3 22.8-6.6 47.7-20 66.5q-0.1 0.1-0.1 0.3 0 0.1 0 0.3 0.1 0.1 0.2 0.2 0.1 0.1 0.3 0.1 35.6 7.1 70.6 0 0.2 0 0.3-0.1 0.1-0.1 0.1-0.2 0.1-0.2 0.1-0.3 0-0.2-0.1-0.3-12.1-17.9-16.3-39.4-2.6-12.9-3-17.2-1-9.9-1.1-10.9-0.1-4.7 3.2-10.4c8.1-14.6 22.8-24.1 37.9-29.7q0.2-0.1 0.3-0.1 0.1-0.1 0.2-0.2 0.1-0.1 0.2-0.2 0-0.1 0.1-0.3 0.3-0.8-0.4-1.6 0-0.1-0.1-0.2-0.1 0-0.2-0.1-0.1 0-0.2 0-0.1 0-0.1 0c-15.5 1.2-31.7 7.4-42.3 18.9q-0.1 0.1-0.3 0.1-0.1 0.1-0.3 0-0.1-0.1-0.2-0.2 0-0.2 0-0.3c1-6.4 5.7-12.6 10-17.5q6.2-7 14-14 12.6-11.2 26.1-21 0.4-0.3 0.8-0.5 0.4-0.2 0.8-0.4 0.4-0.2 0.9-0.4 0.4-0.1 0.9-0.2 11.1-2.6 23.2-3.8 18.3-1.8 27.4-2 1.3-0.1 1.8-0.7 0.2-0.2 0.3-0.5 0-0.3-0.1-0.6-0.1-0.3-0.3-0.5-0.3-0.1-0.6-0.2-19.4-2.5-38-3.1-0.1 0-0.1 0-0.1 0-0.1-0.1-0.1-0.1-0.1-0.1 0-0.1 0.1-0.2 0-0.2 0.2-0.3 22.8-17.9 35.2-27.8 0.2-0.2 0.3-0.4 0.1-0.2 0.1-0.5 0-0.2-0.1-0.4-0.1-0.2-0.3-0.4-0.6-0.4-1.5 0.1-9.1 4.7-38.9 21.7-0.2 0-0.3 0-0.2 0-0.3-0.1-0.1-0.1-0.2-0.3 0-0.1 0-0.3l5.3-14.1c0.2-0.3 0.2-0.7 0.1-1.1-0.2-0.4-0.4-0.7-0.7-0.8-0.4-0.2-0.8-0.3-1.1-0.2-0.4 0.1-0.7 0.3-1 0.6q-0.2 0.3-0.5 0.8-7.6 11.4-13.5 21.9-0.1 0.3-0.3 0.5-0.2 0.3-0.4 0.5-0.2 0.2-0.4 0.3-0.3 0.2-0.5 0.4-26.6 14.8-49.9 32.8 0 0-0.1 0 0 0-0.1 0 0 0-0.1 0 0-0.1 0-0.1l-1.9-33.6q-0.1-0.3 0-0.5 0-0.3 0-0.5 0.1-0.3 0.1-0.5 0.1-0.3 0.2-0.5 6.1-13.5 16.5-24.3 21.2-22.2 44.4-41.1 1-0.8 0.5-2 0-0.3-0.2-0.5-0.2-0.2-0.5-0.3-0.2-0.1-0.5 0-0.2 0-0.5 0.1-3.4 1.9-7.6 4.7-21.2 14.3-28.6 19.6-2.9 2.2-5.9 4.8-0.1 0.1-0.3 0.2-0.1 0-0.3-0.1-0.1-0.1-0.2-0.2-0.1-0.1-0.1-0.3 0.1-8.3 2-18.2 3.2-16 8.5-32.2 0.2-0.3 0.1-0.6 0-0.3-0.2-0.6-0.2-0.2-0.5-0.4-0.3-0.1-0.6-0.1-0.8 0-0.9 0.2-16.2 29.8-22.6 63.2 0 0.2-0.1 0.4-0.1 0.1-0.2 0.3-0.1 0.2-0.2 0.4-0.1 0.1-0.2 0.3l-3.9 3.8q-0.1 0.1-0.1 0.1-0.1 0-0.2 0-0.1-0.1-0.1-0.1-0.1-0.1-0.1-0.2-3.4-55.5-4.8-76.3-0.6-9-0.9-12.1-0.2-2-2-1.7-0.2 0-0.3 0.1-0.2 0-0.3 0.2-0.2 0.1-0.2 0.3-0.1 0.1-0.1 0.3l-6.4 100.1q0 0.1 0 0.2-0.1 0.1-0.2 0.1 0 0-0.1 0-0.1 0-0.1-0.1l-16.8-13.4q-0.3-0.3-0.6-0.6-0.3-0.3-0.6-0.6-0.3-0.4-0.5-0.8-0.2-0.3-0.4-0.8-7.7-17.7-11-36.8-0.1-0.2-0.2-0.4-0.1-0.1-0.3-0.3-0.1-0.1-0.4-0.2-0.2 0-0.4 0l-1 0.1q-0.2 0-0.4 0.1-0.2 0.1-0.4 0.3-0.1 0.1-0.2 0.3 0 0.2 0 0.5l2.2 26.6q0 0.1 0 0.2-0.1 0-0.1 0.1-0.1 0-0.2 0-0.1 0-0.1-0.1-20.5-16.3-30.7-24.7-2.5-2-4.2-3.1-0.4-0.3-0.9-0.2-0.5 0.1-0.8 0.5-0.4 0.4-0.4 0.9 0.1 0.5 0.4 0.9c5.2 5.7 9.4 10.5 14.2 15.1q10.9 10.9 20.4 20.8c12.9 13.6 23.1 24 31.4 36.4q0.2 0.3 0.3 0.5 0.1 0.3 0.2 0.6 0.1 0.3 0.1 0.6 0 0.3 0 0.5l-1.6 24.5q0 0.1 0 0.2-0.1 0.1-0.2 0.1 0 0-0.1 0-0.1 0-0.1 0-6.5-5.5-13.6-10.2-16.4-11-36.6-22.9-0.2-0.1-0.4-0.2-0.2-0.2-0.3-0.3-0.2-0.2-0.3-0.4-0.2-0.1-0.3-0.3l-14.2-23.6q-0.2-0.2-0.4-0.4-0.2-0.2-0.5-0.2-0.3-0.1-0.5-0.1-0.3 0.1-0.6 0.2l-0.3 0.3q-0.3 0.1-0.4 0.3-0.2 0.1-0.2 0.4-0.1 0.2-0.1 0.4 0 0.3 0.1 0.5l5.5 14.6q0 0.1 0 0.2 0 0.1-0.1 0.2-0.1 0.1-0.2 0.1-0.2 0-0.3 0-23.5-13.3-36.6-19.8-2.3-1.1-3.7-1.7z"/><path class="a" d="m512.2 324.7q0.4-0.4 0.5-1.1 0.8-8.8 0.3-19c-0.4-7.5-2.7-14.2-8.3-18.2-9-6.6-20.9-6.3-29 1.9-8.2 8.2-8.5 20.1-1.9 29.1 4.1 5.5 10.8 7.8 18.2 8.2q10.3 0.5 19.1-0.4 0.7-0.1 1.1-0.5z"/><path class="b" d="m665.4 322.6q0.3 0.4 1.1 0.6 8.7 1.7 18.9 2.3c7.5 0.4 14.4-1.2 19-6.4 7.5-8.3 8.5-20.1 1.2-29.2-7.4-9-19.2-10.5-28.8-4.8-6 3.5-9 9.8-10.2 17.3q-1.5 10.1-1.6 19 0 0.8 0.4 1.2z"/><path class="b" d="m471.6 363.5q0.3-0.4 0.2-1.2-1-8.7-3.8-18.6c-1.9-7.2-5.7-13.1-12-15.8-10.1-4.5-21.6-1.6-27.8 8.1-6.2 9.8-3.8 21.3 4.5 28.6 5.2 4.6 12.2 5.4 19.5 4.1q10-1.7 18.4-4.5 0.7-0.2 1-0.7z"/><path class="b" d="m710.7 363.9q0.3 0.5 1 0.7 8.4 2.7 18.5 4.3c7.4 1.2 14.3 0.3 19.4-4.4 8.3-7.4 10.5-19 4.2-28.7-6.3-9.7-17.8-12.3-28-7.8-6.2 2.9-9.9 8.8-11.8 16.1q-2.5 9.8-3.5 18.6-0.1 0.8 0.2 1.2z"/><path class="a" d="m491.9 337.3c-8.7 5.1-10 17.1-3 23.9 4.1 4 14.3 6.1 20.6 6.9q0.2 0.1 0.5-0.1 0.4-0.3 0.4-0.4c2.4-6 5.4-15.9 3.9-21.4-2.7-9.4-13.8-14-22.4-8.9z"/><path class="a" d="m689.1 337.4c-8.8-4.9-19.8-0.1-22.2 9.4-1.4 5.5 1.8 15.3 4.3 21.2q0.1 0.2 0.4 0.4 0.4 0.2 0.6 0.1c6.3-0.9 16.4-3.3 20.3-7.3 6.9-7 5.3-18.9-3.4-23.8z"/><path class="a" d="m752.2 372.4q0 0-0.1 0.1 0 0 0 0.1 0.1 0.1 0.1 0.1 0.1 0.1 0.1 0.1 9.1 2.5 14.9 9.8 0 0 0.2 0.1 0.1 0 0.2 0 0.1-0.1 0.2-0.2 0-0.1 0-0.2-0.1-14.1-2.9-27.5 0-0.2-0.1-0.3-0.1-0.1-0.3-0.1-0.1 0-0.3 0.1-0.1 0.1-0.1 0.2-2.1 8.2-7.6 14c-1.4 1.4-3.1 2.4-4.3 3.7z"/><path class="b" d="m417 380.7q5.4-5.6 12.8-7.8 0.1-0.1 0.2-0.2 0.1-0.1 0.1-0.3 0.1-0.1 0-0.3 0-0.1-0.2-0.2-8-5.7-11-14.7-0.1-0.1-0.2-0.2 0 0-0.1 0-0.2 0-0.2 0-0.1 0.1-0.1 0.2-1.9 11.9-2 23.3 0 0.1 0.1 0.2 0 0.1 0.1 0.1 0.1 0.1 0.3 0.1 0.1-0.1 0.2-0.2z"/><path class="b" d="m416.3 401.8c0.4 14.7 14.6 25.5 28.8 20.5q5.6-2 11.8-8.7 6-6.5 10.5-12.5 0-0.1 0-0.6 0-0.4 0-0.5-4.8-5.8-11.2-12-6.5-6.4-12.2-8c-14.4-4.3-28.1 7.1-27.7 21.8z"/><path class="a" d="m714.9 400.5q-0.1 0.6 0.4 1.2 5.5 6.9 13 14c5.4 5.1 11.7 8.3 18.6 7.4 11-1.5 19.4-10 19.6-21.6 0.3-11.6-7.8-20.3-18.8-22.2-6.8-1.2-13.2 1.7-18.9 6.6q-7.7 6.8-13.4 13.5-0.5 0.6-0.5 1.1z"/><path class="a" d="m486.1 437.9c-1.7 12.9 9.3 24.2 22.3 21.8q5.1-1 11.5-6 6.1-4.8 10.8-9.5 0.1 0 0.1-0.4 0.1-0.4 0.1-0.5-3.4-5.7-8.1-12-4.9-6.4-9.6-8.7c-12-5.6-25.4 2.5-27.1 15.3z"/><path class="b" d="m696.3 438.1c-1.6-12.8-14.9-21.1-26.9-15.6q-4.8 2.2-9.7 8.6-4.8 6.2-8.2 11.9 0 0 0 0.4 0.1 0.4 0.1 0.5 4.7 4.7 10.8 9.6 6.2 5.1 11.4 6.1c12.9 2.6 24-8.6 22.5-21.5z"/><path class="b" d="m457.7 423.1c-9.9 8.8-24.8 10.3-35.9 3q-0.1-0.1-0.2-0.1-0.1 0-0.2 0.1 0 0-0.1 0.1 0 0.1 0 0.2c3.7 15.7 10.9 32.1 19.2 45.8q36.4 59.8 105.4 80 0.3 0.1 0.6 0.1 0.4 0 0.7-0.1 0.3-0.1 0.6-0.3 0.3-0.2 0.5-0.5 9.8-14.3 14.6-32.3 0.1-0.1 0.1-0.2-0.1-0.2-0.1-0.3-0.1-0.1-0.2-0.2-0.1 0-0.2-0.1c-49.6-10.4-89.1-46.6-104-95q0-0.1-0.1-0.2-0.1-0.1-0.2-0.2-0.1 0-0.3 0-0.1 0.1-0.2 0.1z"/><path class="a" d="m762.4 425.4q0-0.1-0.1-0.2 0-0.1-0.1-0.2-0.1 0-0.2 0-0.1 0-0.2 0.1-2.3 1.9-5.2 3c-10.8 4.4-21.7 2.4-30.9-4.8q-0.1-0.1-0.3-0.1-0.1 0-0.2 0-0.2 0.1-0.3 0.2 0 0-0.1 0.2c-8.9 33-32.5 61.5-61.7 78.5q-20.2 11.9-42.7 16.4-0.2 0.1-0.3 0.1-0.1 0.1-0.2 0.2 0 0.2-0.1 0.3 0 0.1 0.1 0.3 4.4 17.5 15.3 32.7 0 0.1 0.1 0.1 0.1 0.1 0.2 0.1 0 0.1 0.1 0.1 0.1 0 0.2 0 19.6-4.8 37.5-14.3 53.7-28.5 79-83.3 6.8-14.7 10.1-29.4z"/><path class="c" d="m413.9 622c0 13.4 9.9 23.7 23.3 24.7q12.2 1 21.6-8 0.1-0.1 0.1-0.1 0-0.1 0-0.1 0-0.1 0-0.1 0-0.1-0.1-0.1l-5.7-5.7q0-0.1-0.1-0.1 0 0-0.1 0 0 0-0.1 0-0.1 0-0.1 0.1-5.3 5.3-12.4 5.6c-9.4 0.4-16.8-7-16.8-16.2 0-9.3 7.4-16.6 16.8-16.2q7.1 0.3 12.4 5.6 0.1 0.1 0.1 0.1 0.1 0 0.1 0 0.1 0 0.1 0 0.1 0 0.1-0.1l5.8-5.7q0-0.1 0-0.1 0-0.1 0-0.1 0-0.1 0-0.1 0-0.1 0-0.1-9.5-9-21.7-8.1c-13.4 1-23.3 11.3-23.3 24.8z"/><path class="c" d="m519.8 609.4l3.7-6.4q0.1-0.2 0.1-0.4 0-0.1 0-0.3-0.1-0.2-0.2-0.3-0.1-0.1-0.2-0.2c-8.4-4.7-23-7.1-30.7-0.5q-4.7 4.1-4.7 9.8 0.1 9.6 9.5 12.6 4.9 1.6 11.9 3.3c9.6 2.4 6.6 11.5-2 11.6q-9.5 0.1-16.7-6.2-0.1 0-0.1 0 0 0 0 0-0.1 0-0.1 0 0 0 0 0.1l-4.1 7q-0.1 0.1-0.1 0.2 0 0.1 0 0.1 0 0.1 0.1 0.2 0 0 0.1 0.1c10.3 7.5 27.2 10.5 36.5-0.4q0.1-0.2 0.2-0.3 0.1-0.1 0.2-0.3 0.1-0.1 0.1-0.3 0.1-0.1 0.2-0.3 3.9-9.4-2.8-15.4c-5.7-5-17.7-4.5-21.6-9.3-2.9-3.6 0.3-7.9 4.3-8.1q8.7-0.6 15.9 3.8 0.1 0.1 0.1 0.1 0.1 0 0.2 0 0 0 0.1-0.1 0 0 0.1-0.1z"/><path class="c" d="m606.2 621.6c0-3.3-0.8-6.5-2.1-9.5-1.4-3-3.4-5.7-5.8-8-2.5-2.2-5.4-4-8.6-5.2-3.2-1.2-6.6-1.8-10-1.7-3.5 0-6.9 0.7-10 2-3.2 1.3-6 3.2-8.4 5.6-2.4 2.3-4.3 5.1-5.5 8.1-1.3 3.1-1.9 6.3-1.8 9.6 0 3.3 0.8 6.5 2.1 9.5 1.4 3 3.4 5.7 5.8 7.9 2.5 2.3 5.4 4.1 8.6 5.3 3.2 1.2 6.6 1.7 10 1.7 3.5-0.1 6.9-0.8 10-2.1 3.2-1.3 6-3.2 8.4-5.5 2.4-2.4 4.3-5.1 5.5-8.2 1.3-3 1.9-6.3 1.8-9.5z"/><path class="c" d="m380.5 605.7l25.2 0.2q0.1 0 0.2-0.1 0.1 0 0.2-0.1 0.1-0.1 0.1-0.2 0-0.1 0-0.2l-0.1-6.8q0-0.1 0-0.1-0.1-0.1-0.1-0.2-0.1-0.1-0.2-0.1-0.1 0-0.2-0.1l-35 0.1q0 0 0 0-0.1 0-0.1 0.1-0.1 0-0.1 0 0 0.1 0 0.1l-0.1 47.3q0 0.1 0 0.2 0.1 0.1 0.2 0.2 0.1 0.1 0.2 0.2 0.1 0 0.2 0l35.7-0.1q0.1 0 0.2 0 0.1-0.1 0.1-0.1 0.1-0.1 0.1-0.2 0.1-0.1 0.1-0.2l-0.1-7q0-0.1 0-0.1 0-0.1-0.1-0.2-0.1-0.1-0.1-0.1-0.1 0-0.2 0l-26.1-0.1q-0.1 0-0.3 0-0.1 0-0.2-0.1 0-0.1-0.1-0.2 0-0.1 0-0.3l-0.2-11.4q0-0.1 0.1-0.2 0-0.1 0.1-0.1 0-0.1 0.1-0.1 0.1-0.1 0.2-0.1h22.4q0.1 0 0.2 0 0-0.1 0.1-0.1 0.1-0.1 0.1-0.2 0.1-0.1 0.1-0.2l-0.1-6.7q0-0.1-0.1-0.2 0-0.1-0.1-0.2 0-0.1-0.1-0.1-0.1 0-0.2-0.1h-22.1q-0.1 0-0.2 0-0.1-0.1-0.2-0.2-0.1-0.1-0.2-0.2 0-0.1 0-0.2v-10.7q0-0.2 0-0.3 0.1-0.2 0.2-0.3 0.1-0.1 0.2-0.1 0.2-0.1 0.3-0.1z"/><path class="c" d="m477.1 598.4q0-0.1-0.1-0.2 0-0.1-0.1-0.1-0.1-0.1-0.2-0.1-0.1-0.1-0.2-0.1h-8.5q-0.1 0-0.2 0.1-0.1 0-0.2 0.1 0 0.1-0.1 0.2 0 0 0 0.1l0.1 47.3q0 0.1 0 0.2 0.1 0.1 0.1 0.2 0.1 0 0.2 0.1 0.1 0 0.2 0h8.5q0.1 0 0.2 0 0.1-0.1 0.2-0.1 0.1-0.1 0.1-0.2 0-0.1 0-0.2z"/><path class="c" d="m544.3 598.4q0-0.1-0.1-0.2 0-0.1-0.1-0.2-0.1 0-0.2-0.1-0.1 0-0.2 0h-8.4q-0.1 0-0.2 0.1-0.1 0-0.2 0.1-0.1 0.1-0.1 0.2-0.1 0-0.1 0.2l0.2 47.1q0 0.1 0 0.2 0.1 0.1 0.2 0.2 0 0.1 0.1 0.1 0.1 0.1 0.2 0.1l8.5-0.1q0.1 0 0.2 0 0.1-0.1 0.2-0.1 0-0.1 0.1-0.2 0-0.1 0-0.2z"/><path class="c" d="m634.5 624.7q7.4 9.1 15.9 20.5 0.1 0.2 0.3 0.4 0.2 0.1 0.5 0.3 0.2 0.1 0.5 0.1 0.3 0.1 0.5 0.1h6.7q0.1 0 0.2 0 0.1-0.1 0.1-0.1 0.1-0.1 0.1-0.2 0.1-0.1 0.1-0.2v-47.2q0-0.1-0.1-0.2 0-0.1-0.1-0.1 0-0.1-0.1-0.1-0.1-0.1-0.2-0.1h-8.3q-0.1 0-0.1 0.1-0.1 0-0.2 0.1-0.1 0.1-0.1 0.2-0.1 0-0.1 0.2 0 25.1-0.1 30.8 0 0.4 0 0.5-0.1 0.1-0.2 0.1 0 0-0.1 0-0.1 0-0.1 0-0.1 0-0.1-0.1-4.9-6.4-8.3-10.5-7.3-9.1-15.8-20.5-0.2-0.2-0.4-0.4-0.2-0.2-0.5-0.3-0.2-0.1-0.5-0.2-0.2-0.1-0.5-0.1h-6.7q-0.1 0-0.1 0.1-0.1 0-0.2 0.1-0.1 0-0.1 0.1 0 0.1 0 0.2v47.2q0 0.1 0 0.2 0 0.1 0.1 0.2 0.1 0 0.1 0.1 0.1 0 0.2 0h8.3q0.1 0 0.2 0 0.1-0.1 0.1-0.1 0.1-0.1 0.2-0.2 0-0.1 0-0.2 0-25.2 0.1-30.9 0-0.4 0.1-0.5 0 0 0.1 0 0-0.1 0.1-0.1 0.1 0 0.2 0 0 0.1 0.1 0.1 4.8 6.4 8.2 10.6z"/><path class="c" d="m314.2 598.4l-0.2 47.2q0 0.1 0.1 0.2 0 0 0 0.1 0.1 0 0.2 0.1 0 0 0.1 0h21.1c3.3 0.1 6.5-0.5 9.6-1.7 3-1.1 5.7-2.8 8.1-4.9 2.3-2.1 4.1-4.6 5.4-7.4 1.2-2.7 1.9-5.7 1.9-8.7v-2.3c0-3-0.6-5.9-1.9-8.7-1.2-2.8-3-5.3-5.3-7.4-2.3-2.2-5.1-3.9-8.1-5-3-1.2-6.2-1.8-9.5-1.8l-21.1-0.1q-0.1 0-0.2 0.1 0 0-0.1 0 0 0.1-0.1 0.2 0 0 0 0.1z"/><path class="b" d="m707.7 646q1.2 0 4.3 0.1 0.1 0 0.2 0 0-0.1 0.1-0.1 0.1-0.1 0.1-0.2 0 0 0-0.1v-39.2q0-0.1 0.1-0.2 0-0.1 0.1-0.2 0 0 0.1-0.1 0.1 0 0.2 0h14.8q0.1 0 0.2 0 0.1-0.1 0.2-0.2 0.1 0 0.1-0.1 0.1-0.1 0.1-0.3v-6.8q0-0.1-0.1-0.2 0-0.1-0.1-0.2-0.1-0.1-0.2-0.1-0.1-0.1-0.2-0.1-9.8 0.2-20.1 0.1-10.2 0.1-20 0-0.1 0-0.2 0-0.1 0.1-0.2 0.1-0.1 0.1-0.1 0.2 0 0.1 0 0.2v6.9q0 0.1 0 0.2 0.1 0.1 0.1 0.2 0.1 0.1 0.2 0.1 0.1 0.1 0.2 0.1l14.9-0.1q0 0 0.1 0.1 0.1 0 0.2 0 0 0.1 0.1 0.2 0 0.1 0 0.2l0.1 39.2q0 0.1 0.1 0.1 0 0.1 0.1 0.2 0 0 0.1 0.1 0.1 0 0.2 0 3.1-0.1 4.2-0.1z"/><path class="b" d="m777.7 646.1l-10.7-15.6q0-0.1-0.1-0.2 0-0.2 0.1-0.3 0-0.1 0.1-0.2 0.1-0.1 0.2-0.2c12.2-4.6 12.3-24.5 0.3-29.5q-5.2-2.1-11.4-2-12.2 0.1-19.7-0.1-0.1 0-0.2 0-0.1 0.1-0.2 0.2-0.1 0.1-0.2 0.2 0 0.1 0 0.2v47.4q0 0 0 0 0 0.1 0.1 0.1 0 0 0 0.1 0.1 0 0.1 0h9.3q0 0 0.1 0 0.1-0.1 0.1-0.1 0.1-0.1 0.1-0.1 0-0.1 0-0.1v-13.9q0-0.1 0-0.2 0.1-0.1 0.2-0.1 0-0.1 0.1-0.1 0.1-0.1 0.2-0.1h11.1q0.1 0 0.2 0.1 0.2 0 0.3 0.1 0.1 0 0.2 0.1 0.1 0.1 0.1 0.2l8.5 14q0 0.1 0.1 0.1 0 0.1 0.1 0.1 0 0 0.1 0.1 0.1 0 0.2 0h10.5q0.1 0 0.1 0 0-0.1 0-0.1 0 0 0 0 0-0.1 0-0.1z"/><path class="b" d="m797.7 617.8q-0.1 0-0.2 0-0.1 0-0.2-0.1 0-0.1-0.1-0.2 0 0 0-0.1v-11.1q0-0.1 0-0.2 0.1-0.1 0.1-0.2 0.1 0 0.2-0.1 0.1 0 0.2 0h25.4q0.1 0 0.2 0 0.1-0.1 0.1-0.1 0.1-0.1 0.1-0.2 0.1-0.1 0.1-0.2v-6.7q0-0.1-0.1-0.2 0-0.1-0.1-0.2 0 0-0.1-0.1-0.1 0-0.2 0h-34.9q-0.1 0-0.2 0 0 0.1-0.1 0.1-0.1 0.1-0.1 0.2 0 0.1-0.1 0.2v47.1q0.1 0.1 0.1 0.1 0 0.1 0.1 0.2 0.1 0.1 0.1 0.1 0.1 0 0.2 0h35.7q0.1 0 0.2 0 0.1 0 0.2-0.1 0-0.1 0.1-0.2 0 0 0-0.1v-7.1q0-0.1 0-0.2-0.1 0-0.1-0.1-0.1-0.1-0.2-0.1-0.1 0-0.2 0h-26.2q-0.1-0.1-0.2-0.1-0.1 0-0.2-0.1 0-0.1-0.1-0.1 0-0.1 0-0.2v-11.6q0-0.1 0-0.2 0.1-0.1 0.1-0.1 0.1-0.1 0.2-0.1 0.1-0.1 0.2-0.1h22.2q0.1 0 0.2 0 0.1-0.1 0.2-0.1 0-0.1 0.1-0.2 0-0.1 0-0.1v-6.9q0-0.1 0-0.2-0.1-0.1-0.1-0.1-0.1-0.1-0.2-0.1-0.1-0.1-0.2-0.1z"/><path class="b" d="m845.2 605.7l25.1 0.1q0.2 0 0.3 0 0.1-0.1 0.1-0.1 0.1-0.1 0.2-0.2 0-0.1 0-0.2l-0.2-6.8q0-0.1 0-0.2 0-0.1-0.1-0.1-0.1-0.1-0.2-0.2-0.1 0-0.2 0l-34.9 0.1q-0.1 0-0.1 0-0.1 0.1-0.1 0.1 0 0-0.1 0.1 0 0 0 0.1v47.2q0 0.2 0.1 0.3 0 0.1 0.1 0.2 0.1 0.1 0.2 0.1 0.1 0.1 0.3 0.1l35.6-0.2q0.1 0 0.2-0.1 0.1 0 0.2-0.1 0 0 0.1-0.1 0-0.1 0-0.2v-7q0-0.1-0.1-0.2 0-0.1-0.1-0.1 0-0.1-0.1-0.1-0.1 0-0.2-0.1l-26.1 0.1q-0.1 0-0.2-0.1-0.1 0-0.2-0.1-0.1-0.1-0.2-0.2 0-0.1 0-0.2l-0.2-11.5q0 0 0.1-0.1 0-0.1 0.1-0.2 0-0.1 0.1-0.1 0.1 0 0.2 0l22.4-0.1q0.1 0 0.2 0 0-0.1 0.1-0.1 0.1-0.1 0.1-0.2 0.1-0.1 0-0.2v-6.8q0-0.1-0.1-0.2 0-0.1-0.1-0.1-0.1-0.1-0.2-0.1 0-0.1-0.2-0.1h-22q-0.1 0-0.3 0-0.1-0.1-0.2-0.1 0-0.1-0.1-0.2 0-0.2 0-0.3l-0.1-10.7q0-0.2 0.1-0.3 0-0.1 0.2-0.2 0.1-0.1 0.2-0.2 0.1-0.1 0.3-0.1z"/><path class="c" d="m581.7 605.5c-2.2-0.2-4.3 0.1-6.4 0.7-2 0.6-3.9 1.7-5.6 3.1-1.7 1.4-3 3.1-4 5-1 1.9-1.7 4-1.9 6.2-0.2 2.1 0 4.3 0.6 6.4 0.7 2.1 1.7 4 3.1 5.7 1.3 1.7 3 3.1 4.9 4.1 1.9 1 3.9 1.6 6.1 1.8 2.1 0.2 4.3 0 6.3-0.6 2.1-0.7 4-1.7 5.6-3.1 1.7-1.4 3.1-3.1 4.1-5 1-1.9 1.6-4 1.8-6.2 0.2-2.2 0-4.3-0.6-6.4-0.6-2.1-1.7-4-3-5.7-1.4-1.7-3-3.1-4.9-4.1-1.9-1-4-1.7-6.1-1.9z"/><path class="c" d="m323.5 606.4l0.1 31.3q0 0.1 0 0.2 0.1 0 0.1 0.1 0.1 0 0.2 0.1 0 0 0.1 0h11c2.1 0 4.1-0.4 6.1-1.2 1.9-0.8 3.7-1.9 5.1-3.3 1.5-1.5 2.7-3.2 3.5-5 0.8-1.9 1.2-3.9 1.2-5.9v-1.4c0-2-0.4-4-1.2-5.9-0.8-1.8-2-3.5-3.5-5-1.5-1.4-3.2-2.5-5.2-3.3-1.9-0.8-4-1.2-6.1-1.1h-10.9q-0.1 0-0.2 0-0.1 0-0.1 0.1-0.1 0.1-0.1 0.1-0.1 0.1-0.1 0.2z"/><path class="b" d="m745.6 606.4v17q0 0.1 0 0.2 0 0 0.1 0.1 0 0.1 0.1 0.1 0.1 0 0.2 0h11.8c1.2 0 2.4-0.2 3.5-0.6 1.1-0.4 2.1-1 3-1.8 0.8-0.8 1.5-1.7 2-2.7 0.4-1 0.7-2.1 0.7-3.2v-1.2c0-1.1-0.3-2.2-0.7-3.2-0.5-1-1.2-1.9-2-2.7-0.9-0.7-1.9-1.4-3-1.8-1.1-0.4-2.3-0.6-3.5-0.6h-11.8q-0.1 0-0.2 0-0.1 0.1-0.1 0.1-0.1 0.1-0.1 0.1 0 0.1 0 0.2z"/><path class="d" d="m756.4 326.3q0 0-0.1 0.1 0 0.1-0.1 0.2 0 0-0.1 0-0.1 0-0.1-0.1c-10.7-10.3-26.7-10.8-38.3-1.7q-0.2 0.1-0.4 0.2-0.2 0-0.4 0-0.2 0-0.3-0.2-0.2-0.1-0.3-0.3l-2.7-4.3q0-0.2-0.1-0.3 0-0.2 0-0.4 0-0.2 0-0.4 0.1-0.2 0.2-0.3c5.4-8.4 5.7-19 1.3-27.9-7-14.3-24.6-20.9-39.1-13.4q-0.1 0.1-0.3 0.1-0.2 0-0.3 0-0.2 0-0.4-0.1-0.1 0-0.3-0.1l-4.2-3.4q-0.1-0.1-0.1-0.2-0.1-0.1-0.2-0.2 0-0.1 0-0.3-0.1-0.1 0-0.2 1.2-11.1-5.7-20c-10.8-13.7-31.9-15.9-44.1-2.6q-0.1 0.1-0.2 0.1-0.1 0.1-0.3 0-0.1-0.1-0.2-0.2 0-0.1 0-0.3c5.2-28.7-31.6-45.8-51-24.5q-9.1 10.1-6.8 24.7 0 0.3 0 0.5 0 0.2-0.2 0.4-0.1 0.2-0.3 0.3-0.2 0.1-0.4 0.2-30.7 6.7-54.2 26.3-0.2 0.1-0.3 0.2-0.1 0-0.3 0.1-0.1 0-0.3 0-0.1-0.1-0.3-0.1c-1.8-0.8-3.8-2-6-2.6q-16.8-4.2-28.8 7.3c-11 10.6-11.9 27.1-2.5 39.1q0 0.1 0.1 0.2 0.1 0.1 0.1 0.2 0 0.2 0 0.3 0 0.2 0 0.3-0.2 1.6-1.5 2.7-0.1 0.1-0.2 0.2-0.1 0-0.2 0-0.1 0-0.2 0-0.1-0.1-0.2-0.1-19-14.8-38.1-0.9 0 0.1-0.1 0.1-0.1 0-0.1-0.1-0.1 0-0.1-0.1 0 0 0-0.1c26-69.8 93.7-114.7 167.8-113.2q24.8 0.4 46.7 7.1c52.7 16 95.6 55.5 114.2 107.7z"/><path class="e" d="m590.1 223.6c11.7-0.2 20.5 7.8 22.5 18.9 1.2 6.9-1.7 13.3-6.7 19q-6.8 7.8-13.5 13.6-0.6 0.5-1.1 0.5-0.6 0-1.2-0.4-7-5.5-14.1-13c-5.2-5.5-8.4-11.8-7.5-18.7 1.5-11.2 10-19.6 21.6-19.9z"/><path class="d" d="m649.9 250.9c13.5 6 17.9 23.4 7.7 34.5q-4 4.5-12.6 7.6-8.4 3.1-15.7 4.9-0.1 0-0.5-0.2-0.5-0.2-0.5-0.3-3.5-6.7-6.8-15-3.3-8.5-2.6-14.5c1.6-14.9 17.5-23.1 31-17z"/><path class="e" d="m545.8 279.8c12.8-1.5 23.7 9.5 21.2 22.3q-1.1 5.1-6.1 11.3-4.9 6-9.5 10.5-0.1 0.1-0.5 0.1-0.4 0.1-0.5 0-5.6-3.4-11.7-8.1-6.3-4.9-8.4-9.6c-5.4-11.9 2.8-25.1 15.5-26.6z"/><path class="f" d="m475.4 366q1.4 0.6 3.7 1.7 13.1 6.5 36.6 19.8 0.1 0 0.3 0 0.1 0 0.2-0.1 0.1-0.1 0.1-0.2 0-0.1 0-0.2l-5.5-14.6q-0.1-0.2-0.1-0.5 0-0.2 0.1-0.4 0-0.3 0.2-0.4 0.1-0.2 0.4-0.3l0.3-0.3q0.3-0.1 0.6-0.2 0.2 0 0.5 0.1 0.3 0 0.5 0.2 0.2 0.2 0.4 0.4l14.2 23.6q0.1 0.2 0.3 0.3 0.1 0.2 0.3 0.4 0.1 0.1 0.3 0.3 0.2 0.1 0.4 0.2 20.2 11.9 36.6 22.9 7.1 4.7 13.6 10.2 0 0 0.1 0 0.1 0 0.1 0 0.1 0 0.2-0.1 0-0.1 0-0.2l1.6-24.5q0-0.2 0-0.5 0-0.3-0.1-0.6-0.1-0.3-0.2-0.6-0.1-0.2-0.3-0.5c-8.3-12.4-18.5-22.8-31.4-36.4q-9.5-9.9-20.4-20.8c-4.8-4.6-9-9.4-14.2-15.1q-0.3-0.4-0.4-0.9 0-0.5 0.4-0.9 0.3-0.4 0.8-0.5 0.5-0.1 0.9 0.2 1.7 1.1 4.2 3.1 10.2 8.4 30.7 24.7 0 0.1 0.1 0.1 0.1 0 0.2 0 0-0.1 0.1-0.1 0-0.1 0-0.2l-2.2-26.6q0-0.3 0-0.5 0.1-0.2 0.2-0.3 0.2-0.2 0.4-0.3 0.2-0.1 0.4-0.1l1-0.1q0.2 0 0.4 0 0.3 0.1 0.4 0.2 0.2 0.2 0.3 0.3 0.1 0.2 0.2 0.4 3.3 19.1 11 36.8 0.2 0.5 0.4 0.8 0.2 0.4 0.5 0.8 0.3 0.3 0.6 0.6 0.3 0.3 0.6 0.6l16.8 13.4q0 0.1 0.1 0.1 0.1 0 0.1 0 0.1 0 0.2-0.1 0-0.1 0-0.2l6.4-100.1q0-0.2 0.1-0.3 0-0.2 0.2-0.3 0.1-0.2 0.3-0.2 0.1-0.1 0.3-0.1 1.8-0.3 2 1.7 0.3 3.1 0.9 12.1 1.4 20.8 4.8 76.3 0 0.1 0.1 0.2 0 0 0.1 0.1 0.1 0 0.2 0 0 0 0.1-0.1l3.9-3.8q0.1-0.2 0.2-0.3 0.1-0.2 0.2-0.4 0.1-0.2 0.2-0.3 0.1-0.2 0.1-0.4 6.4-33.4 22.6-63.2 0.1-0.2 0.9-0.2 0.3 0 0.6 0.1 0.3 0.2 0.5 0.4 0.2 0.3 0.2 0.6 0.1 0.3-0.1 0.6-5.3 16.2-8.5 32.2-1.9 9.9-2 18.2 0 0.2 0.1 0.3 0.1 0.1 0.2 0.2 0.2 0.1 0.3 0.1 0.2-0.1 0.3-0.2 2.9-2.6 5.9-4.8 7.4-5.3 28.6-19.6 4.2-2.8 7.6-4.7 0.3-0.1 0.5-0.1 0.3-0.1 0.5 0 0.3 0.1 0.5 0.3 0.2 0.2 0.2 0.5 0.5 1.2-0.5 2-23.2 18.9-44.4 41.1-10.4 10.8-16.5 24.3-0.1 0.2-0.2 0.5 0 0.2-0.1 0.5 0 0.2 0 0.5-0.1 0.2-0.1 0.5l2 33.6q0 0 0 0.1 0.1 0 0.1 0 0.1 0 0.1 0 0.1 0 0.1 0 23.3-18.1 49.9-32.8 0.2-0.2 0.5-0.4 0.2-0.1 0.4-0.3 0.2-0.2 0.4-0.5 0.2-0.2 0.3-0.5 5.9-10.5 13.4-21.9 0.4-0.5 0.6-0.8c0.3-0.3 0.6-0.5 1-0.6 0.3-0.1 0.7 0 1.1 0.2 0.3 0.1 0.5 0.4 0.7 0.8 0.1 0.4 0.1 0.8-0.1 1.1l-5.3 14.1q0 0.2 0 0.3 0.1 0.2 0.2 0.3 0.1 0.1 0.3 0.1 0.1 0 0.3 0 29.7-17 38.9-21.7 0.9-0.5 1.5-0.1 0.2 0.2 0.3 0.4 0.1 0.2 0.1 0.4 0 0.3-0.1 0.5-0.1 0.2-0.3 0.4-12.4 9.9-35.2 27.8-0.2 0.1-0.2 0.3-0.1 0.1-0.1 0.2 0 0 0.1 0.1 0 0.1 0.1 0.1 0 0 0.1 0 18.6 0.6 38 3.1 0.3 0.1 0.6 0.2 0.2 0.2 0.3 0.5 0.1 0.3 0.1 0.6-0.1 0.3-0.3 0.5-0.5 0.6-1.8 0.7-9.1 0.2-27.4 2-12.1 1.2-23.2 3.8-0.5 0.1-0.9 0.2-0.5 0.2-0.9 0.4-0.4 0.2-0.8 0.4-0.4 0.2-0.8 0.5-13.5 9.8-26.1 21-7.8 7-14 14c-4.3 4.9-9 11.1-10 17.5q0 0.1 0 0.3 0.1 0.1 0.2 0.2 0.2 0.1 0.3 0 0.2 0 0.3-0.1c10.6-11.5 26.8-17.7 42.3-18.9q0 0 0.1 0 0.1 0 0.2 0 0.1 0.1 0.2 0.1 0.1 0.1 0.1 0.2 0.7 0.8 0.4 1.6-0.1 0.2-0.1 0.3-0.1 0.1-0.2 0.2-0.1 0.1-0.2 0.2-0.1 0-0.3 0.1c-15.1 5.6-29.8 15.1-37.9 29.7q-3.3 5.7-3.2 10.4 0.1 1 1.1 10.9 0.4 4.3 3 17.2 4.2 21.5 16.3 39.4 0.1 0.1 0.1 0.3 0 0.1-0.1 0.3 0 0.1-0.1 0.2-0.1 0.1-0.3 0.1-35 7.1-70.6 0-0.2 0-0.3-0.1-0.1-0.1-0.2-0.2 0-0.2 0-0.3 0-0.2 0.1-0.3c13.4-18.8 18.7-43.7 20-66.5q0.2-3.3 0.2-4 0-0.2 0-0.4 0-0.2-0.1-0.4 0-0.1-0.1-0.3 0-0.2-0.1-0.4-4.4-9.5-7.7-13.4c-9.2-10.8-20.5-16.9-33.4-22.7q-0.6-0.2-0.8-0.9 0-0.2 0.1-0.5 0-0.2 0.2-0.3 0.1-0.2 0.3-0.3 0.2-0.1 0.4 0 13.1 0.7 24.9 6.1 9.8 4.5 17.7 12.4 0.1 0.1 0.2 0.1 0.2 0 0.3 0 0.1-0.1 0.2-0.2 0.1-0.1 0.1-0.2-0.3-4.6-3.1-8.5-10.1-13.5-21.9-23.6-12.7-10.9-26.3-21.2-0.7-0.5-3.7-1.1-23.9-4.5-50.1-5.6-0.3 0-0.5-0.1-0.2-0.1-0.4-0.3-0.1-0.1-0.2-0.3-0.1-0.3-0.1-0.5 0-0.3 0.1-0.5 0.1-0.2 0.2-0.4 0.2-0.2 0.4-0.3 0.2-0.1 0.5-0.1 19.6-2.3 38.2-3 0.1 0 0.2 0 0-0.1 0.1-0.1 0-0.1 0-0.2 0-0.1 0-0.1-0.1-0.1-0.5-0.5-4.3-3.2-35.3-26.6-0.6-0.4-1.2-1.2-0.2-0.2-0.2-0.5 0-0.3 0.1-0.6 0.2-0.2 0.5-0.3 0.3-0.1 0.6 0z"/><path class="d" d="m512.2 324.7q-0.4 0.4-1.1 0.5-8.8 0.9-19.1 0.4c-7.4-0.4-14.1-2.7-18.2-8.2-6.6-9-6.3-20.9 1.9-29.1 8.1-8.2 20-8.5 29-1.9 5.6 4 7.9 10.7 8.3 18.2q0.5 10.2-0.3 19-0.1 0.7-0.5 1.1z"/><path class="e" d="m665.4 322.6q-0.4-0.4-0.4-1.2 0.1-8.9 1.6-19c1.2-7.5 4.2-13.8 10.2-17.3 9.6-5.7 21.4-4.2 28.8 4.8 7.3 9.1 6.3 20.9-1.2 29.2-4.6 5.2-11.5 6.8-19 6.4q-10.2-0.6-18.9-2.3-0.8-0.2-1.1-0.6z"/><path class="e" d="m471.6 363.5q-0.3 0.5-1 0.7-8.4 2.8-18.4 4.5c-7.4 1.3-14.3 0.5-19.5-4.1-8.3-7.3-10.7-18.9-4.5-28.6 6.2-9.7 17.7-12.6 27.8-8.1 6.3 2.7 10.1 8.6 12 15.8q2.8 9.9 3.8 18.6 0.1 0.8-0.2 1.2z"/><path class="e" d="m710.7 363.9q-0.3-0.4-0.2-1.2 0.9-8.8 3.5-18.6c1.9-7.3 5.6-13.2 11.8-16.1 10.2-4.5 21.7-1.8 28 7.8 6.3 9.7 4.1 21.3-4.2 28.7-5.1 4.7-12 5.6-19.4 4.4q-10.1-1.6-18.5-4.3-0.7-0.2-1-0.7z"/><path class="d" d="m510 368q-0.3 0.2-0.5 0.1c-6.4-0.8-16.5-2.9-20.6-6.9-7-6.8-5.7-18.8 3-23.9 8.6-5.1 19.7-0.5 22.4 8.9 1.5 5.5-1.5 15.4-3.9 21.4q0 0.1-0.4 0.4z"/><path class="d" d="m689.1 337.4c8.7 4.9 10.3 16.8 3.4 23.8-3.9 4-14 6.4-20.3 7.3q-0.2 0.1-0.6-0.1-0.3-0.2-0.4-0.4c-2.5-5.9-5.7-15.7-4.3-21.2 2.5-9.5 13.4-14.3 22.2-9.4z"/><path class="d" d="m752.2 372.4c1.2-1.3 2.9-2.3 4.3-3.7q5.5-5.8 7.6-14 0-0.1 0.1-0.2 0.2-0.1 0.3-0.1 0.2 0 0.3 0.1 0.1 0.1 0.1 0.3 2.8 13.4 2.9 27.5 0 0.1 0 0.2-0.1 0.1-0.2 0.2-0.1 0-0.2 0-0.2-0.1-0.2-0.1-5.8-7.3-14.9-9.8 0 0-0.1-0.1 0 0-0.1-0.1 0-0.1 0-0.1 0.1-0.1 0.1-0.1z"/><path class="e" d="m417 380.7q-0.1 0.1-0.2 0.2-0.2 0-0.3-0.1-0.1 0-0.1-0.1-0.1-0.1-0.1-0.2 0.1-11.4 2-23.3 0-0.1 0.1-0.2 0 0 0.2 0 0.1 0 0.1 0 0.1 0.1 0.2 0.2 3 9 11 14.7 0.2 0.1 0.2 0.2 0.1 0.2 0 0.3 0 0.2-0.1 0.3-0.1 0.1-0.2 0.2-7.4 2.2-12.8 7.8z"/><path class="e" d="m467.4 400.5q0 0.5 0 0.6-4.5 6-10.5 12.5-6.2 6.7-11.8 8.7c-14.2 5-28.4-5.8-28.8-20.5-0.4-14.7 13.3-26.1 27.7-21.8q5.7 1.6 12.2 8 6.4 6.2 11.2 12 0 0.1 0 0.5z"/><path class="d" d="m714.9 400.5q0-0.5 0.5-1.1 5.7-6.7 13.4-13.5c5.7-4.9 12.1-7.8 18.9-6.6 11 1.9 19.1 10.6 18.8 22.2-0.2 11.6-8.6 20.1-19.6 21.6-6.9 0.9-13.2-2.3-18.6-7.4q-7.5-7.1-13-14-0.5-0.6-0.4-1.2z"/><path class="d" d="m486.1 437.9c1.7-12.8 15.1-20.9 27.1-15.3q4.7 2.3 9.6 8.7 4.7 6.3 8.1 12 0 0.1-0.1 0.5 0 0.4-0.1 0.4-4.7 4.7-10.8 9.5-6.4 5-11.5 6c-13.1 2.4-24-8.9-22.3-21.8z"/><path class="e" d="m696.3 438.1c1.5 12.9-9.6 24.1-22.5 21.5q-5.2-1-11.4-6.1-6.1-4.9-10.8-9.6 0-0.1-0.1-0.5 0-0.4 0-0.4 3.4-5.7 8.2-11.9 4.9-6.4 9.7-8.6c12-5.5 25.3 2.8 26.9 15.6z"/><path class="e" d="m457.7 423.1q0.1-0.1 0.2-0.2 0.2 0 0.3 0 0.1 0.1 0.2 0.2 0.1 0.1 0.1 0.2c14.9 48.4 54.4 84.6 104 95q0.1 0.1 0.2 0.1 0.1 0.1 0.2 0.2 0 0.1 0.1 0.3 0 0.1-0.1 0.2-4.8 18-14.6 32.3-0.2 0.3-0.5 0.5-0.3 0.2-0.6 0.3-0.3 0.1-0.7 0.1-0.3 0-0.6-0.1-69-20.2-105.4-80c-8.3-13.7-15.5-30.1-19.2-45.8q0-0.1 0-0.2 0.1-0.1 0.1-0.1 0.1-0.1 0.2-0.1 0.1 0 0.2 0.1c11.2 7.3 26 5.8 35.9-3.1z"/><path class="d" d="m762.4 425.4q-3.3 14.8-10.1 29.4-25.3 54.8-79 83.3-17.9 9.5-37.5 14.3-0.1 0-0.2 0-0.1 0-0.1-0.1-0.1 0-0.2-0.1-0.1 0-0.1-0.1-10.9-15.2-15.3-32.7-0.1-0.2-0.1-0.3 0.1-0.1 0.1-0.3 0.1-0.1 0.2-0.2 0.1 0 0.3-0.1 22.5-4.5 42.7-16.4c29.2-17 52.8-45.5 61.7-78.5q0.1-0.2 0.1-0.2 0.1-0.1 0.3-0.2 0.1 0 0.2 0 0.2 0 0.3 0.1c9.2 7.2 20.1 9.2 30.9 4.8q2.9-1.1 5.2-3 0.1-0.1 0.2-0.1 0.1 0 0.2 0 0.1 0.1 0.1 0.2 0.1 0.1 0.1 0.2z"/><path class="f" d="m423.5 622c0 9.2 7.4 16.6 16.8 16.2q7.1-0.3 12.4-5.6 0-0.1 0.1-0.1 0.1 0 0.1 0 0.1 0 0.1 0 0.1 0 0.1 0.1l5.7 5.7q0.1 0 0.1 0.1 0 0 0 0.1 0 0 0 0.1 0 0-0.1 0.1-9.4 9-21.6 8c-13.4-1-23.3-11.3-23.3-24.7 0-13.5 9.9-23.8 23.3-24.8q12.2-0.9 21.7 8.1 0 0 0 0.1 0 0 0 0.1 0 0 0 0.1 0 0 0 0.1l-5.8 5.7q0 0.1-0.1 0.1 0 0-0.1 0 0 0-0.1 0 0 0-0.1-0.1-5.3-5.3-12.4-5.6c-9.4-0.4-16.8 6.9-16.8 16.2z"/><path class="f" d="m519.8 609.4q-0.1 0.1-0.1 0.1-0.1 0.1-0.1 0.1-0.1 0-0.2 0 0 0-0.1-0.1-7.2-4.4-15.9-3.8c-4 0.2-7.2 4.5-4.3 8.1 3.9 4.8 15.9 4.3 21.6 9.3q6.7 6 2.8 15.4-0.1 0.2-0.2 0.3 0 0.2-0.1 0.3-0.1 0.2-0.2 0.3-0.1 0.1-0.2 0.3c-9.3 10.9-26.2 7.9-36.5 0.4q-0.1-0.1-0.1-0.1-0.1-0.1-0.1-0.2 0 0 0-0.1 0-0.1 0.1-0.2l4.1-7q0-0.1 0-0.1 0 0 0.1 0 0 0 0 0 0 0 0.1 0 7.2 6.3 16.7 6.2c8.6-0.1 11.6-9.2 2-11.6q-7-1.7-11.9-3.3-9.4-3-9.5-12.6 0-5.7 4.7-9.8c7.7-6.6 22.3-4.2 30.7 0.5q0.1 0.1 0.2 0.2 0.1 0.1 0.2 0.3 0 0.2 0 0.3 0 0.2-0.1 0.4z"/><path class="f" d="m606.2 621.6c0.1 3.2-0.5 6.5-1.8 9.5-1.2 3.1-3.1 5.8-5.5 8.2-2.4 2.3-5.2 4.2-8.4 5.5-3.1 1.3-6.5 2-10 2.1-3.4 0-6.8-0.5-10-1.7-3.2-1.2-6.1-3-8.6-5.3-2.4-2.2-4.4-4.9-5.8-7.9-1.3-3-2.1-6.2-2.1-9.5-0.1-3.3 0.5-6.5 1.8-9.6 1.2-3 3.1-5.8 5.5-8.1 2.4-2.4 5.2-4.3 8.4-5.6 3.1-1.3 6.5-2 10-2 3.4-0.1 6.8 0.5 10 1.7 3.2 1.2 6.1 3 8.6 5.2 2.4 2.3 4.4 5 5.8 8 1.3 3 2.1 6.2 2.1 9.5zm-24.5-16.1c-2.2-0.2-4.3 0.1-6.4 0.7-2 0.6-3.9 1.7-5.6 3.1-1.7 1.4-3 3.1-4 5-1 1.9-1.7 4-1.9 6.2-0.2 2.1 0 4.3 0.6 6.4 0.7 2.1 1.7 4 3.1 5.7 1.3 1.7 3 3.1 4.9 4.1 1.9 1 3.9 1.6 6.1 1.8 2.1 0.2 4.3 0 6.3-0.6 2.1-0.7 4-1.7 5.6-3.1 1.7-1.4 3.1-3.1 4.1-5 1-1.9 1.6-4 1.8-6.2 0.2-2.2 0-4.3-0.6-6.4-0.6-2.1-1.7-4-3-5.7-1.4-1.7-3-3.1-4.9-4.1-1.9-1-4-1.7-6.1-1.9z"/><path class="f" d="m380.5 605.7q-0.1 0-0.3 0.1-0.1 0-0.2 0.1-0.1 0.1-0.2 0.3 0 0.1 0 0.3v10.7q0 0.1 0 0.2 0.1 0.1 0.2 0.2 0.1 0.1 0.2 0.2 0.1 0 0.2 0h22.1q0.1 0.1 0.2 0.1 0.1 0 0.1 0.1 0.1 0.1 0.1 0.2 0.1 0.1 0.1 0.2l0.1 6.7q0 0.1-0.1 0.2 0 0.1-0.1 0.2-0.1 0-0.1 0.1-0.1 0-0.2 0h-22.4q-0.1 0-0.2 0.1-0.1 0-0.1 0.1-0.1 0-0.1 0.1-0.1 0.1-0.1 0.2l0.2 11.4q0 0.2 0 0.3 0.1 0.1 0.1 0.2 0.1 0.1 0.2 0.1 0.2 0 0.3 0.1h26.1q0.1 0 0.2 0 0 0 0.1 0.1 0.1 0.1 0.1 0.2 0 0 0 0.1l0.1 7q0 0.1-0.1 0.2 0 0.1-0.1 0.2 0 0-0.1 0.1-0.1 0-0.2 0l-35.7 0.1q-0.1 0-0.2 0-0.1-0.1-0.2-0.2-0.1-0.1-0.2-0.2 0-0.1 0-0.2l0.1-47.3q0 0 0-0.1 0 0 0.1 0 0-0.1 0.1-0.1 0 0 0 0l35-0.1q0.1 0.1 0.2 0.1 0.1 0 0.2 0.1 0 0.1 0.1 0.2 0 0 0 0.1l0.1 6.8q0 0.1 0 0.2 0 0.1-0.1 0.2-0.1 0.1-0.2 0.1-0.1 0.1-0.2 0.1z"/><path fill-rule="evenodd" class="f" d="m468 597.9h8.5c0.3 0 0.6 0.3 0.6 0.5v47.3c0 0.3-0.2 0.5-0.5 0.5h-8.5c-0.3 0-0.5-0.2-0.5-0.5l-0.1-47.3c0-0.2 0.2-0.5 0.5-0.5z"/><path fill-rule="evenodd" class="f" d="m535.3 597.9h8.4c0.3 0 0.6 0.2 0.6 0.5l0.1 47.2c0 0.3-0.2 0.5-0.5 0.5l-8.5 0.1c-0.3 0-0.5-0.3-0.5-0.6l-0.2-47.1c0-0.3 0.3-0.6 0.6-0.6z"/><path class="f" d="m641.2 619.3q3.4 4.1 8.3 10.5 0 0.1 0.1 0.1 0 0 0.1 0 0.1 0 0.1 0 0.1 0 0.2-0.1 0-0.1 0-0.5 0.1-5.7 0.1-30.8 0-0.2 0.1-0.2 0-0.1 0.1-0.2 0.1-0.1 0.2-0.1 0-0.1 0.1-0.1h8.3q0.1 0 0.2 0.1 0.1 0 0.1 0.1 0.1 0 0.1 0.1 0.1 0.1 0.1 0.2v47.2q0 0.1-0.1 0.2 0 0.1-0.1 0.2 0 0-0.1 0.1-0.1 0-0.2 0h-6.7q-0.2 0-0.5-0.1-0.3 0-0.5-0.1-0.3-0.2-0.5-0.3-0.2-0.2-0.3-0.4-8.5-11.4-15.9-20.5-3.4-4.2-8.2-10.6-0.1 0-0.1-0.1-0.1 0-0.2 0-0.1 0-0.1 0.1-0.1 0-0.1 0.1-0.1 0.1-0.1 0.4-0.1 5.7-0.1 30.9 0 0.1 0 0.2-0.1 0.1-0.2 0.2 0 0-0.1 0.1-0.1 0-0.2 0h-8.3q-0.1 0-0.2 0 0-0.1-0.1-0.1-0.1-0.1-0.1-0.2 0-0.1-0.1-0.2v-47.2q0.1-0.1 0.1-0.2 0-0.1 0.1-0.1 0.1-0.1 0.2-0.1 0-0.1 0.1-0.1h6.7q0.3 0 0.5 0.1 0.3 0.1 0.5 0.2 0.3 0.1 0.5 0.3 0.2 0.2 0.4 0.4 8.5 11.4 15.8 20.5z"/><path class="f" d="m314.2 598.4q0-0.1 0-0.1 0.1-0.1 0.1-0.2 0.1 0 0.1 0 0.1-0.1 0.2-0.1l21.1 0.1c3.3 0 6.5 0.6 9.5 1.8 3 1.1 5.8 2.8 8.1 5 2.3 2.1 4.1 4.6 5.3 7.4 1.3 2.8 1.9 5.7 1.9 8.7v2.3c0 3-0.7 6-1.9 8.7-1.3 2.8-3.1 5.3-5.4 7.4-2.4 2.1-5.1 3.8-8.1 4.9-3.1 1.2-6.3 1.8-9.6 1.7h-21.1q-0.1 0-0.1 0-0.1-0.1-0.2-0.1 0-0.1 0-0.1-0.1-0.1-0.1-0.2zm9.4 8v31.3q0 0.1 0.1 0.2 0 0 0.1 0.1 0 0.1 0.1 0.1 0.1 0 0.2 0h10.9c2.1 0 4.2-0.4 6.1-1.2 1.9-0.8 3.7-1.9 5.2-3.3 1.5-1.5 2.6-3.2 3.4-5 0.8-1.9 1.2-3.9 1.2-5.9v-1.3c0-2.1-0.4-4.1-1.2-5.9-0.8-1.9-2-3.6-3.5-5-1.4-1.5-3.2-2.6-5.1-3.4-2-0.7-4.1-1.1-6.2-1.1h-10.9q-0.1 0-0.2 0 0 0.1-0.1 0.1-0.1 0.1-0.1 0.1 0 0.1 0 0.2z"/><path class="e" d="m707.6 598.1q10.3 0.1 20.1-0.1 0.1 0 0.2 0.1 0.1 0 0.2 0.1 0.1 0.1 0.1 0.2 0.1 0.1 0.1 0.2v6.8q0 0.2-0.1 0.3 0 0.1-0.1 0.1-0.1 0.1-0.2 0.2-0.1 0-0.2 0h-14.8q-0.1 0-0.2 0-0.1 0.1-0.1 0.1-0.1 0.1-0.1 0.2-0.1 0.1-0.1 0.2v39.2q0 0.1 0 0.1 0 0.1-0.1 0.2-0.1 0-0.1 0.1-0.1 0-0.2 0-3.1-0.1-4.3-0.1-1.1 0-4.2 0.1-0.1 0-0.2 0-0.1-0.1-0.1-0.1-0.1-0.1-0.1-0.2-0.1 0-0.1-0.1l-0.1-39.2q0-0.1 0-0.2-0.1-0.1-0.1-0.2-0.1 0-0.2 0-0.1-0.1-0.2-0.1l-14.8 0.1q-0.1 0-0.2-0.1-0.1 0-0.2-0.1 0-0.1-0.1-0.2 0-0.1 0-0.2l-0.1-6.9q0.1-0.1 0.1-0.2 0-0.1 0.1-0.2 0.1 0 0.2-0.1 0.1 0 0.2 0 9.8 0.1 20 0z"/><path class="e" d="m777.7 646.1q0 0 0 0.1 0 0 0 0 0 0 0 0.1 0 0-0.1 0h-10.5q-0.1 0-0.2 0-0.1-0.1-0.1-0.1-0.1 0-0.1-0.1-0.1 0-0.1-0.1l-8.5-14q0-0.1-0.1-0.2-0.1-0.1-0.2-0.1-0.1-0.1-0.3-0.1-0.1-0.1-0.2-0.1h-11.1q-0.1 0-0.2 0.1-0.1 0-0.1 0.1-0.1 0-0.2 0.1 0 0.1 0 0.2v13.8q0 0.1 0 0.2 0 0-0.1 0.1 0 0-0.1 0.1-0.1 0-0.1 0h-9.3q0 0-0.1 0 0-0.1 0-0.1-0.1 0-0.1-0.1 0 0 0 0v-47.4q0-0.1 0-0.2 0.1-0.1 0.2-0.2 0.1-0.1 0.2-0.2 0.1 0 0.2 0 7.5 0.2 19.7 0.1 6.2-0.1 11.4 2c12 5 11.9 24.9-0.3 29.5q-0.1 0.1-0.2 0.2-0.1 0.1-0.1 0.2-0.1 0.1-0.1 0.3 0.1 0.1 0.1 0.2zm-32.1-39.7v17q0 0.1 0 0.2 0 0 0.1 0.1 0.1 0 0.1 0.1 0.1 0 0.2 0h11.8c1.2 0 2.4-0.2 3.5-0.6 1.1-0.4 2.2-1.1 3-1.8 0.9-0.8 1.5-1.7 2-2.7 0.5-1 0.7-2.1 0.7-3.2v-1.2c0-1.1-0.2-2.2-0.7-3.2-0.5-1-1.1-1.9-2-2.7-0.8-0.8-1.9-1.4-3-1.8-1.1-0.4-2.3-0.6-3.5-0.6h-11.8q-0.1 0-0.2 0 0 0-0.1 0.1-0.1 0.1-0.1 0.1 0 0.1 0 0.2z"/><path class="e" d="m797.7 617.8h22.2q0.1 0 0.2 0.1 0.1 0 0.2 0.1 0 0 0.1 0.1 0 0.1 0 0.2v6.9q0 0 0 0.1-0.1 0.1-0.1 0.2-0.1 0-0.2 0.1-0.1 0-0.2 0h-22.2q-0.1 0-0.2 0.1-0.1 0-0.2 0.1 0 0-0.1 0.1 0 0.1 0 0.2v11.6q0 0.1 0 0.2 0.1 0 0.1 0.1 0.1 0.1 0.2 0.1 0.1 0 0.2 0.1h26.2q0.1 0 0.2 0 0.1 0 0.2 0.1 0 0.1 0.1 0.1 0 0.1 0 0.2v7.1q0 0.1 0 0.1-0.1 0.1-0.1 0.2-0.1 0.1-0.2 0.1-0.1 0-0.2 0h-35.7q-0.1 0-0.2 0 0 0-0.1-0.1-0.1-0.1-0.1-0.2 0 0-0.1-0.1v-47.1q0.1-0.1 0.1-0.2 0-0.1 0.1-0.2 0.1 0 0.1-0.1 0.1 0 0.2 0h34.9q0.1 0 0.2 0 0.1 0.1 0.1 0.1 0.1 0.1 0.1 0.2 0.1 0.1 0.1 0.2v6.7q0 0.1-0.1 0.2 0 0.1-0.1 0.2 0 0-0.1 0.1-0.1 0-0.2 0h-25.4q-0.1 0-0.2 0-0.1 0.1-0.2 0.1 0 0.1-0.1 0.2 0 0.1 0 0.2v11.1q0 0.1 0 0.1 0.1 0.1 0.1 0.2 0.1 0.1 0.2 0.1 0.1 0 0.2 0z"/><path class="e" d="m845.2 605.7q-0.2 0-0.3 0.1-0.1 0.1-0.2 0.2-0.2 0.1-0.2 0.2-0.1 0.1-0.1 0.3l0.1 10.7q0 0.1 0 0.3 0.1 0.1 0.1 0.2 0.1 0 0.2 0.1 0.2 0 0.3 0h22q0.2 0 0.2 0.1 0.1 0 0.2 0.1 0.1 0 0.1 0.1 0.1 0.1 0.1 0.2v6.8q0.1 0.1 0 0.2 0 0.1-0.1 0.2-0.1 0-0.1 0.1-0.1 0-0.2 0l-22.4 0.1q-0.1 0-0.2 0-0.1 0-0.1 0.1-0.1 0.1-0.1 0.2-0.1 0.1-0.1 0.1l0.2 11.5q0 0.1 0 0.2 0.1 0.1 0.2 0.2 0.1 0.1 0.2 0.1 0.1 0.1 0.2 0.1l26.1-0.1q0.1 0.1 0.2 0.1 0.1 0 0.1 0.1 0.1 0 0.1 0.1 0.1 0.1 0.1 0.2v7q0 0.1 0 0.2-0.1 0.1-0.1 0.1-0.1 0.1-0.2 0.1-0.1 0.1-0.2 0.1l-35.6 0.2q-0.2 0-0.3-0.1-0.1 0-0.2-0.1-0.1-0.1-0.1-0.2-0.1-0.1-0.1-0.3v-47.2q0-0.1 0-0.1 0.1-0.1 0.1-0.1 0 0 0.1-0.1 0 0 0.1 0l34.9-0.1q0.1 0 0.2 0 0.1 0.1 0.2 0.2 0.1 0 0.1 0.1 0 0.1 0 0.2l0.2 6.8q0 0.1 0 0.2-0.1 0.1-0.2 0.2 0 0-0.1 0.1-0.1 0-0.3 0z"/></svg>