<?xml version="1.0" encoding="UTF-8" standalone="no"?>
<!DOCTYPE svg PUBLIC "-//W3C//DTD SVG 1.1//EN" "http://www.w3.org/Graphics/SVG/1.1/DTD/svg11.dtd">
<svg xmlns="http://www.w3.org/2000/svg" version="1.1" viewBox="0.00 0.00 1184.00 602.00">
<g stroke-width="2.00" fill="none" stroke-linecap="butt">
<path stroke="#839086" vector-effect="non-scaling-stroke" d="
  M 562.88 95.21
  Q 562.72 95.41 562.69 95.62"
/>
<path stroke="#829aa9" vector-effect="non-scaling-stroke" d="
  M 562.69 95.62
  Q 552.51 93.76 549.92 103.99"
/>
<path stroke="#839086" vector-effect="non-scaling-stroke" d="
  M 549.92 103.99
  Q 549.50 104.31 549.37 103.71"
/>
<path stroke="#829aa9" vector-effect="non-scaling-stroke" d="
  M 549.37 103.71
  C 549.00 101.10 546.86 91.95 542.38 93.90
  C 535.77 96.78 541.52 110.40 543.67 114.97
  A 0.24 0.24 0.0 0 1 543.32 115.27
  C 532.83 107.90 535.36 98.11 538.33 87.65
  C 539.34 84.06 537.03 80.04 532.91 81.25
  Q 530.68 81.91 529.00 84.82
  Q 523.28 94.69 523.93 105.33
  A 0.52 0.52 0.0 0 1 523.34 105.88
  C 512.94 104.54 507.43 116.67 515.23 123.60
  A 0.28 0.27 -21.6 0 1 515.02 124.08
  C 498.17 122.74 491.63 155.86 496.34 167.21
  Q 497.54 170.10 499.91 174.33
  Q 501.12 176.49 502.10 181.74
  Q 502.93 186.20 501.00 190.26
  Q 494.31 204.36 490.81 217.04
  C 489.77 220.81 490.91 225.27 495.20 225.85
  C 497.04 226.09 499.43 224.41 500.21 222.91
  Q 507.03 209.83 514.18 197.84
  A 0.37 0.37 0.0 0 1 514.87 198.07
  Q 514.31 203.44 513.92 219.02
  Q 513.84 222.26 514.87 223.99
  C 517.40 228.25 522.29 226.61 523.75 222.49
  Q 525.65 217.14 527.64 209.57
  A 0.16 0.15 -76.4 0 1 527.82 209.45
  L 527.83 209.45
  A 0.24 0.24 0.0 0 1 528.02 209.72
  Q 527.19 216.33 527.71 221.22
  Q 528.08 224.74 531.14 226.01
  A 1.76 1.76 0.0 0 0 532.32 226.07
  Q 537.27 224.56 537.71 224.56
  A 1.65 1.65 0.0 0 0 538.70 224.23
  Q 540.85 222.63 542.35 220.83
  Q 546.85 215.40 552.45 209.14
  A 0.68 0.68 0.0 0 1 553.63 209.49
  Q 554.81 216.59 556.30 222.42
  Q 557.50 227.08 562.43 225.66
  Q 565.46 224.79 565.70 221.49
  Q 566.07 216.42 566.40 210.96
  A 0.30 0.30 0.0 0 1 566.97 210.86
  L 572.51 224.19
  A 2.55 2.53 -2.3 0 0 574.08 225.63
  C 577.36 226.69 579.16 225.43 580.86 222.88
  A 2.01 2.00 41.0 0 1 584.03 222.66
  C 584.88 223.62 586.98 225.87 588.60 226.28
  Q 592.52 227.27 594.40 224.36
  A 0.67 0.66 -52.8 0 1 595.39 224.22
  Q 600.35 228.62 603.31 223.58
  A 0.47 0.46 -42.1 0 1 604.13 223.62
  C 606.01 227.61 611.25 227.19 613.27 223.54
  Q 620.24 210.97 624.16 200.54
  C 624.82 198.76 625.22 196.09 626.14 194.03
  A 0.14 0.14 0.0 0 1 626.41 194.08
  Q 627.00 208.74 630.00 221.79
  Q 631.04 226.32 635.07 226.01
  Q 639.44 225.69 640.14 220.87
  Q 641.14 213.99 641.43 206.50
  Q 641.44 206.11 641.78 205.55
  A 0.36 0.36 0.0 0 1 642.34 205.47
  Q 650.55 213.39 660.74 223.50
  C 664.28 227.01 669.75 223.71 669.66 219.23
  Q 669.61 217.27 666.87 213.23
  Q 659.35 202.12 655.56 197.16
  C 652.47 193.11 653.24 189.44 655.32 185.06
  C 660.92 173.29 666.07 164.88 664.19 152.54
  C 662.90 144.14 659.33 125.76 647.32 126.74"
/>
<path stroke="#839086" vector-effect="non-scaling-stroke" d="
  M 647.32 126.74
  Q 646.42 126.81 646.07 126.50"
/>
<path stroke="#829aa9" vector-effect="non-scaling-stroke" d="
  M 646.07 126.50
  Q 652.06 122.71 651.26 116.52
  C 650.71 112.20 647.93 108.89 643.73 107.78
  C 638.88 106.50 635.06 108.69 632.65 112.82
  Q 629.17 118.79 634.30 125.01
  A 0.19 0.19 0.0 0 1 634.08 125.31
  L 625.21 122.10
  A 0.40 0.40 0.0 0 1 625.04 121.46
  C 627.81 118.28 631.76 113.12 630.50 108.64
  A 1.96 1.95 -43.3 0 1 630.54 107.45
  C 634.28 96.68 631.08 83.34 625.09 74.05
  Q 623.84 72.11 623.10 71.80
  C 620.51 70.73 617.63 72.09 616.80 74.70
  Q 616.36 76.09 617.43 79.18
  C 619.90 86.33 621.34 92.76 620.57 99.34
  C 620.04 103.89 616.54 108.68 613.94 112.10
  A 0.53 0.52 27.8 0 1 613.34 112.28
  L 610.58 111.28
  A 0.46 0.45 -61.3 0 1 610.38 110.57
  C 614.76 104.81 613.00 96.33 605.65 94.16
  Q 601.09 92.81 597.09 96.17
  A 0.11 0.11 0.0 0 1 596.93 96.03
  C 598.74 93.40 600.27 90.76 602.32 88.26
  Q 607.72 81.67 610.50 77.03
  C 615.97 67.90 616.32 56.10 614.56 45.76
  C 614.04 42.64 613.19 39.05 609.52 38.59
  C 606.77 38.25 605.11 40.95 605.01 43.26
  C 604.53 54.76 604.92 66.54 595.64 74.73
  Q 589.35 80.29 580.52 80.56
  C 567.13 80.98 556.96 70.71 554.87 57.95
  Q 553.88 51.87 553.78 44.76
  C 553.73 41.56 551.61 38.73 548.08 39.47
  C 542.79 40.58 543.27 56.22 543.59 60.52
  Q 544.03 66.35 546.36 71.71
  Q 549.53 79.01 551.99 81.76
  Q 557.79 88.24 562.88 95.21"
/>
<path stroke="#d3ceaf" vector-effect="non-scaling-stroke" d="
  M 646.07 126.50
  C 642.79 127.51 640.58 128.87 637.16 127.11
  A 0.89 0.88 42.1 0 0 636.27 127.15
  Q 636.13 127.23 636.12 127.24
  A 1.33 1.31 45.5 0 1 635.50 127.23
  L 629.77 125.70
  A 0.05 0.01 31.7 0 0 629.74 125.69
  L 625.05 123.70
  A 2.30 2.30 0.0 0 0 621.86 126.07
  L 622.30 130.04
  A 4.22 4.22 0.0 0 0 625.07 133.55
  L 636.38 137.64
  A 1.13 1.13 0.0 0 0 637.86 136.84
  Q 639.67 129.22 647.32 126.74"
/>
<path stroke="#d3ceaf" vector-effect="non-scaling-stroke" d="
  M 549.37 103.71
  Q 549.41 104.68 549.14 105.20
  A 0.48 0.48 0.0 0 1 548.25 105.06
  C 547.69 101.77 547.23 97.07 544.68 95.05
  A 1.27 1.26 59.8 0 0 543.71 94.79
  Q 540.53 95.26 540.44 98.25
  Q 540.17 106.67 544.91 115.14
  A 0.96 0.93 74.5 0 0 545.75 115.63
  C 549.27 115.56 553.24 117.89 554.76 121.24
  C 555.82 123.57 557.01 126.72 556.03 129.22
  A 0.57 0.57 0.0 0 0 556.35 129.96
  Q 561.50 131.95 566.71 135.99
  A 0.66 0.66 0.0 0 0 567.75 135.60
  Q 568.92 129.89 572.84 126.09
  A 0.35 0.35 0.0 0 0 572.71 125.51
  Q 568.64 124.13 564.43 121.84
  Q 558.49 118.60 554.38 113.49
  A 4.23 3.01 81.1 0 0 553.89 112.99
  Q 549.65 109.40 549.92 103.99"
/>
<path stroke="#d3ceaf" vector-effect="non-scaling-stroke" d="
  M 562.69 95.62
  Q 568.31 98.26 569.07 104.32
  A 0.53 0.53 0.0 0 0 569.74 104.76
  Q 570.64 104.49 571.03 103.27
  A 1.58 1.54 79.7 0 1 571.52 102.54
  Q 573.50 100.90 576.50 100.99
  C 580.46 101.11 584.59 100.73 589.23 102.03
  C 590.61 102.42 591.29 103.22 592.22 104.24
  A 0.41 0.41 0.0 0 0 592.92 104.07
  L 595.05 96.40
  A 1.87 1.78 70.3 0 1 595.25 95.95
  L 598.76 90.45
  A 0.32 0.16 -26.6 0 1 598.82 90.37
  C 605.16 82.97 609.96 77.62 612.06 70.41
  Q 612.52 68.83 613.50 64.15
  Q 614.24 60.60 614.19 57.79
  Q 614.07 50.48 612.45 43.03
  C 611.96 40.78 609.52 39.41 607.68 40.87
  Q 606.74 41.61 606.63 44.33
  C 606.23 54.34 605.57 65.52 599.79 72.28
  C 595.29 77.55 589.30 81.91 581.99 82.28
  C 573.13 82.73 565.91 79.86 560.38 72.96
  Q 553.82 64.77 552.89 53.48
  C 552.69 50.99 553.17 45.35 551.61 42.55
  C 550.37 40.29 547.53 40.55 546.52 42.78
  Q 545.42 45.23 545.16 49.82
  Q 544.75 57.05 545.22 61.45
  Q 545.87 67.65 548.33 73.47
  Q 550.07 77.58 555.31 83.70
  Q 556.62 85.23 564.98 95.40
  A 0.41 0.41 0.0 0 1 564.59 96.06
  Q 563.59 95.88 562.88 95.21"
/>
<path stroke="#829aa9" vector-effect="non-scaling-stroke" d="
  M 589.05 69.22
  A 10.19 10.19 0.0 0 0 578.86 59.03
  A 10.19 10.19 0.0 0 0 568.67 69.22
  A 10.19 10.19 0.0 0 0 578.86 79.41
  A 10.19 10.19 0.0 0 0 589.05 69.22"
/>
<path stroke="#b5ac8c" vector-effect="non-scaling-stroke" d="
  M 614.05 114.89
  Q 612.35 112.85 608.77 112.35
  A 0.88 0.81 -54.2 0 0 608.27 112.45
  L 605.05 114.31
  A 1.58 1.58 0.0 0 0 605.47 117.21
  L 609.73 118.22
  A 2.92 2.91 31.2 0 0 612.32 117.59
  Q 614.14 116.02 614.94 115.53
  Q 616.54 114.56 617.35 113.69
  Q 619.62 111.26 623.87 107.64
  Q 626.13 105.71 628.50 106.93
  A 0.56 0.56 0.0 0 0 629.30 106.59
  Q 630.83 101.34 630.67 96.52
  Q 630.31 85.67 623.93 74.71
  A 3.37 3.36 -25.0 0 0 619.87 73.24
  L 619.78 73.28
  A 2.88 2.88 0.0 0 0 618.08 77.02
  Q 621.93 87.06 622.03 95.14
  C 622.11 100.95 619.75 106.46 616.53 110.54
  Q 615.02 112.43 614.34 114.83
  A 0.17 0.17 0.0 0 1 614.05 114.89"
/>
<path stroke="#b5ac8c" vector-effect="non-scaling-stroke" d="
  M 542.57 116.30
  C 538.78 112.77 535.39 109.47 534.83 104.22
  C 534.31 99.33 534.82 94.19 536.41 89.48
  C 537.11 87.39 537.88 84.16 535.80 82.78
  A 2.66 2.65 -47.3 0 0 532.69 82.91
  C 530.60 84.56 529.70 86.61 528.41 89.51
  Q 524.92 97.33 525.39 105.43
  A 1.22 1.20 15.2 0 0 525.95 106.39
  Q 532.90 110.81 531.22 118.86
  A 3.28 3.27 25.4 0 0 532.37 122.08
  L 535.33 124.47
  A 1.19 1.19 0.0 0 0 537.26 123.70
  Q 537.92 118.80 542.50 116.76
  A 0.28 0.28 0.0 0 0 542.57 116.30"
/>
<path stroke="#b5ac8c" vector-effect="non-scaling-stroke" d="
  M 603.9518 95.4010
  A 8.72 8.46 -83.8 0 0 594.5995 103.1563
  A 8.72 8.46 -83.8 0 0 602.0682 112.7390
  A 8.72 8.46 -83.8 0 0 611.4205 104.9837
  A 8.72 8.46 -83.8 0 0 603.9518 95.4010"
/>
<path stroke="#b5ac8c" vector-effect="non-scaling-stroke" d="
  M 559.7698 96.3663
  A 8.59 8.33 -87.8 0 0 551.1161 104.6302
  A 8.59 8.33 -87.8 0 0 559.1102 113.5337
  A 8.59 8.33 -87.8 0 0 567.7639 105.2698
  A 8.59 8.33 -87.8 0 0 559.7698 96.3663"
/>
<path stroke="#d3ceaf" vector-effect="non-scaling-stroke" d="
  M 590.07 116.84
  Q 587.99 120.92 584.18 122.40
  C 576.20 125.50 567.60 117.59 571.00 109.33
  Q 572.50 105.68 575.59 103.90
  A 0.46 0.46 0.0 0 0 575.40 103.04
  C 572.83 102.86 571.53 104.62 569.79 106.64
  A 3.65 3.50 -12.8 0 0 569.29 107.40
  Q 568.10 109.77 566.13 112.19
  A 2.70 2.67 -18.1 0 0 565.61 113.20
  Q 564.85 115.90 565.01 118.35
  C 565.23 121.68 570.91 123.71 573.65 124.36
  A 4.25 3.91 -37.9 0 0 574.86 124.46
  Q 583.77 123.92 590.89 121.30"
/>
<path stroke="#b5ac8c" vector-effect="non-scaling-stroke" d="
  M 590.89 121.30
  Q 597.03 116.11 594.92 110.03
  Q 593.35 105.52 589.19 103.84
  Q 587.09 102.99 583.58 102.04
  A 0.34 0.34 0.0 0 0 583.34 102.67
  Q 592.28 107.18 590.07 116.84"
/>
<path stroke="#b5a269" vector-effect="non-scaling-stroke" d="
  M 590.89 121.30
  L 590.07 116.84"
/>
<path stroke="#d3ceaf" vector-effect="non-scaling-stroke" d="
  M 581.94 121.60
  C 586.61 120.83 590.30 115.97 588.78 111.10
  Q 586.62 104.14 579.24 103.67
  Q 579.18 103.67 579.01 103.70
  Q 578.84 103.73 578.79 103.75
  Q 571.94 106.54 572.11 113.83
  C 572.23 118.93 577.28 122.36 581.94 121.60"
/>
<path stroke="#b5ac8c" vector-effect="non-scaling-stroke" d="
  M 514.3209 111.3179
  A 8.72 8.59 -148.3 0 0 517.2262 123.2085
  A 8.72 8.59 -148.3 0 0 529.1591 120.4821
  A 8.72 8.59 -148.3 0 0 526.2538 108.5915
  A 8.72 8.59 -148.3 0 0 514.3209 111.3179"
/>
<path stroke="#d3ceaf" vector-effect="non-scaling-stroke" d="
  M 593.20 138.15
  Q 595.45 135.10 598.18 135.52
  A 3.19 3.07 41.6 0 0 599.42 135.47
  Q 609.61 132.96 618.35 126.52
  Q 621.51 124.19 623.85 121.17
  C 626.93 117.22 629.29 114.62 629.42 109.70
  A 1.11 1.10 20.8 0 0 629.01 108.80
  C 625.57 106.00 622.44 110.45 620.10 113.13
  Q 617.79 115.78 615.40 117.41
  Q 606.20 123.70 594.96 124.62
  A 1.01 1.01 0.0 0 0 594.35 126.35
  Q 598.13 129.96 594.69 133.96
  Q 592.49 136.52 588.63 140.40
  C 583.48 145.58 576.67 149.61 570.41 151.64
  A 0.45 0.45 0.0 0 0 570.10 152.02
  L 569.07 161.91
  A 0.71 0.71 0.0 0 0 569.92 162.68
  C 576.26 161.37 579.34 167.64 579.85 173.15
  A 1.00 0.99 79.7 0 0 581.10 174.02
  L 581.22 173.98
  A 1.50 1.50 0.0 0 0 582.33 172.43
  C 581.88 165.14 584.30 159.06 592.86 160.14
  A 0.47 0.47 0.0 0 0 593.36 159.51
  Q 589.42 148.88 593.02 138.48
  A 1.09 1.05 -17.4 0 1 593.20 138.15"
/>
<path stroke="#b5ac8c" vector-effect="non-scaling-stroke" d="
  M 650.00 117.64
  A 8.76 8.76 0.0 0 0 641.24 108.88
  A 8.76 8.76 0.0 0 0 632.48 117.64
  A 8.76 8.76 0.0 0 0 641.24 126.40
  A 8.76 8.76 0.0 0 0 650.00 117.64"
/>
<path stroke="#829aa9" vector-effect="non-scaling-stroke" d="
  M 596.82 116.66
  L 602.10 116.66
  A 1.04 1.03 3.1 0 0 603.13 115.74
  L 603.20 115.04
  A 1.10 1.10 0.0 0 0 602.22 113.84
  Q 599.43 113.56 597.45 111.82
  A 0.32 0.32 0.0 0 0 596.92 112.03
  L 596.48 116.28
  A 0.34 0.34 0.0 0 0 596.82 116.66"
/>
<path stroke="#829aa9" vector-effect="non-scaling-stroke" d="
  M 563.20 114.12
  Q 559.89 115.27 557.70 114.80
  A 0.25 0.25 0.0 0 0 557.49 115.24
  L 562.30 119.12
  A 0.46 0.46 0.0 0 0 563.05 118.85
  L 563.85 114.68
  A 0.50 0.50 0.0 0 0 563.20 114.12"
/>
<path stroke="#d3ceaf" vector-effect="non-scaling-stroke" d="
  M 543.3970 117.2538
  A 8.93 8.37 -112.4 0 0 539.0615 128.6996
  A 8.93 8.37 -112.4 0 0 550.2030 133.7662
  A 8.93 8.37 -112.4 0 0 554.5385 122.3204
  A 8.93 8.37 -112.4 0 0 543.3970 117.2538"
/>
<path stroke="#b5ac8c" vector-effect="non-scaling-stroke" d="
  M 609.01 119.35
  Q 603.11 117.47 597.06 118.34
  Q 594.12 118.77 591.48 122.49
  A 0.43 0.42 17.7 0 0 591.83 123.16
  Q 600.35 123.13 609.02 119.81
  A 0.24 0.24 0.0 0 0 609.01 119.35"
/>
<path stroke="#829aa9" vector-effect="non-scaling-stroke" d="
  M 519.72 126.23
  C 522.64 128.74 531.45 128.69 535.59 128.82
  A 0.99 0.98 -0.8 0 0 536.61 127.79
  Q 536.59 127.37 536.37 127.18
  Q 531.83 123.17 531.07 121.87
  A 0.54 0.54 0.0 0 0 530.21 121.78
  Q 526.08 126.39 519.89 125.83
  A 0.23 0.23 0.0 0 0 519.72 126.23"
/>
<path stroke="#d3ceaf" vector-effect="non-scaling-stroke" d="
  M 588.26 124.98
  Q 587.62 124.34 586.77 124.77
  Q 585.90 125.21 584.71 125.18
  Q 579.78 125.05 575.04 126.32
  A 3.40 3.20 -69.7 0 0 573.83 126.92
  Q 569.02 130.68 569.09 137.22
  A 0.87 0.87 0.0 0 0 570.09 138.07
  C 571.72 137.82 573.02 137.08 574.55 136.12
  Q 574.78 135.98 588.20 125.77
  A 0.53 0.53 0.0 0 0 588.26 124.98"
/>
<path stroke="#b5ac8c" vector-effect="non-scaling-stroke" d="
  M 505.79 141.27
  C 515.86 148.92 526.54 156.22 539.73 154.55
  Q 549.57 153.30 557.33 148.06
  C 560.02 146.24 562.18 144.04 558.71 141.50
  A 2.07 2.04 -36.1 0 0 556.83 141.22
  Q 545.69 145.02 534.26 144.78
  C 529.39 144.69 523.38 141.66 519.00 137.74
  Q 515.31 134.45 512.27 132.07
  A 0.37 0.37 0.0 0 1 512.21 131.55
  L 512.43 131.28
  A 0.50 0.49 -51.2 0 1 513.12 131.20
  L 522.49 138.78
  A 0.55 0.55 0.0 0 0 523.37 138.25
  L 521.98 130.95
  A 4.46 4.44 -78.5 0 0 520.11 128.11
  C 517.52 126.37 512.49 124.51 509.71 126.22
  C 500.03 132.18 496.11 147.75 496.41 158.39
  C 496.72 169.49 503.86 176.08 511.80 183.20
  C 516.21 187.15 516.73 191.47 516.36 197.19
  Q 515.86 204.82 515.25 212.44
  Q 514.87 217.04 515.27 221.00
  Q 515.71 225.31 519.86 224.87
  A 2.86 2.86 0.0 0 0 522.23 223.03
  Q 523.64 219.30 524.78 214.52
  Q 527.06 205.01 529.08 195.51
  C 531.00 186.43 529.22 180.60 523.96 173.19
  Q 519.78 167.29 512.93 160.41
  A 1.04 0.90 57.4 0 1 513.17 158.76
  Q 513.44 158.68 514.12 159.27
  A 0.57 0.56 30.6 0 0 515.03 159.04
  L 517.49 152.25
  A 0.92 0.91 -62.5 0 0 517.16 151.20
  L 508.51 145.10
  A 10.71 10.66 2.7 0 1 505.43 141.73
  L 505.38 141.63
  A 0.28 0.28 0.0 0 1 505.79 141.27"
/>
<path stroke="#b5ac8c" vector-effect="non-scaling-stroke" d="
  M 558.42 150.17
  C 561.62 150.77 567.55 151.05 571.13 149.83
  C 579.44 147.01 586.02 141.11 592.07 134.82
  Q 593.73 133.11 594.70 130.89
  A 1.54 1.54 0.0 0 0 594.79 129.94
  C 593.91 126.12 590.00 125.95 587.32 128.10
  Q 580.56 133.56 575.42 136.90
  C 570.50 140.10 566.16 140.01 560.52 139.32
  A 0.69 0.69 0.0 0 0 559.95 140.50
  C 563.75 144.28 561.08 146.84 558.23 149.49
  A 0.40 0.40 0.0 0 0 558.42 150.17"
/>
<path stroke="#b5ac8c" vector-effect="non-scaling-stroke" d="
  M 621.88 142.45
  Q 622.00 135.31 620.51 127.39
  A 0.50 0.50 0.0 0 0 619.73 127.08
  L 613.21 131.83
  A 0.70 0.66 72.6 0 0 612.94 132.38
  L 612.94 139.98
  A 1.86 1.85 -83.3 0 0 614.36 141.79
  L 620.77 143.32
  A 0.90 0.90 0.0 0 0 621.88 142.45"
/>
<path stroke="#d3ceaf" vector-effect="non-scaling-stroke" d="
  M 638.15 138.02
  Q 638.50 138.36 639.93 137.28
  C 641.59 136.03 642.37 135.78 644.64 135.69
  C 648.02 135.55 652.36 142.08 653.48 144.45
  A 1.29 1.28 58.3 0 1 653.12 146.01
  Q 647.60 150.39 642.25 152.78
  A 0.67 0.66 -18.0 0 0 641.87 153.51
  C 643.08 159.60 643.75 163.27 641.95 168.70
  Q 640.46 173.21 638.46 178.95
  C 636.18 185.53 635.12 192.96 638.54 199.20
  Q 639.24 200.47 644.09 205.06
  Q 648.93 209.64 649.29 209.98
  C 651.87 212.38 655.05 216.45 658.55 218.98
  C 660.00 220.02 661.81 222.68 663.55 223.09
  C 668.26 224.19 668.80 219.77 666.98 216.75
  Q 662.79 209.81 654.05 197.60
  C 650.28 192.35 652.03 188.59 654.59 182.87
  Q 656.21 179.23 659.59 172.16
  Q 664.59 161.68 662.35 150.48
  C 660.84 142.92 658.30 135.80 653.11 129.96
  A 2.76 2.57 -6.9 0 0 652.19 129.29
  Q 648.58 127.64 646.26 128.41
  Q 641.95 129.86 639.89 134.66
  Q 638.50 137.91 638.28 137.82
  A 0.12 0.12 0.0 0 0 638.15 138.02"
/>
<path stroke="#b5ac8c" vector-effect="non-scaling-stroke" d="
  M 525.44 139.23
  L 532.13 139.23
  A 0.40 0.38 9.4 0 0 532.50 138.98
  L 535.44 130.84
  A 0.41 0.41 0.0 0 0 535.10 130.29
  L 523.27 129.06
  A 0.24 0.24 0.0 0 0 523.01 129.34
  L 524.81 138.72
  A 0.64 0.63 -5.4 0 0 525.44 139.23"
/>
<path stroke="#d3ceaf" vector-effect="non-scaling-stroke" d="
  M 559.26 137.69
  Q 556.61 135.98 554.63 133.43
  A 0.81 0.80 -26.5 0 0 553.77 133.15
  C 552.66 133.45 551.80 134.47 550.75 134.86
  Q 541.91 138.16 538.09 129.56
  A 0.56 0.55 -46.0 0 0 537.07 129.58
  Q 534.41 136.16 533.67 142.25
  A 0.88 0.88 0.0 0 0 534.47 143.24
  C 542.41 143.89 548.16 142.41 557.24 139.77
  A 1.55 1.52 -82.5 0 0 558.13 139.07
  Q 558.42 138.56 559.12 138.41
  A 0.40 0.39 -34.3 0 0 559.26 137.69"
/>
<path stroke="#b5ac8c" vector-effect="non-scaling-stroke" d="
  M 567.02 137.51
  Q 563.64 134.38 557.66 131.72
  Q 556.99 131.43 556.60 131.70
  Q 555.98 132.11 556.29 132.63
  Q 560.06 139.06 566.75 138.31
  A 0.47 0.46 -26.5 0 0 567.02 137.51"
/>
<path stroke="#b5ac8c" vector-effect="non-scaling-stroke" d="
  M 612.08 140.32
  L 611.31 133.41
  A 0.36 0.36 0.0 0 0 610.81 133.12
  L 603.47 136.17
  A 0.30 0.30 0.0 0 0 603.46 136.72
  L 611.80 140.52
  A 0.20 0.20 0.0 0 0 612.08 140.32"
/>
<path stroke="#d3ceaf" vector-effect="non-scaling-stroke" d="
  M 623.60 144.02
  Q 630.21 144.09 635.89 139.52
  A 0.27 0.26 -54.2 0 0 635.82 139.06
  L 623.18 134.49
  A 0.25 0.25 0.0 0 0 622.85 134.74
  L 623.23 143.66
  A 0.37 0.37 0.0 0 0 623.60 144.02"
/>
<path stroke="#d3ceaf" vector-effect="non-scaling-stroke" d="
  M 598.44 141.42
  Q 599.12 143.56 601.28 145.23
  Q 611.20 152.89 624.26 155.21
  Q 626.70 155.64 632.48 154.73
  Q 635.92 154.18 640.17 151.90
  Q 647.59 147.94 651.80 144.77
  A 0.60 0.59 -34.6 0 0 651.95 143.98
  Q 649.57 140.15 646.33 137.49
  A 2.76 2.76 0.0 0 0 643.72 137.00
  C 641.33 137.77 638.60 139.29 635.78 141.16
  C 632.29 143.46 628.10 145.49 623.99 145.21
  C 616.91 144.72 610.97 141.77 602.23 138.02
  Q 600.89 137.44 599.21 137.63
  A 0.76 0.76 0.0 0 0 598.54 138.30
  Q 598.26 140.83 598.44 141.42"
/>
<path stroke="#b5ac8c" vector-effect="non-scaling-stroke" d="
  M 610.78 152.84
  Q 610.40 152.68 604.14 149.10
  C 600.87 147.23 596.18 143.26 596.82 139.09
  A 0.88 0.88 0.0 0 0 595.28 138.38
  C 593.78 140.17 593.51 142.77 593.05 145.41
  Q 591.74 152.85 594.85 159.38
  A 4.87 4.61 -80.3 0 0 595.61 160.52
  Q 598.04 163.24 599.60 165.16
  C 602.29 168.48 605.33 176.71 605.67 181.70
  A 3.28 3.25 -72.8 0 0 606.88 184.02
  Q 613.59 189.42 611.16 197.63
  Q 607.50 209.95 605.05 219.79
  Q 604.63 221.49 606.03 224.22
  A 1.29 1.29 0.0 0 0 606.85 224.89
  Q 610.21 225.80 611.75 223.54
  Q 614.16 220.01 621.12 204.64
  C 625.07 195.94 627.42 186.81 622.01 178.26
  Q 619.74 174.68 614.64 166.87
  Q 611.39 161.92 611.36 153.71
  A 0.94 0.94 0.0 0 0 610.78 152.84"
/>
<path stroke="#b5ac8c" vector-effect="non-scaling-stroke" d="
  M 526.32 140.51
  A 0.27 0.26 58.8 0 0 526.20 141.01
  Q 528.57 142.29 531.63 142.88
  A 0.75 0.75 0.0 0 0 532.51 142.23
  L 532.64 140.91
  A 0.36 0.36 0.0 0 0 532.28 140.51
  L 526.32 140.51"
/>
<path stroke="#b5ac8c" vector-effect="non-scaling-stroke" d="
  M 532.46 222.11
  Q 530.76 219.27 532.59 215.85
  Q 537.09 207.47 539.97 202.46
  Q 543.12 196.96 545.53 186.39
  A 1.81 1.80 -46.9 0 0 545.50 185.42
  Q 545.05 183.91 543.85 182.41
  Q 539.15 176.55 536.60 172.67
  A 0.30 0.30 0.0 0 0 536.07 172.75
  C 532.14 185.73 530.61 199.66 528.92 214.12
  Q 528.74 215.61 528.79 221.07
  A 2.37 2.18 -57.6 0 0 528.94 221.89
  Q 530.00 224.71 532.78 224.67"
/>
<path stroke="#d3ceaf" vector-effect="non-scaling-stroke" d="
  M 532.78 224.67
  Q 534.90 223.23 536.22 223.61
  A 1.10 1.09 39.4 0 0 536.99 223.54
  Q 540.05 222.10 542.73 218.47
  C 545.44 214.79 549.54 211.25 552.81 206.95
  Q 556.90 201.57 559.46 198.74
  Q 561.37 196.62 561.96 195.46
  A 2.09 2.07 -31.9 0 0 562.18 194.53
  Q 562.18 194.02 561.46 188.91
  C 560.96 185.39 561.36 182.57 561.67 178.31
  A 0.91 0.81 34.7 0 0 561.55 177.81
  L 552.37 161.91
  A 0.35 0.35 0.0 0 1 552.66 161.39
  Q 553.77 161.32 554.03 162.12
  A 0.83 0.73 -53.5 0 0 555.51 161.80
  Q 556.71 153.28 556.70 151.88
  A 1.17 1.17 0.0 0 0 554.98 150.85
  C 549.11 154.00 540.66 156.29 533.59 156.36
  A 0.54 0.54 0.0 0 0 533.06 156.94
  Q 533.42 161.79 535.50 166.28
  C 536.34 168.08 538.33 172.38 539.74 174.46
  C 541.05 176.39 545.02 181.10 546.66 184.59
  Q 548.11 187.70 548.19 188.34
  Q 548.62 191.89 547.05 194.07
  Q 538.93 205.38 533.37 217.35
  A 3.68 3.61 -28.5 0 0 533.07 218.33
  L 532.46 222.11"
/>
<path stroke="#b5a269" vector-effect="non-scaling-stroke" d="
  M 532.78 224.67
  Q 533.58 223.38 532.46 222.11"
/>
<path stroke="#b5ac8c" vector-effect="non-scaling-stroke" d="
  M 563.42 169.52
  A 0.32 0.32 0.0 0 0 563.97 169.48
  L 567.35 162.58
  A 3.47 3.34 62.4 0 0 567.64 161.59
  L 568.67 152.97
  A 0.69 0.69 0.0 0 0 567.98 152.20
  L 559.91 152.20
  A 1.43 1.43 0.0 0 0 558.53 153.25
  Q 557.34 157.57 557.65 160.79
  A 1.54 1.48 -66.1 0 0 557.90 161.48
  L 563.42 169.52"
/>
<path stroke="#d3ceaf" vector-effect="non-scaling-stroke" d="
  M 531.36 185.73
  A 0.16 0.16 0.0 0 0 531.68 185.74
  L 534.49 171.16
  A 3.28 3.18 -50.2 0 0 534.36 169.45
  Q 532.25 163.63 531.45 156.77
  A 0.32 0.31 7.8 0 0 531.25 156.51
  L 520.05 152.46
  A 0.97 0.97 0.0 0 0 518.81 153.04
  L 516.40 159.71
  A 1.86 1.85 35.8 0 0 516.69 161.49
  Q 521.48 167.66 525.82 173.17
  Q 530.16 178.68 531.36 185.73"
/>
<path stroke="#b5ac8c" vector-effect="non-scaling-stroke" d="
  M 616.46 166.73
  A 0.60 0.59 -51.0 0 0 617.47 166.62
  Q 619.66 161.87 620.28 156.68
  A 0.38 0.37 13.4 0 0 620.03 156.28
  L 613.23 153.82
  A 0.28 0.27 -78.5 0 0 612.86 154.07
  Q 612.48 161.45 616.46 166.73"
/>
<path stroke="#d3ceaf" vector-effect="non-scaling-stroke" d="
  M 626.34 185.39
  A 0.36 0.36 0.0 0 0 627.05 185.34
  Q 627.34 181.49 628.71 178.45
  Q 633.39 168.12 640.50 159.60
  A 1.67 1.67 0.0 0 0 640.86 158.23
  L 640.24 155.01
  A 0.65 0.64 -17.1 0 0 639.35 154.54
  Q 631.54 157.90 622.46 156.75
  A 0.59 0.58 -78.3 0 0 621.83 157.17
  L 618.47 168.16
  A 1.56 1.45 51.7 0 0 618.42 168.78
  Q 618.61 170.10 619.67 171.26
  A 2.45 2.45 0.0 0 1 620.11 171.89
  C 622.50 176.52 625.17 180.29 626.34 185.39"
/>
<path stroke="#d3ceaf" vector-effect="non-scaling-stroke" d="
  M 640.53 161.63
  Q 636.27 167.36 631.66 175.41
  Q 627.39 182.89 627.91 191.01
  Q 628.41 198.76 628.47 202.99
  Q 628.53 207.46 630.84 219.84
  C 631.45 223.08 632.67 225.66 636.24 224.55
  A 2.99 2.99 0.0 0 0 638.34 221.99
  L 640.23 203.88
  A 0.88 0.87 -65.5 0 0 639.97 203.17
  Q 635.46 198.76 635.02 194.01
  C 634.17 184.75 637.13 177.87 640.99 167.12
  A 3.16 3.14 -32.3 0 0 641.16 166.38
  L 641.61 162.05
  A 0.60 0.60 0.0 0 0 640.53 161.63"
/>
<path stroke="#d3ceaf" vector-effect="non-scaling-stroke" d="
  M 593.23 223.48
  C 596.56 215.98 598.66 209.05 601.10 202.02
  Q 603.50 195.09 603.76 192.85
  Q 603.99 190.89 604.22 187.60
  C 604.63 181.96 603.34 176.20 601.20 171.08
  C 599.89 167.94 597.77 165.70 595.15 163.68
  Q 590.90 160.39 586.64 162.91
  A 2.38 2.34 -89.1 0 0 585.82 163.72
  Q 583.66 167.35 583.84 172.98
  A 3.80 3.74 -63.3 0 0 584.49 175.00
  Q 587.25 179.07 589.95 183.06
  Q 592.15 186.31 592.33 188.78
  Q 592.76 194.80 590.95 199.92
  C 588.49 206.87 586.61 215.39 585.55 221.74
  A 1.37 1.35 29.9 0 0 585.86 222.86
  Q 588.34 225.75 592.37 224.28
  A 1.52 1.51 1.9 0 0 593.23 223.48"
/>
<path stroke="#b5ac8c" vector-effect="non-scaling-stroke" d="
  M 557.00 162.89
  C 556.35 166.90 559.12 170.88 561.58 174.50
  A 0.46 0.46 0.0 0 0 562.41 174.33
  L 562.87 171.95
  A 1.24 1.19 36.4 0 0 562.73 171.13
  L 557.87 162.73
  A 0.47 0.47 0.0 0 0 557.00 162.89"
/>
<path stroke="#d3ceaf" vector-effect="non-scaling-stroke" d="
  M 574.52 223.89
  Q 578.04 225.41 580.08 222.52
  A 1.71 1.67 -28.7 0 0 580.38 221.53
  C 580.35 218.91 580.40 217.75 579.88 215.44
  C 578.21 208.00 575.57 198.96 574.70 190.51
  C 574.25 186.16 576.47 180.27 578.38 174.97
  A 2.13 2.11 52.5 0 0 578.50 174.02
  C 577.96 168.64 575.12 162.46 568.69 165.11
  A 2.14 2.12 6.5 0 0 567.79 165.82
  Q 563.69 171.67 562.98 178.30
  Q 562.90 179.08 562.92 188.26
  Q 562.94 192.80 564.37 198.10
  Q 567.02 207.92 567.54 209.07
  Q 569.58 213.61 571.72 219.54
  Q 572.55 221.86 573.73 223.30
  A 2.10 2.04 -7.5 0 0 574.52 223.89"
/>
<path stroke="#b5ac8c" vector-effect="non-scaling-stroke" d="
  M 584.34 220.72
  L 589.11 200.78
  A 1.81 1.80 40.0 0 0 589.01 199.67
  Q 585.32 191.01 586.19 180.78
  A 1.63 1.56 33.7 0 0 585.99 179.87
  L 583.57 175.69
  A 0.96 0.96 0.0 0 0 581.78 176.13
  Q 581.33 185.34 577.63 193.74
  A 4.92 4.88 51.7 0 0 577.30 196.65
  L 581.90 220.67
  A 1.25 1.25 0.0 0 0 584.34 220.72"
/>
<path stroke="#b5ac8c" vector-effect="non-scaling-stroke" d="
  M 580.2586 175.4384
  A 9.07 1.38 -77.4 0 0 576.9332 183.9890
  A 9.07 1.38 -77.4 0 0 576.3014 193.1416
  A 9.07 1.38 -77.4 0 0 579.6268 184.5910
  A 9.07 1.38 -77.4 0 0 580.2586 175.4384"
/>
<path stroke="#b5ac8c" vector-effect="non-scaling-stroke" d="
  M 502.78 176.81
  A 0.26 0.25 -80.5 0 0 502.38 177.10
  C 504.76 183.12 504.26 186.97 501.07 193.79
  C 497.15 202.17 493.66 209.95 492.11 218.51
  C 491.47 222.05 492.68 224.75 496.82 223.90
  A 1.76 1.73 17.1 0 0 497.67 223.46
  Q 499.43 221.83 500.84 219.08
  Q 507.69 205.68 514.26 195.41
  A 3.60 3.54 63.4 0 0 514.83 193.65
  Q 515.08 189.04 511.52 185.42
  Q 504.76 178.56 502.78 176.81"
/>
<path stroke="#d3ceaf" vector-effect="non-scaling-stroke" d="
  M 589.74 197.52
  A 0.31 0.31 0.0 0 0 590.27 197.36
  Q 590.78 194.79 590.84 190.78
  Q 590.90 186.77 588.69 183.49
  A 0.87 0.86 30.1 0 0 587.11 183.91
  Q 586.74 189.01 588.44 194.04
  C 588.78 195.05 588.91 196.65 589.74 197.52"
/>
<path stroke="#829aa9" vector-effect="non-scaling-stroke" d="
  M 604.18 215.57
  A 0.26 0.25 -40.2 0 0 604.68 215.61
  Q 607.25 207.02 609.55 198.48
  C 611.00 193.08 610.90 189.01 606.70 185.50
  A 0.59 0.59 0.0 0 0 605.73 185.94
  Q 605.50 193.47 602.95 200.32
  A 4.41 4.40 52.2 0 0 602.70 202.32
  L 604.18 215.57"
/>
<path stroke="#b5ac8c" vector-effect="non-scaling-stroke" d="
  M 546.8453 188.4937
  A 2.48 0.58 -74.2 0 0 545.6119 190.7221
  A 2.48 0.58 -74.2 0 0 545.4947 193.2663
  A 2.48 0.58 -74.2 0 0 546.7281 191.0379
  A 2.48 0.58 -74.2 0 0 546.8453 188.4937"
/>
<path stroke="#b5ac8c" vector-effect="non-scaling-stroke" d="
  M 562.54 196.85
  L 554.68 206.57
  A 1.24 1.24 0.0 0 0 554.42 207.57
  Q 555.80 215.07 556.60 219.13
  Q 557.25 222.44 558.42 223.83
  A 1.80 1.76 -10.3 0 0 559.25 224.39
  C 562.01 225.30 564.67 224.30 564.81 221.32
  Q 565.39 209.48 565.46 208.98
  A 4.32 4.28 42.6 0 0 565.39 207.47
  L 563.11 196.99
  A 0.33 0.32 58.3 0 0 562.54 196.85"
/>
<path stroke="#b5ac8c" vector-effect="non-scaling-stroke" d="
  M 601.60 205.68
  A 0.09 0.08 -70.3 0 0 601.50 205.73
  L 596.24 220.30
  A 3.38 3.38 0.0 0 0 597.80 224.42
  L 597.94 224.49
  A 3.26 3.25 27.2 0 0 602.41 223.06
  Q 603.44 220.95 603.15 218.76
  Q 602.69 215.25 601.95 206.12
  A 0.47 0.27 -75.5 0 0 601.91 205.98
  Q 601.75 205.70 601.60 205.68"
/>
<path stroke="#d3ceaf" vector-effect="non-scaling-stroke" d="
  M 587.66 69.21
  A 8.86 8.86 0.0 0 0 578.80 60.35
  A 8.86 8.86 0.0 0 0 569.94 69.21
  A 8.86 8.86 0.0 0 0 578.80 78.07
  A 8.86 8.86 0.0 0 0 587.66 69.21"
/>
</g>
<path fill="#325c7f" d="
  M 1184.00 0.00
  L 1184.00 602.00
  L 0.00 602.00
  L 0.00 0.00
  L 1184.00 0.00
  Z
  M 562.88 95.21
  Q 562.72 95.41 562.69 95.62
  Q 552.51 93.76 549.92 103.99
  Q 549.50 104.31 549.37 103.71
  C 549.00 101.10 546.86 91.95 542.38 93.90
  C 535.77 96.78 541.52 110.40 543.67 114.97
  A 0.24 0.24 0.0 0 1 543.32 115.27
  C 532.83 107.90 535.36 98.11 538.33 87.65
  C 539.34 84.06 537.03 80.04 532.91 81.25
  Q 530.68 81.91 529.00 84.82
  Q 523.28 94.69 523.93 105.33
  A 0.52 0.52 0.0 0 1 523.34 105.88
  C 512.94 104.54 507.43 116.67 515.23 123.60
  A 0.28 0.27 -21.6 0 1 515.02 124.08
  C 498.17 122.74 491.63 155.86 496.34 167.21
  Q 497.54 170.10 499.91 174.33
  Q 501.12 176.49 502.10 181.74
  Q 502.93 186.20 501.00 190.26
  Q 494.31 204.36 490.81 217.04
  C 489.77 220.81 490.91 225.27 495.20 225.85
  C 497.04 226.09 499.43 224.41 500.21 222.91
  Q 507.03 209.83 514.18 197.84
  A 0.37 0.37 0.0 0 1 514.87 198.07
  Q 514.31 203.44 513.92 219.02
  Q 513.84 222.26 514.87 223.99
  C 517.40 228.25 522.29 226.61 523.75 222.49
  Q 525.65 217.14 527.64 209.57
  A 0.16 0.15 -76.4 0 1 527.82 209.45
  L 527.83 209.45
  A 0.24 0.24 0.0 0 1 528.02 209.72
  Q 527.19 216.33 527.71 221.22
  Q 528.08 224.74 531.14 226.01
  A 1.76 1.76 0.0 0 0 532.32 226.07
  Q 537.27 224.56 537.71 224.56
  A 1.65 1.65 0.0 0 0 538.70 224.23
  Q 540.85 222.63 542.35 220.83
  Q 546.85 215.40 552.45 209.14
  A 0.68 0.68 0.0 0 1 553.63 209.49
  Q 554.81 216.59 556.30 222.42
  Q 557.50 227.08 562.43 225.66
  Q 565.46 224.79 565.70 221.49
  Q 566.07 216.42 566.40 210.96
  A 0.30 0.30 0.0 0 1 566.97 210.86
  L 572.51 224.19
  A 2.55 2.53 -2.3 0 0 574.08 225.63
  C 577.36 226.69 579.16 225.43 580.86 222.88
  A 2.01 2.00 41.0 0 1 584.03 222.66
  C 584.88 223.62 586.98 225.87 588.60 226.28
  Q 592.52 227.27 594.40 224.36
  A 0.67 0.66 -52.8 0 1 595.39 224.22
  Q 600.35 228.62 603.31 223.58
  A 0.47 0.46 -42.1 0 1 604.13 223.62
  C 606.01 227.61 611.25 227.19 613.27 223.54
  Q 620.24 210.97 624.16 200.54
  C 624.82 198.76 625.22 196.09 626.14 194.03
  A 0.14 0.14 0.0 0 1 626.41 194.08
  Q 627.00 208.74 630.00 221.79
  Q 631.04 226.32 635.07 226.01
  Q 639.44 225.69 640.14 220.87
  Q 641.14 213.99 641.43 206.50
  Q 641.44 206.11 641.78 205.55
  A 0.36 0.36 0.0 0 1 642.34 205.47
  Q 650.55 213.39 660.74 223.50
  C 664.28 227.01 669.75 223.71 669.66 219.23
  Q 669.61 217.27 666.87 213.23
  Q 659.35 202.12 655.56 197.16
  C 652.47 193.11 653.24 189.44 655.32 185.06
  C 660.92 173.29 666.07 164.88 664.19 152.54
  C 662.90 144.14 659.33 125.76 647.32 126.74
  Q 646.42 126.81 646.07 126.50
  Q 652.06 122.71 651.26 116.52
  C 650.71 112.20 647.93 108.89 643.73 107.78
  C 638.88 106.50 635.06 108.69 632.65 112.82
  Q 629.17 118.79 634.30 125.01
  A 0.19 0.19 0.0 0 1 634.08 125.31
  L 625.21 122.10
  A 0.40 0.40 0.0 0 1 625.04 121.46
  C 627.81 118.28 631.76 113.12 630.50 108.64
  A 1.96 1.95 -43.3 0 1 630.54 107.45
  C 634.28 96.68 631.08 83.34 625.09 74.05
  Q 623.84 72.11 623.10 71.80
  C 620.51 70.73 617.63 72.09 616.80 74.70
  Q 616.36 76.09 617.43 79.18
  C 619.90 86.33 621.34 92.76 620.57 99.34
  C 620.04 103.89 616.54 108.68 613.94 112.10
  A 0.53 0.52 27.8 0 1 613.34 112.28
  L 610.58 111.28
  A 0.46 0.45 -61.3 0 1 610.38 110.57
  C 614.76 104.81 613.00 96.33 605.65 94.16
  Q 601.09 92.81 597.09 96.17
  A 0.11 0.11 0.0 0 1 596.93 96.03
  C 598.74 93.40 600.27 90.76 602.32 88.26
  Q 607.72 81.67 610.50 77.03
  C 615.97 67.90 616.32 56.10 614.56 45.76
  C 614.04 42.64 613.19 39.05 609.52 38.59
  C 606.77 38.25 605.11 40.95 605.01 43.26
  C 604.53 54.76 604.92 66.54 595.64 74.73
  Q 589.35 80.29 580.52 80.56
  C 567.13 80.98 556.96 70.71 554.87 57.95
  Q 553.88 51.87 553.78 44.76
  C 553.73 41.56 551.61 38.73 548.08 39.47
  C 542.79 40.58 543.27 56.22 543.59 60.52
  Q 544.03 66.35 546.36 71.71
  Q 549.53 79.01 551.99 81.76
  Q 557.79 88.24 562.88 95.21
  Z
  M 589.05 69.22
  A 10.19 10.19 0.0 0 0 578.86 59.03
  A 10.19 10.19 0.0 0 0 568.67 69.22
  A 10.19 10.19 0.0 0 0 578.86 79.41
  A 10.19 10.19 0.0 0 0 589.05 69.22
  Z"
/>
<path fill="#d2d8d2" d="
  M 646.07 126.50
  C 642.79 127.51 640.58 128.87 637.16 127.11
  A 0.89 0.88 42.1 0 0 636.27 127.15
  Q 636.13 127.23 636.12 127.24
  A 1.33 1.31 45.5 0 1 635.50 127.23
  L 629.77 125.70
  A 0.05 0.01 31.7 0 0 629.74 125.69
  L 625.05 123.70
  A 2.30 2.30 0.0 0 0 621.86 126.07
  L 622.30 130.04
  A 4.22 4.22 0.0 0 0 625.07 133.55
  L 636.38 137.64
  A 1.13 1.13 0.0 0 0 637.86 136.84
  Q 639.67 129.22 647.32 126.74
  C 659.33 125.76 662.90 144.14 664.19 152.54
  C 666.07 164.88 660.92 173.29 655.32 185.06
  C 653.24 189.44 652.47 193.11 655.56 197.16
  Q 659.35 202.12 666.87 213.23
  Q 669.61 217.27 669.66 219.23
  C 669.75 223.71 664.28 227.01 660.74 223.50
  Q 650.55 213.39 642.34 205.47
  A 0.36 0.36 0.0 0 0 641.78 205.55
  Q 641.44 206.11 641.43 206.50
  Q 641.14 213.99 640.14 220.87
  Q 639.44 225.69 635.07 226.01
  Q 631.04 226.32 630.00 221.79
  Q 627.00 208.74 626.41 194.08
  A 0.14 0.14 0.0 0 0 626.14 194.03
  C 625.22 196.09 624.82 198.76 624.16 200.54
  Q 620.24 210.97 613.27 223.54
  C 611.25 227.19 606.01 227.61 604.13 223.62
  A 0.47 0.46 -42.1 0 0 603.31 223.58
  Q 600.35 228.62 595.39 224.22
  A 0.67 0.66 -52.8 0 0 594.40 224.36
  Q 592.52 227.27 588.60 226.28
  C 586.98 225.87 584.88 223.62 584.03 222.66
  A 2.01 2.00 41.0 0 0 580.86 222.88
  C 579.16 225.43 577.36 226.69 574.08 225.63
  A 2.55 2.53 -2.3 0 1 572.51 224.19
  L 566.97 210.86
  A 0.30 0.30 0.0 0 0 566.40 210.96
  Q 566.07 216.42 565.70 221.49
  Q 565.46 224.79 562.43 225.66
  Q 557.50 227.08 556.30 222.42
  Q 554.81 216.59 553.63 209.49
  A 0.68 0.68 0.0 0 0 552.45 209.14
  Q 546.85 215.40 542.35 220.83
  Q 540.85 222.63 538.70 224.23
  A 1.65 1.65 0.0 0 1 537.71 224.56
  Q 537.27 224.56 532.32 226.07
  A 1.76 1.76 0.0 0 1 531.14 226.01
  Q 528.08 224.74 527.71 221.22
  Q 527.19 216.33 528.02 209.72
  A 0.24 0.24 0.0 0 0 527.83 209.45
  L 527.82 209.45
  A 0.16 0.15 -76.4 0 0 527.64 209.57
  Q 525.65 217.14 523.75 222.49
  C 522.29 226.61 517.40 228.25 514.87 223.99
  Q 513.84 222.26 513.92 219.02
  Q 514.31 203.44 514.87 198.07
  A 0.37 0.37 0.0 0 0 514.18 197.84
  Q 507.03 209.83 500.21 222.91
  C 499.43 224.41 497.04 226.09 495.20 225.85
  C 490.91 225.27 489.77 220.81 490.81 217.04
  Q 494.31 204.36 501.00 190.26
  Q 502.93 186.20 502.10 181.74
  Q 501.12 176.49 499.91 174.33
  Q 497.54 170.10 496.34 167.21
  C 491.63 155.86 498.17 122.74 515.02 124.08
  A 0.28 0.27 -21.6 0 0 515.23 123.60
  C 507.43 116.67 512.94 104.54 523.34 105.88
  A 0.52 0.52 0.0 0 0 523.93 105.33
  Q 523.28 94.69 529.00 84.82
  Q 530.68 81.91 532.91 81.25
  C 537.03 80.04 539.34 84.06 538.33 87.65
  C 535.36 98.11 532.83 107.90 543.32 115.27
  A 0.24 0.24 0.0 0 0 543.67 114.97
  C 541.52 110.40 535.77 96.78 542.38 93.90
  C 546.86 91.95 549.00 101.10 549.37 103.71
  Q 549.41 104.68 549.14 105.20
  A 0.48 0.48 0.0 0 1 548.25 105.06
  C 547.69 101.77 547.23 97.07 544.68 95.05
  A 1.27 1.26 59.8 0 0 543.71 94.79
  Q 540.53 95.26 540.44 98.25
  Q 540.17 106.67 544.91 115.14
  A 0.96 0.93 74.5 0 0 545.75 115.63
  C 549.27 115.56 553.24 117.89 554.76 121.24
  C 555.82 123.57 557.01 126.72 556.03 129.22
  A 0.57 0.57 0.0 0 0 556.35 129.96
  Q 561.50 131.95 566.71 135.99
  A 0.66 0.66 0.0 0 0 567.75 135.60
  Q 568.92 129.89 572.84 126.09
  A 0.35 0.35 0.0 0 0 572.71 125.51
  Q 568.64 124.13 564.43 121.84
  Q 558.49 118.60 554.38 113.49
  A 4.23 3.01 81.1 0 0 553.89 112.99
  Q 549.65 109.40 549.92 103.99
  Q 552.51 93.76 562.69 95.62
  Q 568.31 98.26 569.07 104.32
  A 0.53 0.53 0.0 0 0 569.74 104.76
  Q 570.64 104.49 571.03 103.27
  A 1.58 1.54 79.7 0 1 571.52 102.54
  Q 573.50 100.90 576.50 100.99
  C 580.46 101.11 584.59 100.73 589.23 102.03
  C 590.61 102.42 591.29 103.22 592.22 104.24
  A 0.41 0.41 0.0 0 0 592.92 104.07
  L 595.05 96.40
  A 1.87 1.78 70.3 0 1 595.25 95.95
  L 598.76 90.45
  A 0.32 0.16 -26.6 0 1 598.82 90.37
  C 605.16 82.97 609.96 77.62 612.06 70.41
  Q 612.52 68.83 613.50 64.15
  Q 614.24 60.60 614.19 57.79
  Q 614.07 50.48 612.45 43.03
  C 611.96 40.78 609.52 39.41 607.68 40.87
  Q 606.74 41.61 606.63 44.33
  C 606.23 54.34 605.57 65.52 599.79 72.28
  C 595.29 77.55 589.30 81.91 581.99 82.28
  C 573.13 82.73 565.91 79.86 560.38 72.96
  Q 553.82 64.77 552.89 53.48
  C 552.69 50.99 553.17 45.35 551.61 42.55
  C 550.37 40.29 547.53 40.55 546.52 42.78
  Q 545.42 45.23 545.16 49.82
  Q 544.75 57.05 545.22 61.45
  Q 545.87 67.65 548.33 73.47
  Q 550.07 77.58 555.31 83.70
  Q 556.62 85.23 564.98 95.40
  A 0.41 0.41 0.0 0 1 564.59 96.06
  Q 563.59 95.88 562.88 95.21
  Q 557.79 88.24 551.99 81.76
  Q 549.53 79.01 546.36 71.71
  Q 544.03 66.35 543.59 60.52
  C 543.27 56.22 542.79 40.58 548.08 39.47
  C 551.61 38.73 553.73 41.56 553.78 44.76
  Q 553.88 51.87 554.87 57.95
  C 556.96 70.71 567.13 80.98 580.52 80.56
  Q 589.35 80.29 595.64 74.73
  C 604.92 66.54 604.53 54.76 605.01 43.26
  C 605.11 40.95 606.77 38.25 609.52 38.59
  C 613.19 39.05 614.04 42.64 614.56 45.76
  C 616.32 56.10 615.97 67.90 610.50 77.03
  Q 607.72 81.67 602.32 88.26
  C 600.27 90.76 598.74 93.40 596.93 96.03
  A 0.11 0.11 0.0 0 0 597.09 96.17
  Q 601.09 92.81 605.65 94.16
  C 613.00 96.33 614.76 104.81 610.38 110.57
  A 0.46 0.45 -61.3 0 0 610.58 111.28
  L 613.34 112.28
  A 0.53 0.52 27.8 0 0 613.94 112.10
  C 616.54 108.68 620.04 103.89 620.57 99.34
  C 621.34 92.76 619.90 86.33 617.43 79.18
  Q 616.36 76.09 616.80 74.70
  C 617.63 72.09 620.51 70.73 623.10 71.80
  Q 623.84 72.11 625.09 74.05
  C 631.08 83.34 634.28 96.68 630.54 107.45
  A 1.96 1.95 -43.3 0 0 630.50 108.64
  C 631.76 113.12 627.81 118.28 625.04 121.46
  A 0.40 0.40 0.0 0 0 625.21 122.10
  L 634.08 125.31
  A 0.19 0.19 0.0 0 0 634.30 125.01
  Q 629.17 118.79 632.65 112.82
  C 635.06 108.69 638.88 106.50 643.73 107.78
  C 647.93 108.89 650.71 112.20 651.26 116.52
  Q 652.06 122.71 646.07 126.50
  Z
  M 614.05 114.89
  Q 612.35 112.85 608.77 112.35
  A 0.88 0.81 -54.2 0 0 608.27 112.45
  L 605.05 114.31
  A 1.58 1.58 0.0 0 0 605.47 117.21
  L 609.73 118.22
  A 2.92 2.91 31.2 0 0 612.32 117.59
  Q 614.14 116.02 614.94 115.53
  Q 616.54 114.56 617.35 113.69
  Q 619.62 111.26 623.87 107.64
  Q 626.13 105.71 628.50 106.93
  A 0.56 0.56 0.0 0 0 629.30 106.59
  Q 630.83 101.34 630.67 96.52
  Q 630.31 85.67 623.93 74.71
  A 3.37 3.36 -25.0 0 0 619.87 73.24
  L 619.78 73.28
  A 2.88 2.88 0.0 0 0 618.08 77.02
  Q 621.93 87.06 622.03 95.14
  C 622.11 100.95 619.75 106.46 616.53 110.54
  Q 615.02 112.43 614.34 114.83
  A 0.17 0.17 0.0 0 1 614.05 114.89
  Z
  M 542.57 116.30
  C 538.78 112.77 535.39 109.47 534.83 104.22
  C 534.31 99.33 534.82 94.19 536.41 89.48
  C 537.11 87.39 537.88 84.16 535.80 82.78
  A 2.66 2.65 -47.3 0 0 532.69 82.91
  C 530.60 84.56 529.70 86.61 528.41 89.51
  Q 524.92 97.33 525.39 105.43
  A 1.22 1.20 15.2 0 0 525.95 106.39
  Q 532.90 110.81 531.22 118.86
  A 3.28 3.27 25.4 0 0 532.37 122.08
  L 535.33 124.47
  A 1.19 1.19 0.0 0 0 537.26 123.70
  Q 537.92 118.80 542.50 116.76
  A 0.28 0.28 0.0 0 0 542.57 116.30
  Z
  M 603.9518 95.4010
  A 8.72 8.46 -83.8 0 0 594.5995 103.1563
  A 8.72 8.46 -83.8 0 0 602.0682 112.7390
  A 8.72 8.46 -83.8 0 0 611.4205 104.9837
  A 8.72 8.46 -83.8 0 0 603.9518 95.4010
  Z
  M 559.7698 96.3663
  A 8.59 8.33 -87.8 0 0 551.1161 104.6302
  A 8.59 8.33 -87.8 0 0 559.1102 113.5337
  A 8.59 8.33 -87.8 0 0 567.7639 105.2698
  A 8.59 8.33 -87.8 0 0 559.7698 96.3663
  Z
  M 590.07 116.84
  Q 587.99 120.92 584.18 122.40
  C 576.20 125.50 567.60 117.59 571.00 109.33
  Q 572.50 105.68 575.59 103.90
  A 0.46 0.46 0.0 0 0 575.40 103.04
  C 572.83 102.86 571.53 104.62 569.79 106.64
  A 3.65 3.50 -12.8 0 0 569.29 107.40
  Q 568.10 109.77 566.13 112.19
  A 2.70 2.67 -18.1 0 0 565.61 113.20
  Q 564.85 115.90 565.01 118.35
  C 565.23 121.68 570.91 123.71 573.65 124.36
  A 4.25 3.91 -37.9 0 0 574.86 124.46
  Q 583.77 123.92 590.89 121.30
  Q 597.03 116.11 594.92 110.03
  Q 593.35 105.52 589.19 103.84
  Q 587.09 102.99 583.58 102.04
  A 0.34 0.34 0.0 0 0 583.34 102.67
  Q 592.28 107.18 590.07 116.84
  Z
  M 581.94 121.60
  C 586.61 120.83 590.30 115.97 588.78 111.10
  Q 586.62 104.14 579.24 103.67
  Q 579.18 103.67 579.01 103.70
  Q 578.84 103.73 578.79 103.75
  Q 571.94 106.54 572.11 113.83
  C 572.23 118.93 577.28 122.36 581.94 121.60
  Z
  M 514.3209 111.3179
  A 8.72 8.59 -148.3 0 0 517.2262 123.2085
  A 8.72 8.59 -148.3 0 0 529.1591 120.4821
  A 8.72 8.59 -148.3 0 0 526.2538 108.5915
  A 8.72 8.59 -148.3 0 0 514.3209 111.3179
  Z
  M 593.20 138.15
  Q 595.45 135.10 598.18 135.52
  A 3.19 3.07 41.6 0 0 599.42 135.47
  Q 609.61 132.96 618.35 126.52
  Q 621.51 124.19 623.85 121.17
  C 626.93 117.22 629.29 114.62 629.42 109.70
  A 1.11 1.10 20.8 0 0 629.01 108.80
  C 625.57 106.00 622.44 110.45 620.10 113.13
  Q 617.79 115.78 615.40 117.41
  Q 606.20 123.70 594.96 124.62
  A 1.01 1.01 0.0 0 0 594.35 126.35
  Q 598.13 129.96 594.69 133.96
  Q 592.49 136.52 588.63 140.40
  C 583.48 145.58 576.67 149.61 570.41 151.64
  A 0.45 0.45 0.0 0 0 570.10 152.02
  L 569.07 161.91
  A 0.71 0.71 0.0 0 0 569.92 162.68
  C 576.26 161.37 579.34 167.64 579.85 173.15
  A 1.00 0.99 79.7 0 0 581.10 174.02
  L 581.22 173.98
  A 1.50 1.50 0.0 0 0 582.33 172.43
  C 581.88 165.14 584.30 159.06 592.86 160.14
  A 0.47 0.47 0.0 0 0 593.36 159.51
  Q 589.42 148.88 593.02 138.48
  A 1.09 1.05 -17.4 0 1 593.20 138.15
  Z
  M 650.00 117.64
  A 8.76 8.76 0.0 0 0 641.24 108.88
  A 8.76 8.76 0.0 0 0 632.48 117.64
  A 8.76 8.76 0.0 0 0 641.24 126.40
  A 8.76 8.76 0.0 0 0 650.00 117.64
  Z
  M 596.82 116.66
  L 602.10 116.66
  A 1.04 1.03 3.1 0 0 603.13 115.74
  L 603.20 115.04
  A 1.10 1.10 0.0 0 0 602.22 113.84
  Q 599.43 113.56 597.45 111.82
  A 0.32 0.32 0.0 0 0 596.92 112.03
  L 596.48 116.28
  A 0.34 0.34 0.0 0 0 596.82 116.66
  Z
  M 563.20 114.12
  Q 559.89 115.27 557.70 114.80
  A 0.25 0.25 0.0 0 0 557.49 115.24
  L 562.30 119.12
  A 0.46 0.46 0.0 0 0 563.05 118.85
  L 563.85 114.68
  A 0.50 0.50 0.0 0 0 563.20 114.12
  Z
  M 543.3970 117.2538
  A 8.93 8.37 -112.4 0 0 539.0615 128.6996
  A 8.93 8.37 -112.4 0 0 550.2030 133.7662
  A 8.93 8.37 -112.4 0 0 554.5385 122.3204
  A 8.93 8.37 -112.4 0 0 543.3970 117.2538
  Z
  M 609.01 119.35
  Q 603.11 117.47 597.06 118.34
  Q 594.12 118.77 591.48 122.49
  A 0.43 0.42 17.7 0 0 591.83 123.16
  Q 600.35 123.13 609.02 119.81
  A 0.24 0.24 0.0 0 0 609.01 119.35
  Z
  M 519.72 126.23
  C 522.64 128.74 531.45 128.69 535.59 128.82
  A 0.99 0.98 -0.8 0 0 536.61 127.79
  Q 536.59 127.37 536.37 127.18
  Q 531.83 123.17 531.07 121.87
  A 0.54 0.54 0.0 0 0 530.21 121.78
  Q 526.08 126.39 519.89 125.83
  A 0.23 0.23 0.0 0 0 519.72 126.23
  Z
  M 588.26 124.98
  Q 587.62 124.34 586.77 124.77
  Q 585.90 125.21 584.71 125.18
  Q 579.78 125.05 575.04 126.32
  A 3.40 3.20 -69.7 0 0 573.83 126.92
  Q 569.02 130.68 569.09 137.22
  A 0.87 0.87 0.0 0 0 570.09 138.07
  C 571.72 137.82 573.02 137.08 574.55 136.12
  Q 574.78 135.98 588.20 125.77
  A 0.53 0.53 0.0 0 0 588.26 124.98
  Z
  M 505.79 141.27
  C 515.86 148.92 526.54 156.22 539.73 154.55
  Q 549.57 153.30 557.33 148.06
  C 560.02 146.24 562.18 144.04 558.71 141.50
  A 2.07 2.04 -36.1 0 0 556.83 141.22
  Q 545.69 145.02 534.26 144.78
  C 529.39 144.69 523.38 141.66 519.00 137.74
  Q 515.31 134.45 512.27 132.07
  A 0.37 0.37 0.0 0 1 512.21 131.55
  L 512.43 131.28
  A 0.50 0.49 -51.2 0 1 513.12 131.20
  L 522.49 138.78
  A 0.55 0.55 0.0 0 0 523.37 138.25
  L 521.98 130.95
  A 4.46 4.44 -78.5 0 0 520.11 128.11
  C 517.52 126.37 512.49 124.51 509.71 126.22
  C 500.03 132.18 496.11 147.75 496.41 158.39
  C 496.72 169.49 503.86 176.08 511.80 183.20
  C 516.21 187.15 516.73 191.47 516.36 197.19
  Q 515.86 204.82 515.25 212.44
  Q 514.87 217.04 515.27 221.00
  Q 515.71 225.31 519.86 224.87
  A 2.86 2.86 0.0 0 0 522.23 223.03
  Q 523.64 219.30 524.78 214.52
  Q 527.06 205.01 529.08 195.51
  C 531.00 186.43 529.22 180.60 523.96 173.19
  Q 519.78 167.29 512.93 160.41
  A 1.04 0.90 57.4 0 1 513.17 158.76
  Q 513.44 158.68 514.12 159.27
  A 0.57 0.56 30.6 0 0 515.03 159.04
  L 517.49 152.25
  A 0.92 0.91 -62.5 0 0 517.16 151.20
  L 508.51 145.10
  A 10.71 10.66 2.7 0 1 505.43 141.73
  L 505.38 141.63
  A 0.28 0.28 0.0 0 1 505.79 141.27
  Z
  M 558.42 150.17
  C 561.62 150.77 567.55 151.05 571.13 149.83
  C 579.44 147.01 586.02 141.11 592.07 134.82
  Q 593.73 133.11 594.70 130.89
  A 1.54 1.54 0.0 0 0 594.79 129.94
  C 593.91 126.12 590.00 125.95 587.32 128.10
  Q 580.56 133.56 575.42 136.90
  C 570.50 140.10 566.16 140.01 560.52 139.32
  A 0.69 0.69 0.0 0 0 559.95 140.50
  C 563.75 144.28 561.08 146.84 558.23 149.49
  A 0.40 0.40 0.0 0 0 558.42 150.17
  Z
  M 621.88 142.45
  Q 622.00 135.31 620.51 127.39
  A 0.50 0.50 0.0 0 0 619.73 127.08
  L 613.21 131.83
  A 0.70 0.66 72.6 0 0 612.94 132.38
  L 612.94 139.98
  A 1.86 1.85 -83.3 0 0 614.36 141.79
  L 620.77 143.32
  A 0.90 0.90 0.0 0 0 621.88 142.45
  Z
  M 638.15 138.02
  Q 638.50 138.36 639.93 137.28
  C 641.59 136.03 642.37 135.78 644.64 135.69
  C 648.02 135.55 652.36 142.08 653.48 144.45
  A 1.29 1.28 58.3 0 1 653.12 146.01
  Q 647.60 150.39 642.25 152.78
  A 0.67 0.66 -18.0 0 0 641.87 153.51
  C 643.08 159.60 643.75 163.27 641.95 168.70
  Q 640.46 173.21 638.46 178.95
  C 636.18 185.53 635.12 192.96 638.54 199.20
  Q 639.24 200.47 644.09 205.06
  Q 648.93 209.64 649.29 209.98
  C 651.87 212.38 655.05 216.45 658.55 218.98
  C 660.00 220.02 661.81 222.68 663.55 223.09
  C 668.26 224.19 668.80 219.77 666.98 216.75
  Q 662.79 209.81 654.05 197.60
  C 650.28 192.35 652.03 188.59 654.59 182.87
  Q 656.21 179.23 659.59 172.16
  Q 664.59 161.68 662.35 150.48
  C 660.84 142.92 658.30 135.80 653.11 129.96
  A 2.76 2.57 -6.9 0 0 652.19 129.29
  Q 648.58 127.64 646.26 128.41
  Q 641.95 129.86 639.89 134.66
  Q 638.50 137.91 638.28 137.82
  A 0.12 0.12 0.0 0 0 638.15 138.02
  Z
  M 525.44 139.23
  L 532.13 139.23
  A 0.40 0.38 9.4 0 0 532.50 138.98
  L 535.44 130.84
  A 0.41 0.41 0.0 0 0 535.10 130.29
  L 523.27 129.06
  A 0.24 0.24 0.0 0 0 523.01 129.34
  L 524.81 138.72
  A 0.64 0.63 -5.4 0 0 525.44 139.23
  Z
  M 559.26 137.69
  Q 556.61 135.98 554.63 133.43
  A 0.81 0.80 -26.5 0 0 553.77 133.15
  C 552.66 133.45 551.80 134.47 550.75 134.86
  Q 541.91 138.16 538.09 129.56
  A 0.56 0.55 -46.0 0 0 537.07 129.58
  Q 534.41 136.16 533.67 142.25
  A 0.88 0.88 0.0 0 0 534.47 143.24
  C 542.41 143.89 548.16 142.41 557.24 139.77
  A 1.55 1.52 -82.5 0 0 558.13 139.07
  Q 558.42 138.56 559.12 138.41
  A 0.40 0.39 -34.3 0 0 559.26 137.69
  Z
  M 567.02 137.51
  Q 563.64 134.38 557.66 131.72
  Q 556.99 131.43 556.60 131.70
  Q 555.98 132.11 556.29 132.63
  Q 560.06 139.06 566.75 138.31
  A 0.47 0.46 -26.5 0 0 567.02 137.51
  Z
  M 612.08 140.32
  L 611.31 133.41
  A 0.36 0.36 0.0 0 0 610.81 133.12
  L 603.47 136.17
  A 0.30 0.30 0.0 0 0 603.46 136.72
  L 611.80 140.52
  A 0.20 0.20 0.0 0 0 612.08 140.32
  Z
  M 623.60 144.02
  Q 630.21 144.09 635.89 139.52
  A 0.27 0.26 -54.2 0 0 635.82 139.06
  L 623.18 134.49
  A 0.25 0.25 0.0 0 0 622.85 134.74
  L 623.23 143.66
  A 0.37 0.37 0.0 0 0 623.60 144.02
  Z
  M 598.44 141.42
  Q 599.12 143.56 601.28 145.23
  Q 611.20 152.89 624.26 155.21
  Q 626.70 155.64 632.48 154.73
  Q 635.92 154.18 640.17 151.90
  Q 647.59 147.94 651.80 144.77
  A 0.60 0.59 -34.6 0 0 651.95 143.98
  Q 649.57 140.15 646.33 137.49
  A 2.76 2.76 0.0 0 0 643.72 137.00
  C 641.33 137.77 638.60 139.29 635.78 141.16
  C 632.29 143.46 628.10 145.49 623.99 145.21
  C 616.91 144.72 610.97 141.77 602.23 138.02
  Q 600.89 137.44 599.21 137.63
  A 0.76 0.76 0.0 0 0 598.54 138.30
  Q 598.26 140.83 598.44 141.42
  Z
  M 610.78 152.84
  Q 610.40 152.68 604.14 149.10
  C 600.87 147.23 596.18 143.26 596.82 139.09
  A 0.88 0.88 0.0 0 0 595.28 138.38
  C 593.78 140.17 593.51 142.77 593.05 145.41
  Q 591.74 152.85 594.85 159.38
  A 4.87 4.61 -80.3 0 0 595.61 160.52
  Q 598.04 163.24 599.60 165.16
  C 602.29 168.48 605.33 176.71 605.67 181.70
  A 3.28 3.25 -72.8 0 0 606.88 184.02
  Q 613.59 189.42 611.16 197.63
  Q 607.50 209.95 605.05 219.79
  Q 604.63 221.49 606.03 224.22
  A 1.29 1.29 0.0 0 0 606.85 224.89
  Q 610.21 225.80 611.75 223.54
  Q 614.16 220.01 621.12 204.64
  C 625.07 195.94 627.42 186.81 622.01 178.26
  Q 619.74 174.68 614.64 166.87
  Q 611.39 161.92 611.36 153.71
  A 0.94 0.94 0.0 0 0 610.78 152.84
  Z
  M 526.32 140.51
  A 0.27 0.26 58.8 0 0 526.20 141.01
  Q 528.57 142.29 531.63 142.88
  A 0.75 0.75 0.0 0 0 532.51 142.23
  L 532.64 140.91
  A 0.36 0.36 0.0 0 0 532.28 140.51
  L 526.32 140.51
  Z
  M 532.46 222.11
  Q 530.76 219.27 532.59 215.85
  Q 537.09 207.47 539.97 202.46
  Q 543.12 196.96 545.53 186.39
  A 1.81 1.80 -46.9 0 0 545.50 185.42
  Q 545.05 183.91 543.85 182.41
  Q 539.15 176.55 536.60 172.67
  A 0.30 0.30 0.0 0 0 536.07 172.75
  C 532.14 185.73 530.61 199.66 528.92 214.12
  Q 528.74 215.61 528.79 221.07
  A 2.37 2.18 -57.6 0 0 528.94 221.89
  Q 530.00 224.71 532.78 224.67
  Q 534.90 223.23 536.22 223.61
  A 1.10 1.09 39.4 0 0 536.99 223.54
  Q 540.05 222.10 542.73 218.47
  C 545.44 214.79 549.54 211.25 552.81 206.95
  Q 556.90 201.57 559.46 198.74
  Q 561.37 196.62 561.96 195.46
  A 2.09 2.07 -31.9 0 0 562.18 194.53
  Q 562.18 194.02 561.46 188.91
  C 560.96 185.39 561.36 182.57 561.67 178.31
  A 0.91 0.81 34.7 0 0 561.55 177.81
  L 552.37 161.91
  A 0.35 0.35 0.0 0 1 552.66 161.39
  Q 553.77 161.32 554.03 162.12
  A 0.83 0.73 -53.5 0 0 555.51 161.80
  Q 556.71 153.28 556.70 151.88
  A 1.17 1.17 0.0 0 0 554.98 150.85
  C 549.11 154.00 540.66 156.29 533.59 156.36
  A 0.54 0.54 0.0 0 0 533.06 156.94
  Q 533.42 161.79 535.50 166.28
  C 536.34 168.08 538.33 172.38 539.74 174.46
  C 541.05 176.39 545.02 181.10 546.66 184.59
  Q 548.11 187.70 548.19 188.34
  Q 548.62 191.89 547.05 194.07
  Q 538.93 205.38 533.37 217.35
  A 3.68 3.61 -28.5 0 0 533.07 218.33
  L 532.46 222.11
  Z
  M 563.42 169.52
  A 0.32 0.32 0.0 0 0 563.97 169.48
  L 567.35 162.58
  A 3.47 3.34 62.4 0 0 567.64 161.59
  L 568.67 152.97
  A 0.69 0.69 0.0 0 0 567.98 152.20
  L 559.91 152.20
  A 1.43 1.43 0.0 0 0 558.53 153.25
  Q 557.34 157.57 557.65 160.79
  A 1.54 1.48 -66.1 0 0 557.90 161.48
  L 563.42 169.52
  Z
  M 531.36 185.73
  A 0.16 0.16 0.0 0 0 531.68 185.74
  L 534.49 171.16
  A 3.28 3.18 -50.2 0 0 534.36 169.45
  Q 532.25 163.63 531.45 156.77
  A 0.32 0.31 7.8 0 0 531.25 156.51
  L 520.05 152.46
  A 0.97 0.97 0.0 0 0 518.81 153.04
  L 516.40 159.71
  A 1.86 1.85 35.8 0 0 516.69 161.49
  Q 521.48 167.66 525.82 173.17
  Q 530.16 178.68 531.36 185.73
  Z
  M 616.46 166.73
  A 0.60 0.59 -51.0 0 0 617.47 166.62
  Q 619.66 161.87 620.28 156.68
  A 0.38 0.37 13.4 0 0 620.03 156.28
  L 613.23 153.82
  A 0.28 0.27 -78.5 0 0 612.86 154.07
  Q 612.48 161.45 616.46 166.73
  Z
  M 626.34 185.39
  A 0.36 0.36 0.0 0 0 627.05 185.34
  Q 627.34 181.49 628.71 178.45
  Q 633.39 168.12 640.50 159.60
  A 1.67 1.67 0.0 0 0 640.86 158.23
  L 640.24 155.01
  A 0.65 0.64 -17.1 0 0 639.35 154.54
  Q 631.54 157.90 622.46 156.75
  A 0.59 0.58 -78.3 0 0 621.83 157.17
  L 618.47 168.16
  A 1.56 1.45 51.7 0 0 618.42 168.78
  Q 618.61 170.10 619.67 171.26
  A 2.45 2.45 0.0 0 1 620.11 171.89
  C 622.50 176.52 625.17 180.29 626.34 185.39
  Z
  M 640.53 161.63
  Q 636.27 167.36 631.66 175.41
  Q 627.39 182.89 627.91 191.01
  Q 628.41 198.76 628.47 202.99
  Q 628.53 207.46 630.84 219.84
  C 631.45 223.08 632.67 225.66 636.24 224.55
  A 2.99 2.99 0.0 0 0 638.34 221.99
  L 640.23 203.88
  A 0.88 0.87 -65.5 0 0 639.97 203.17
  Q 635.46 198.76 635.02 194.01
  C 634.17 184.75 637.13 177.87 640.99 167.12
  A 3.16 3.14 -32.3 0 0 641.16 166.38
  L 641.61 162.05
  A 0.60 0.60 0.0 0 0 640.53 161.63
  Z
  M 593.23 223.48
  C 596.56 215.98 598.66 209.05 601.10 202.02
  Q 603.50 195.09 603.76 192.85
  Q 603.99 190.89 604.22 187.60
  C 604.63 181.96 603.34 176.20 601.20 171.08
  C 599.89 167.94 597.77 165.70 595.15 163.68
  Q 590.90 160.39 586.64 162.91
  A 2.38 2.34 -89.1 0 0 585.82 163.72
  Q 583.66 167.35 583.84 172.98
  A 3.80 3.74 -63.3 0 0 584.49 175.00
  Q 587.25 179.07 589.95 183.06
  Q 592.15 186.31 592.33 188.78
  Q 592.76 194.80 590.95 199.92
  C 588.49 206.87 586.61 215.39 585.55 221.74
  A 1.37 1.35 29.9 0 0 585.86 222.86
  Q 588.34 225.75 592.37 224.28
  A 1.52 1.51 1.9 0 0 593.23 223.48
  Z
  M 557.00 162.89
  C 556.35 166.90 559.12 170.88 561.58 174.50
  A 0.46 0.46 0.0 0 0 562.41 174.33
  L 562.87 171.95
  A 1.24 1.19 36.4 0 0 562.73 171.13
  L 557.87 162.73
  A 0.47 0.47 0.0 0 0 557.00 162.89
  Z
  M 574.52 223.89
  Q 578.04 225.41 580.08 222.52
  A 1.71 1.67 -28.7 0 0 580.38 221.53
  C 580.35 218.91 580.40 217.75 579.88 215.44
  C 578.21 208.00 575.57 198.96 574.70 190.51
  C 574.25 186.16 576.47 180.27 578.38 174.97
  A 2.13 2.11 52.5 0 0 578.50 174.02
  C 577.96 168.64 575.12 162.46 568.69 165.11
  A 2.14 2.12 6.5 0 0 567.79 165.82
  Q 563.69 171.67 562.98 178.30
  Q 562.90 179.08 562.92 188.26
  Q 562.94 192.80 564.37 198.10
  Q 567.02 207.92 567.54 209.07
  Q 569.58 213.61 571.72 219.54
  Q 572.55 221.86 573.73 223.30
  A 2.10 2.04 -7.5 0 0 574.52 223.89
  Z
  M 584.34 220.72
  L 589.11 200.78
  A 1.81 1.80 40.0 0 0 589.01 199.67
  Q 585.32 191.01 586.19 180.78
  A 1.63 1.56 33.7 0 0 585.99 179.87
  L 583.57 175.69
  A 0.96 0.96 0.0 0 0 581.78 176.13
  Q 581.33 185.34 577.63 193.74
  A 4.92 4.88 51.7 0 0 577.30 196.65
  L 581.90 220.67
  A 1.25 1.25 0.0 0 0 584.34 220.72
  Z
  M 580.2586 175.4384
  A 9.07 1.38 -77.4 0 0 576.9332 183.9890
  A 9.07 1.38 -77.4 0 0 576.3014 193.1416
  A 9.07 1.38 -77.4 0 0 579.6268 184.5910
  A 9.07 1.38 -77.4 0 0 580.2586 175.4384
  Z
  M 502.78 176.81
  A 0.26 0.25 -80.5 0 0 502.38 177.10
  C 504.76 183.12 504.26 186.97 501.07 193.79
  C 497.15 202.17 493.66 209.95 492.11 218.51
  C 491.47 222.05 492.68 224.75 496.82 223.90
  A 1.76 1.73 17.1 0 0 497.67 223.46
  Q 499.43 221.83 500.84 219.08
  Q 507.69 205.68 514.26 195.41
  A 3.60 3.54 63.4 0 0 514.83 193.65
  Q 515.08 189.04 511.52 185.42
  Q 504.76 178.56 502.78 176.81
  Z
  M 589.74 197.52
  A 0.31 0.31 0.0 0 0 590.27 197.36
  Q 590.78 194.79 590.84 190.78
  Q 590.90 186.77 588.69 183.49
  A 0.87 0.86 30.1 0 0 587.11 183.91
  Q 586.74 189.01 588.44 194.04
  C 588.78 195.05 588.91 196.65 589.74 197.52
  Z
  M 604.18 215.57
  A 0.26 0.25 -40.2 0 0 604.68 215.61
  Q 607.25 207.02 609.55 198.48
  C 611.00 193.08 610.90 189.01 606.70 185.50
  A 0.59 0.59 0.0 0 0 605.73 185.94
  Q 605.50 193.47 602.95 200.32
  A 4.41 4.40 52.2 0 0 602.70 202.32
  L 604.18 215.57
  Z
  M 546.8453 188.4937
  A 2.48 0.58 -74.2 0 0 545.6119 190.7221
  A 2.48 0.58 -74.2 0 0 545.4947 193.2663
  A 2.48 0.58 -74.2 0 0 546.7281 191.0379
  A 2.48 0.58 -74.2 0 0 546.8453 188.4937
  Z
  M 562.54 196.85
  L 554.68 206.57
  A 1.24 1.24 0.0 0 0 554.42 207.57
  Q 555.80 215.07 556.60 219.13
  Q 557.25 222.44 558.42 223.83
  A 1.80 1.76 -10.3 0 0 559.25 224.39
  C 562.01 225.30 564.67 224.30 564.81 221.32
  Q 565.39 209.48 565.46 208.98
  A 4.32 4.28 42.6 0 0 565.39 207.47
  L 563.11 196.99
  A 0.33 0.32 58.3 0 0 562.54 196.85
  Z
  M 601.60 205.68
  A 0.09 0.08 -70.3 0 0 601.50 205.73
  L 596.24 220.30
  A 3.38 3.38 0.0 0 0 597.80 224.42
  L 597.94 224.49
  A 3.26 3.25 27.2 0 0 602.41 223.06
  Q 603.44 220.95 603.15 218.76
  Q 602.69 215.25 601.95 206.12
  A 0.47 0.27 -75.5 0 0 601.91 205.98
  Q 601.75 205.70 601.60 205.68
  Z"
/>
<path fill="#d3c48c" d="
  M 562.69 95.62
  Q 562.72 95.41 562.88 95.21
  Q 563.59 95.88 564.59 96.06
  A 0.41 0.41 0.0 0 0 564.98 95.40
  Q 556.62 85.23 555.31 83.70
  Q 550.07 77.58 548.33 73.47
  Q 545.87 67.65 545.22 61.45
  Q 544.75 57.05 545.16 49.82
  Q 545.42 45.23 546.52 42.78
  C 547.53 40.55 550.37 40.29 551.61 42.55
  C 553.17 45.35 552.69 50.99 552.89 53.48
  Q 553.82 64.77 560.38 72.96
  C 565.91 79.86 573.13 82.73 581.99 82.28
  C 589.30 81.91 595.29 77.55 599.79 72.28
  C 605.57 65.52 606.23 54.34 606.63 44.33
  Q 606.74 41.61 607.68 40.87
  C 609.52 39.41 611.96 40.78 612.45 43.03
  Q 614.07 50.48 614.19 57.79
  Q 614.24 60.60 613.50 64.15
  Q 612.52 68.83 612.06 70.41
  C 609.96 77.62 605.16 82.97 598.82 90.37
  A 0.32 0.16 -26.6 0 0 598.76 90.45
  L 595.25 95.95
  A 1.87 1.78 70.3 0 0 595.05 96.40
  L 592.92 104.07
  A 0.41 0.41 0.0 0 1 592.22 104.24
  C 591.29 103.22 590.61 102.42 589.23 102.03
  C 584.59 100.73 580.46 101.11 576.50 100.99
  Q 573.50 100.90 571.52 102.54
  A 1.58 1.54 79.7 0 0 571.03 103.27
  Q 570.64 104.49 569.74 104.76
  A 0.53 0.53 0.0 0 1 569.07 104.32
  Q 568.31 98.26 562.69 95.62
  Z"
/>
<path fill="#d2d8d2" d="
  M 589.05 69.22
  A 10.19 10.19 0.0 0 1 578.86 79.41
  A 10.19 10.19 0.0 0 1 568.67 69.22
  A 10.19 10.19 0.0 0 1 578.86 59.03
  A 10.19 10.19 0.0 0 1 589.05 69.22
  Z
  M 587.66 69.21
  A 8.86 8.86 0.0 0 0 578.80 60.35
  A 8.86 8.86 0.0 0 0 569.94 69.21
  A 8.86 8.86 0.0 0 0 578.80 78.07
  A 8.86 8.86 0.0 0 0 587.66 69.21
  Z"
/>
<circle fill="#d3c48c" cx="578.80" cy="69.21" r="8.86"/>
<path fill="#977f46" d="
  M 614.05 114.89
  A 0.17 0.17 0.0 0 0 614.34 114.83
  Q 615.02 112.43 616.53 110.54
  C 619.75 106.46 622.11 100.95 622.03 95.14
  Q 621.93 87.06 618.08 77.02
  A 2.88 2.88 0.0 0 1 619.78 73.28
  L 619.87 73.24
  A 3.37 3.36 -25.0 0 1 623.93 74.71
  Q 630.31 85.67 630.67 96.52
  Q 630.83 101.34 629.30 106.59
  A 0.56 0.56 0.0 0 1 628.50 106.93
  Q 626.13 105.71 623.87 107.64
  Q 619.62 111.26 617.35 113.69
  Q 616.54 114.56 614.94 115.53
  Q 614.14 116.02 612.32 117.59
  A 2.92 2.91 31.2 0 1 609.73 118.22
  L 605.47 117.21
  A 1.58 1.58 0.0 0 1 605.05 114.31
  L 608.27 112.45
  A 0.88 0.81 -54.2 0 1 608.77 112.35
  Q 612.35 112.85 614.05 114.89
  Z"
/>
<path fill="#977f46" d="
  M 542.57 116.30
  A 0.28 0.28 0.0 0 1 542.50 116.76
  Q 537.92 118.80 537.26 123.70
  A 1.19 1.19 0.0 0 1 535.33 124.47
  L 532.37 122.08
  A 3.28 3.27 25.4 0 1 531.22 118.86
  Q 532.90 110.81 525.95 106.39
  A 1.22 1.20 15.2 0 1 525.39 105.43
  Q 524.92 97.33 528.41 89.51
  C 529.70 86.61 530.60 84.56 532.69 82.91
  A 2.66 2.65 -47.3 0 1 535.80 82.78
  C 537.88 84.16 537.11 87.39 536.41 89.48
  C 534.82 94.19 534.31 99.33 534.83 104.22
  C 535.39 109.47 538.78 112.77 542.57 116.30
  Z"
/>
<path fill="#d3c48c" d="
  M 549.37 103.71
  Q 549.50 104.31 549.92 103.99
  Q 549.65 109.40 553.89 112.99
  A 4.23 3.01 81.1 0 1 554.38 113.49
  Q 558.49 118.60 564.43 121.84
  Q 568.64 124.13 572.71 125.51
  A 0.35 0.35 0.0 0 1 572.84 126.09
  Q 568.92 129.89 567.75 135.60
  A 0.66 0.66 0.0 0 1 566.71 135.99
  Q 561.50 131.95 556.35 129.96
  A 0.57 0.57 0.0 0 1 556.03 129.22
  C 557.01 126.72 555.82 123.57 554.76 121.24
  C 553.24 117.89 549.27 115.56 545.75 115.63
  A 0.96 0.93 74.5 0 1 544.91 115.14
  Q 540.17 106.67 540.44 98.25
  Q 540.53 95.26 543.71 94.79
  A 1.27 1.26 59.8 0 1 544.68 95.05
  C 547.23 97.07 547.69 101.77 548.25 105.06
  A 0.48 0.48 0.0 0 0 549.14 105.20
  Q 549.41 104.68 549.37 103.71
  Z"
/>
<ellipse fill="#977f46" cx="0.00" cy="0.00" transform="translate(603.01,104.07) rotate(-83.8)" rx="8.72" ry="8.46"/>
<ellipse fill="#977f46" cx="0.00" cy="0.00" transform="translate(559.44,104.95) rotate(-87.8)" rx="8.59" ry="8.33"/>
<path fill="#977f46" d="
  M 590.89 121.30
  L 590.07 116.84
  Q 592.28 107.18 583.34 102.67
  A 0.34 0.34 0.0 0 1 583.58 102.04
  Q 587.09 102.99 589.19 103.84
  Q 593.35 105.52 594.92 110.03
  Q 597.03 116.11 590.89 121.30
  Z"
/>
<path fill="#d3c48c" d="
  M 590.07 116.84
  L 590.89 121.30
  Q 583.77 123.92 574.86 124.46
  A 4.25 3.91 -37.9 0 1 573.65 124.36
  C 570.91 123.71 565.23 121.68 565.01 118.35
  Q 564.85 115.90 565.61 113.20
  A 2.70 2.67 -18.1 0 1 566.13 112.19
  Q 568.10 109.77 569.29 107.40
  A 3.65 3.50 -12.8 0 1 569.79 106.64
  C 571.53 104.62 572.83 102.86 575.40 103.04
  A 0.46 0.46 0.0 0 1 575.59 103.90
  Q 572.50 105.68 571.00 109.33
  C 567.60 117.59 576.20 125.50 584.18 122.40
  Q 587.99 120.92 590.07 116.84
  Z"
/>
<path fill="#d3c48c" d="
  M 579.01 103.70
  Q 579.18 103.67 579.24 103.67
  Q 586.62 104.14 588.78 111.10
  C 590.30 115.97 586.61 120.83 581.94 121.60
  C 577.28 122.36 572.23 118.93 572.11 113.83
  Q 571.94 106.54 578.79 103.75
  Q 578.84 103.73 579.01 103.70
  Z"
/>
<ellipse fill="#977f46" cx="0.00" cy="0.00" transform="translate(521.74,115.90) rotate(-148.3)" rx="8.72" ry="8.59"/>
<path fill="#d3c48c" d="
  M 593.02 138.48
  Q 589.42 148.88 593.36 159.51
  A 0.47 0.47 0.0 0 1 592.86 160.14
  C 584.30 159.06 581.88 165.14 582.33 172.43
  A 1.50 1.50 0.0 0 1 581.22 173.98
  L 581.10 174.02
  A 1.00 0.99 79.7 0 1 579.85 173.15
  C 579.34 167.64 576.26 161.37 569.92 162.68
  A 0.71 0.71 0.0 0 1 569.07 161.91
  L 570.10 152.02
  A 0.45 0.45 0.0 0 1 570.41 151.64
  C 576.67 149.61 583.48 145.58 588.63 140.40
  Q 592.49 136.52 594.69 133.96
  Q 598.13 129.96 594.35 126.35
  A 1.01 1.01 0.0 0 1 594.96 124.62
  Q 606.20 123.70 615.40 117.41
  Q 617.79 115.78 620.10 113.13
  C 622.44 110.45 625.57 106.00 629.01 108.80
  A 1.11 1.10 20.8 0 1 629.42 109.70
  C 629.29 114.62 626.93 117.22 623.85 121.17
  Q 621.51 124.19 618.35 126.52
  Q 609.61 132.96 599.42 135.47
  A 3.19 3.07 41.6 0 1 598.18 135.52
  Q 595.45 135.10 593.20 138.15
  A 1.09 1.05 -17.4 0 0 593.02 138.48
  Z"
/>
<circle fill="#977f46" cx="641.24" cy="117.64" r="8.76"/>
<path fill="#325c7f" d="
  M 596.48 116.28
  L 596.92 112.03
  A 0.32 0.32 0.0 0 1 597.45 111.82
  Q 599.43 113.56 602.22 113.84
  A 1.10 1.10 0.0 0 1 603.20 115.04
  L 603.13 115.74
  A 1.04 1.03 3.1 0 1 602.10 116.66
  L 596.82 116.66
  A 0.34 0.34 0.0 0 1 596.48 116.28
  Z"
/>
<path fill="#325c7f" d="
  M 563.85 114.68
  L 563.05 118.85
  A 0.46 0.46 0.0 0 1 562.30 119.12
  L 557.49 115.24
  A 0.25 0.25 0.0 0 1 557.70 114.80
  Q 559.89 115.27 563.20 114.12
  A 0.50 0.50 0.0 0 1 563.85 114.68
  Z"
/>
<ellipse fill="#d3c48c" cx="0.00" cy="0.00" transform="translate(546.80,125.51) rotate(-112.4)" rx="8.93" ry="8.37"/>
<path fill="#977f46" d="
  M 609.01 119.35
  A 0.24 0.24 0.0 0 1 609.02 119.81
  Q 600.35 123.13 591.83 123.16
  A 0.43 0.42 17.7 0 1 591.48 122.49
  Q 594.12 118.77 597.06 118.34
  Q 603.11 117.47 609.01 119.35
  Z"
/>
<path fill="#325c7f" d="
  M 519.89 125.83
  Q 526.08 126.39 530.21 121.78
  A 0.54 0.54 0.0 0 1 531.07 121.87
  Q 531.83 123.17 536.37 127.18
  Q 536.59 127.37 536.61 127.79
  A 0.99 0.98 -0.8 0 1 535.59 128.82
  C 531.45 128.69 522.64 128.74 519.72 126.23
  A 0.23 0.23 0.0 0 1 519.89 125.83
  Z"
/>
<path fill="#d3c48c" d="
  M 646.07 126.50
  Q 646.42 126.81 647.32 126.74
  Q 639.67 129.22 637.86 136.84
  A 1.13 1.13 0.0 0 1 636.38 137.64
  L 625.07 133.55
  A 4.22 4.22 0.0 0 1 622.30 130.04
  L 621.86 126.07
  A 2.30 2.30 0.0 0 1 625.05 123.70
  L 629.74 125.69
  A 0.05 0.01 31.7 0 1 629.77 125.70
  L 635.50 127.23
  A 1.33 1.31 45.5 0 0 636.12 127.24
  Q 636.13 127.23 636.27 127.15
  A 0.89 0.88 42.1 0 1 637.16 127.11
  C 640.58 128.87 642.79 127.51 646.07 126.50
  Z"
/>
<path fill="#d3c48c" d="
  M 588.20 125.77
  Q 574.78 135.98 574.55 136.12
  C 573.02 137.08 571.72 137.82 570.09 138.07
  A 0.87 0.87 0.0 0 1 569.09 137.22
  Q 569.02 130.68 573.83 126.92
  A 3.40 3.20 -69.7 0 1 575.04 126.32
  Q 579.78 125.05 584.71 125.18
  Q 585.90 125.21 586.77 124.77
  Q 587.62 124.34 588.26 124.98
  A 0.53 0.53 0.0 0 1 588.20 125.77
  Z"
/>
<path fill="#977f46" d="
  M 505.79 141.27
  A 0.28 0.28 0.0 0 0 505.38 141.63
  L 505.43 141.73
  A 10.71 10.66 2.7 0 0 508.51 145.10
  L 517.16 151.20
  A 0.92 0.91 -62.5 0 1 517.49 152.25
  L 515.03 159.04
  A 0.57 0.56 30.6 0 1 514.12 159.27
  Q 513.44 158.68 513.17 158.76
  A 1.04 0.90 57.4 0 0 512.93 160.41
  Q 519.78 167.29 523.96 173.19
  C 529.22 180.60 531.00 186.43 529.08 195.51
  Q 527.06 205.01 524.78 214.52
  Q 523.64 219.30 522.23 223.03
  A 2.86 2.86 0.0 0 1 519.86 224.87
  Q 515.71 225.31 515.27 221.00
  Q 514.87 217.04 515.25 212.44
  Q 515.86 204.82 516.36 197.19
  C 516.73 191.47 516.21 187.15 511.80 183.20
  C 503.86 176.08 496.72 169.49 496.41 158.39
  C 496.11 147.75 500.03 132.18 509.71 126.22
  C 512.49 124.51 517.52 126.37 520.11 128.11
  A 4.46 4.44 -78.5 0 1 521.98 130.95
  L 523.37 138.25
  A 0.55 0.55 0.0 0 1 522.49 138.78
  L 513.12 131.20
  A 0.50 0.49 -51.2 0 0 512.43 131.28
  L 512.21 131.55
  A 0.37 0.37 0.0 0 0 512.27 132.07
  Q 515.31 134.45 519.00 137.74
  C 523.38 141.66 529.39 144.69 534.26 144.78
  Q 545.69 145.02 556.83 141.22
  A 2.07 2.04 -36.1 0 1 558.71 141.50
  C 562.18 144.04 560.02 146.24 557.33 148.06
  Q 549.57 153.30 539.73 154.55
  C 526.54 156.22 515.86 148.92 505.79 141.27
  Z"
/>
<path fill="#977f46" d="
  M 558.42 150.17
  A 0.40 0.40 0.0 0 1 558.23 149.49
  C 561.08 146.84 563.75 144.28 559.95 140.50
  A 0.69 0.69 0.0 0 1 560.52 139.32
  C 566.16 140.01 570.50 140.10 575.42 136.90
  Q 580.56 133.56 587.32 128.10
  C 590.00 125.95 593.91 126.12 594.79 129.94
  A 1.54 1.54 0.0 0 1 594.70 130.89
  Q 593.73 133.11 592.07 134.82
  C 586.02 141.11 579.44 147.01 571.13 149.83
  C 567.55 151.05 561.62 150.77 558.42 150.17
  Z"
/>
<path fill="#977f46" d="
  M 621.88 142.45
  A 0.90 0.90 0.0 0 1 620.77 143.32
  L 614.36 141.79
  A 1.86 1.85 -83.3 0 1 612.94 139.98
  L 612.94 132.38
  A 0.70 0.66 72.6 0 1 613.21 131.83
  L 619.73 127.08
  A 0.50 0.50 0.0 0 1 620.51 127.39
  Q 622.00 135.31 621.88 142.45
  Z"
/>
<path fill="#d3c48c" d="
  M 638.28 137.82
  Q 638.50 137.91 639.89 134.66
  Q 641.95 129.86 646.26 128.41
  Q 648.58 127.64 652.19 129.29
  A 2.76 2.57 -6.9 0 1 653.11 129.96
  C 658.30 135.80 660.84 142.92 662.35 150.48
  Q 664.59 161.68 659.59 172.16
  Q 656.21 179.23 654.59 182.87
  C 652.03 188.59 650.28 192.35 654.05 197.60
  Q 662.79 209.81 666.98 216.75
  C 668.80 219.77 668.26 224.19 663.55 223.09
  C 661.81 222.68 660.00 220.02 658.55 218.98
  C 655.05 216.45 651.87 212.38 649.29 209.98
  Q 648.93 209.64 644.09 205.06
  Q 639.24 200.47 638.54 199.20
  C 635.12 192.96 636.18 185.53 638.46 178.95
  Q 640.46 173.21 641.95 168.70
  C 643.75 163.27 643.08 159.60 641.87 153.51
  A 0.67 0.66 -18.0 0 1 642.25 152.78
  Q 647.60 150.39 653.12 146.01
  A 1.29 1.28 58.3 0 0 653.48 144.45
  C 652.36 142.08 648.02 135.55 644.64 135.69
  C 642.37 135.78 641.59 136.03 639.93 137.28
  Q 638.50 138.36 638.15 138.02
  A 0.12 0.12 0.0 0 1 638.28 137.82
  Z"
/>
<path fill="#977f46" d="
  M 525.44 139.23
  A 0.64 0.63 -5.4 0 1 524.81 138.72
  L 523.01 129.34
  A 0.24 0.24 0.0 0 1 523.27 129.06
  L 535.10 130.29
  A 0.41 0.41 0.0 0 1 535.44 130.84
  L 532.50 138.98
  A 0.40 0.38 9.4 0 1 532.13 139.23
  L 525.44 139.23
  Z"
/>
<path fill="#d3c48c" d="
  M 559.12 138.41
  Q 558.42 138.56 558.13 139.07
  A 1.55 1.52 -82.5 0 1 557.24 139.77
  C 548.16 142.41 542.41 143.89 534.47 143.24
  A 0.88 0.88 0.0 0 1 533.67 142.25
  Q 534.41 136.16 537.07 129.58
  A 0.56 0.55 -46.0 0 1 538.09 129.56
  Q 541.91 138.16 550.75 134.86
  C 551.80 134.47 552.66 133.45 553.77 133.15
  A 0.81 0.80 -26.5 0 1 554.63 133.43
  Q 556.61 135.98 559.26 137.69
  A 0.40 0.39 -34.3 0 1 559.12 138.41
  Z"
/>
<path fill="#977f46" d="
  M 567.02 137.51
  A 0.47 0.46 -26.5 0 1 566.75 138.31
  Q 560.06 139.06 556.29 132.63
  Q 555.98 132.11 556.60 131.70
  Q 556.99 131.43 557.66 131.72
  Q 563.64 134.38 567.02 137.51
  Z"
/>
<path fill="#977f46" d="
  M 611.80 140.52
  L 603.46 136.72
  A 0.30 0.30 0.0 0 1 603.47 136.17
  L 610.81 133.12
  A 0.36 0.36 0.0 0 1 611.31 133.41
  L 612.08 140.32
  A 0.20 0.20 0.0 0 1 611.80 140.52
  Z"
/>
<path fill="#d3c48c" d="
  M 623.60 144.02
  A 0.37 0.37 0.0 0 1 623.23 143.66
  L 622.85 134.74
  A 0.25 0.25 0.0 0 1 623.18 134.49
  L 635.82 139.06
  A 0.27 0.26 -54.2 0 1 635.89 139.52
  Q 630.21 144.09 623.60 144.02
  Z"
/>
<path fill="#d3c48c" d="
  M 598.44 141.42
  Q 598.26 140.83 598.54 138.30
  A 0.76 0.76 0.0 0 1 599.21 137.63
  Q 600.89 137.44 602.23 138.02
  C 610.97 141.77 616.91 144.72 623.99 145.21
  C 628.10 145.49 632.29 143.46 635.78 141.16
  C 638.60 139.29 641.33 137.77 643.72 137.00
  A 2.76 2.76 0.0 0 1 646.33 137.49
  Q 649.57 140.15 651.95 143.98
  A 0.60 0.59 -34.6 0 1 651.80 144.77
  Q 647.59 147.94 640.17 151.90
  Q 635.92 154.18 632.48 154.73
  Q 626.70 155.64 624.26 155.21
  Q 611.20 152.89 601.28 145.23
  Q 599.12 143.56 598.44 141.42
  Z"
/>
<path fill="#977f46" d="
  M 611.36 153.71
  Q 611.39 161.92 614.64 166.87
  Q 619.74 174.68 622.01 178.26
  C 627.42 186.81 625.07 195.94 621.12 204.64
  Q 614.16 220.01 611.75 223.54
  Q 610.21 225.80 606.85 224.89
  A 1.29 1.29 0.0 0 1 606.03 224.22
  Q 604.63 221.49 605.05 219.79
  Q 607.50 209.95 611.16 197.63
  Q 613.59 189.42 606.88 184.02
  A 3.28 3.25 -72.8 0 1 605.67 181.70
  C 605.33 176.71 602.29 168.48 599.60 165.16
  Q 598.04 163.24 595.61 160.52
  A 4.87 4.61 -80.3 0 1 594.85 159.38
  Q 591.74 152.85 593.05 145.41
  C 593.51 142.77 593.78 140.17 595.28 138.38
  A 0.88 0.88 0.0 0 1 596.82 139.09
  C 596.18 143.26 600.87 147.23 604.14 149.10
  Q 610.40 152.68 610.78 152.84
  A 0.94 0.94 0.0 0 1 611.36 153.71
  Z"
/>
<path fill="#977f46" d="
  M 526.32 140.51
  L 532.28 140.51
  A 0.36 0.36 0.0 0 1 532.64 140.91
  L 532.51 142.23
  A 0.75 0.75 0.0 0 1 531.63 142.88
  Q 528.57 142.29 526.20 141.01
  A 0.27 0.26 58.8 0 1 526.32 140.51
  Z"
/>
<path fill="#d3c48c" d="
  M 532.78 224.67
  Q 533.58 223.38 532.46 222.11
  L 533.07 218.33
  A 3.68 3.61 -28.5 0 1 533.37 217.35
  Q 538.93 205.38 547.05 194.07
  Q 548.62 191.89 548.19 188.34
  Q 548.11 187.70 546.66 184.59
  C 545.02 181.10 541.05 176.39 539.74 174.46
  C 538.33 172.38 536.34 168.08 535.50 166.28
  Q 533.42 161.79 533.06 156.94
  A 0.54 0.54 0.0 0 1 533.59 156.36
  C 540.66 156.29 549.11 154.00 554.98 150.85
  A 1.17 1.17 0.0 0 1 556.70 151.88
  Q 556.71 153.28 555.51 161.80
  A 0.83 0.73 -53.5 0 1 554.03 162.12
  Q 553.77 161.32 552.66 161.39
  A 0.35 0.35 0.0 0 0 552.37 161.91
  L 561.55 177.81
  A 0.91 0.81 34.7 0 1 561.67 178.31
  C 561.36 182.57 560.96 185.39 561.46 188.91
  Q 562.18 194.02 562.18 194.53
  A 2.09 2.07 -31.9 0 1 561.96 195.46
  Q 561.37 196.62 559.46 198.74
  Q 556.90 201.57 552.81 206.95
  C 549.54 211.25 545.44 214.79 542.73 218.47
  Q 540.05 222.10 536.99 223.54
  A 1.10 1.09 39.4 0 1 536.22 223.61
  Q 534.90 223.23 532.78 224.67
  Z"
/>
<path fill="#977f46" d="
  M 563.42 169.52
  L 557.90 161.48
  A 1.54 1.48 -66.1 0 1 557.65 160.79
  Q 557.34 157.57 558.53 153.25
  A 1.43 1.43 0.0 0 1 559.91 152.20
  L 567.98 152.20
  A 0.69 0.69 0.0 0 1 568.67 152.97
  L 567.64 161.59
  A 3.47 3.34 62.4 0 1 567.35 162.58
  L 563.97 169.48
  A 0.32 0.32 0.0 0 1 563.42 169.52
  Z"
/>
<path fill="#d3c48c" d="
  M 531.36 185.73
  Q 530.16 178.68 525.82 173.17
  Q 521.48 167.66 516.69 161.49
  A 1.86 1.85 35.8 0 1 516.40 159.71
  L 518.81 153.04
  A 0.97 0.97 0.0 0 1 520.05 152.46
  L 531.25 156.51
  A 0.32 0.31 7.8 0 1 531.45 156.77
  Q 532.25 163.63 534.36 169.45
  A 3.28 3.18 -50.2 0 1 534.49 171.16
  L 531.68 185.74
  A 0.16 0.16 0.0 0 1 531.36 185.73
  Z"
/>
<path fill="#977f46" d="
  M 616.46 166.73
  Q 612.48 161.45 612.86 154.07
  A 0.28 0.27 -78.5 0 1 613.23 153.82
  L 620.03 156.28
  A 0.38 0.37 13.4 0 1 620.28 156.68
  Q 619.66 161.87 617.47 166.62
  A 0.60 0.59 -51.0 0 1 616.46 166.73
  Z"
/>
<path fill="#d3c48c" d="
  M 626.34 185.39
  C 625.17 180.29 622.50 176.52 620.11 171.89
  A 2.45 2.45 0.0 0 0 619.67 171.26
  Q 618.61 170.10 618.42 168.78
  A 1.56 1.45 51.7 0 1 618.47 168.16
  L 621.83 157.17
  A 0.59 0.58 -78.3 0 1 622.46 156.75
  Q 631.54 157.90 639.35 154.54
  A 0.65 0.64 -17.1 0 1 640.24 155.01
  L 640.86 158.23
  A 1.67 1.67 0.0 0 1 640.50 159.60
  Q 633.39 168.12 628.71 178.45
  Q 627.34 181.49 627.05 185.34
  A 0.36 0.36 0.0 0 1 626.34 185.39
  Z"
/>
<path fill="#d3c48c" d="
  M 640.53 161.63
  A 0.60 0.60 0.0 0 1 641.61 162.05
  L 641.16 166.38
  A 3.16 3.14 -32.3 0 1 640.99 167.12
  C 637.13 177.87 634.17 184.75 635.02 194.01
  Q 635.46 198.76 639.97 203.17
  A 0.88 0.87 -65.5 0 1 640.23 203.88
  L 638.34 221.99
  A 2.99 2.99 0.0 0 1 636.24 224.55
  C 632.67 225.66 631.45 223.08 630.84 219.84
  Q 628.53 207.46 628.47 202.99
  Q 628.41 198.76 627.91 191.01
  Q 627.39 182.89 631.66 175.41
  Q 636.27 167.36 640.53 161.63
  Z"
/>
<path fill="#d3c48c" d="
  M 592.37 224.28
  Q 588.34 225.75 585.86 222.86
  A 1.37 1.35 29.9 0 1 585.55 221.74
  C 586.61 215.39 588.49 206.87 590.95 199.92
  Q 592.76 194.80 592.33 188.78
  Q 592.15 186.31 589.95 183.06
  Q 587.25 179.07 584.49 175.00
  A 3.80 3.74 -63.3 0 1 583.84 172.98
  Q 583.66 167.35 585.82 163.72
  A 2.38 2.34 -89.1 0 1 586.64 162.91
  Q 590.90 160.39 595.15 163.68
  C 597.77 165.70 599.89 167.94 601.20 171.08
  C 603.34 176.20 604.63 181.96 604.22 187.60
  Q 603.99 190.89 603.76 192.85
  Q 603.50 195.09 601.10 202.02
  C 598.66 209.05 596.56 215.98 593.23 223.48
  A 1.52 1.51 1.9 0 1 592.37 224.28
  Z"
/>
<path fill="#977f46" d="
  M 557.00 162.89
  A 0.47 0.47 0.0 0 1 557.87 162.73
  L 562.73 171.13
  A 1.24 1.19 36.4 0 1 562.87 171.95
  L 562.41 174.33
  A 0.46 0.46 0.0 0 1 561.58 174.50
  C 559.12 170.88 556.35 166.90 557.00 162.89
  Z"
/>
<path fill="#d3c48c" d="
  M 573.73 223.30
  Q 572.55 221.86 571.72 219.54
  Q 569.58 213.61 567.54 209.07
  Q 567.02 207.92 564.37 198.10
  Q 562.94 192.80 562.92 188.26
  Q 562.90 179.08 562.98 178.30
  Q 563.69 171.67 567.79 165.82
  A 2.14 2.12 6.5 0 1 568.69 165.11
  C 575.12 162.46 577.96 168.64 578.50 174.02
  A 2.13 2.11 52.5 0 1 578.38 174.97
  C 576.47 180.27 574.25 186.16 574.70 190.51
  C 575.57 198.96 578.21 208.00 579.88 215.44
  C 580.40 217.75 580.35 218.91 580.38 221.53
  A 1.71 1.67 -28.7 0 1 580.08 222.52
  Q 578.04 225.41 574.52 223.89
  A 2.10 2.04 -7.5 0 1 573.73 223.30
  Z"
/>
<path fill="#977f46" d="
  M 532.46 222.11
  Q 533.58 223.38 532.78 224.67
  Q 530.00 224.71 528.94 221.89
  A 2.37 2.18 -57.6 0 1 528.79 221.07
  Q 528.74 215.61 528.92 214.12
  C 530.61 199.66 532.14 185.73 536.07 172.75
  A 0.30 0.30 0.0 0 1 536.60 172.67
  Q 539.15 176.55 543.85 182.41
  Q 545.05 183.91 545.50 185.42
  A 1.81 1.80 -46.9 0 1 545.53 186.39
  Q 543.12 196.96 539.97 202.46
  Q 537.09 207.47 532.59 215.85
  Q 530.76 219.27 532.46 222.11
  Z"
/>
<path fill="#977f46" d="
  M 584.34 220.72
  A 1.25 1.25 0.0 0 1 581.90 220.67
  L 577.30 196.65
  A 4.92 4.88 51.7 0 1 577.63 193.74
  Q 581.33 185.34 581.78 176.13
  A 0.96 0.96 0.0 0 1 583.57 175.69
  L 585.99 179.87
  A 1.63 1.56 33.7 0 1 586.19 180.78
  Q 585.32 191.01 589.01 199.67
  A 1.81 1.80 40.0 0 1 589.11 200.78
  L 584.34 220.72
  Z"
/>
<ellipse fill="#977f46" cx="0.00" cy="0.00" transform="translate(578.28,184.29) rotate(-77.4)" rx="9.07" ry="1.38"/>
<path fill="#977f46" d="
  M 502.78 176.81
  Q 504.76 178.56 511.52 185.42
  Q 515.08 189.04 514.83 193.65
  A 3.60 3.54 63.4 0 1 514.26 195.41
  Q 507.69 205.68 500.84 219.08
  Q 499.43 221.83 497.67 223.46
  A 1.76 1.73 17.1 0 1 496.82 223.90
  C 492.68 224.75 491.47 222.05 492.11 218.51
  C 493.66 209.95 497.15 202.17 501.07 193.79
  C 504.26 186.97 504.76 183.12 502.38 177.10
  A 0.26 0.25 -80.5 0 1 502.78 176.81
  Z"
/>
<path fill="#d3c48c" d="
  M 589.74 197.52
  C 588.91 196.65 588.78 195.05 588.44 194.04
  Q 586.74 189.01 587.11 183.91
  A 0.87 0.86 30.1 0 1 588.69 183.49
  Q 590.90 186.77 590.84 190.78
  Q 590.78 194.79 590.27 197.36
  A 0.31 0.31 0.0 0 1 589.74 197.52
  Z"
/>
<path fill="#325c7f" d="
  M 604.18 215.57
  L 602.70 202.32
  A 4.41 4.40 52.2 0 1 602.95 200.32
  Q 605.50 193.47 605.73 185.94
  A 0.59 0.59 0.0 0 1 606.70 185.50
  C 610.90 189.01 611.00 193.08 609.55 198.48
  Q 607.25 207.02 604.68 215.61
  A 0.26 0.25 -40.2 0 1 604.18 215.57
  Z"
/>
<ellipse fill="#977f46" cx="0.00" cy="0.00" transform="translate(546.17,190.88) rotate(-74.2)" rx="2.48" ry="0.58"/>
<path fill="#977f46" d="
  M 562.54 196.85
  A 0.33 0.32 58.3 0 1 563.11 196.99
  L 565.39 207.47
  A 4.32 4.28 42.6 0 1 565.46 208.98
  Q 565.39 209.48 564.81 221.32
  C 564.67 224.30 562.01 225.30 559.25 224.39
  A 1.80 1.76 -10.3 0 1 558.42 223.83
  Q 557.25 222.44 556.60 219.13
  Q 555.80 215.07 554.42 207.57
  A 1.24 1.24 0.0 0 1 554.68 206.57
  L 562.54 196.85
  Z"
/>
<path fill="#977f46" d="
  M 601.60 205.68
  Q 601.75 205.70 601.91 205.98
  A 0.47 0.27 -75.5 0 1 601.95 206.12
  Q 602.69 215.25 603.15 218.76
  Q 603.44 220.95 602.41 223.06
  A 3.26 3.25 27.2 0 1 597.94 224.49
  L 597.80 224.42
  A 3.38 3.38 0.0 0 1 596.24 220.30
  L 601.50 205.73
  A 0.09 0.08 -70.3 0 1 601.60 205.68
  Z"
/>
</svg>
