<?xml version="1.0" encoding="UTF-8" standalone="no"?>
<!DOCTYPE svg PUBLIC "-//W3C//DTD SVG 1.1//EN" "http://www.w3.org/Graphics/SVG/1.1/DTD/svg11.dtd">
<svg xmlns="http://www.w3.org/2000/svg" version="1.1" viewBox="0.00 0.00 1344.00 576.00">
<g stroke-width="2.00" fill="none" stroke-linecap="butt">
<path stroke="#757d70" vector-effect="non-scaling-stroke" d="
  M 668.65 296.02
  Q 672.65 300.97 677.00 300.59"
/>
<path stroke="#87a1af" vector-effect="non-scaling-stroke" d="
  M 677.00 300.59
  Q 679.47 303.79 680.79 304.27
  Q 688.50 307.07 692.42 300.19
  A 0.59 0.59 0.0 0 1 693.40 300.12
  C 695.08 302.33 697.04 304.34 699.98 304.79
  Q 706.07 305.73 708.69 299.75
  A 0.43 0.43 0.0 0 1 709.50 299.80
  C 711.27 306.18 719.36 307.16 723.26 302.25
  Q 726.44 298.26 728.33 294.80
  Q 737.95 277.21 744.69 258.49
  Q 746.58 253.22 747.95 246.90"
/>
<path stroke="#757d70" vector-effect="non-scaling-stroke" d="
  M 747.95 246.90
  Q 749.06 248.77 748.63 252.23"
/>
<path stroke="#87a1af" vector-effect="non-scaling-stroke" d="
  M 748.63 252.23
  Q 750.40 269.75 752.67 287.25
  Q 753.50 293.57 755.22 298.98
  C 757.55 306.28 766.56 306.94 770.26 300.55
  Q 772.01 297.51 772.20 295.72
  Q 773.95 278.50 774.52 268.36
  A 0.34 0.33 19.2 0 1 775.05 268.11
  C 776.29 268.97 777.10 270.27 778.40 271.56
  Q 787.33 280.45 795.17 287.87
  C 799.97 292.41 804.61 297.79 809.06 301.32
  C 812.61 304.13 818.41 304.16 821.37 300.37
  C 824.60 296.25 823.63 291.21 820.93 287.09
  Q 810.45 271.08 799.69 256.58
  C 795.42 250.81 793.45 246.56 795.54 240.03
  Q 796.58 236.79 797.41 235.19
  C 805.64 219.27 814.88 204.35 813.90 186.90
  Q 812.82 167.72 804.36 150.16
  C 800.20 141.51 792.15 135.37 782.10 137.34"
/>
<path stroke="#757d70" vector-effect="non-scaling-stroke" d="
  M 782.10 137.34
  Q 781.45 137.09 781.21 136.83"
/>
<path stroke="#87a1af" vector-effect="non-scaling-stroke" d="
  M 781.21 136.83
  C 789.33 131.56 793.78 121.01 787.93 112.35
  C 781.27 102.48 766.61 101.77 759.91 111.78
  C 754.82 119.40 755.69 128.62 762.64 134.71
  A 0.21 0.20 72.3 0 1 762.46 135.07
  Q 753.08 132.65 744.80 129.07
  A 0.57 0.57 0.0 0 1 744.59 128.19
  C 749.01 122.72 753.13 116.96 754.49 110.32
  A 5.30 5.29 47.0 0 0 754.55 108.61
  L 754.13 105.47
  A 2.37 2.31 49.8 0 1 754.20 104.49
  C 759.16 87.51 754.98 70.48 747.05 54.72
  Q 745.12 50.90 742.52 47.71
  C 739.90 44.48 734.16 44.21 731.84 47.83
  Q 729.72 51.13 730.72 54.38
  C 734.02 65.12 736.79 73.03 737.34 83.03
  C 737.97 94.21 732.50 106.40 723.55 112.99
  A 0.58 0.57 38.7 0 1 722.97 113.05
  L 717.77 110.82
  A 0.19 0.19 0.0 0 1 717.72 110.50
  C 724.81 104.49 724.90 94.15 718.82 87.37
  C 708.55 75.93 691.55 82.19 689.63 96.98
  A 0.40 0.39 22.5 0 1 689.00 97.24
  Q 685.85 94.80 682.11 93.60
  Q 670.83 89.99 659.44 92.08
  Q 653.12 93.24 647.71 97.35
  A 0.39 0.39 0.0 0 1 647.09 97.06
  C 646.51 87.60 637.81 79.71 628.21 81.49
  Q 617.42 83.48 614.17 95.12
  A 0.22 0.22 0.0 0 1 613.76 95.14
  Q 612.96 93.09 610.58 86.85
  C 609.19 83.20 606.21 79.32 602.09 79.71
  C 597.97 80.10 595.85 83.79 595.80 87.79
  C 595.66 98.16 598.74 107.31 603.49 116.52
  A 0.38 0.37 4.9 0 1 602.93 116.99
  C 597.84 113.10 592.65 108.84 590.11 102.83
  C 587.41 96.43 588.66 87.14 590.53 80.52
  C 592.22 74.54 594.59 68.50 593.53 65.20
  C 591.05 57.50 582.40 59.59 578.98 65.01
  Q 568.34 81.82 569.46 101.42
  A 0.38 0.38 0.0 0 1 569.01 101.81
  Q 556.44 99.56 550.21 108.91
  C 545.62 115.81 546.67 125.18 552.98 130.69
  C 561.11 137.79 571.27 137.30 578.49 129.26
  C 578.94 128.76 579.31 127.70 579.76 127.15
  A 0.30 0.30 0.0 0 1 580.20 127.13
  L 590.70 137.62
  A 1.48 1.44 -81.1 0 1 590.92 137.93
  Q 592.36 140.76 588.75 140.60
  Q 576.76 140.09 562.53 137.17
  A 1.53 1.37 63.4 0 1 562.00 136.96
  L 557.28 134.02
  A 2.83 2.79 -20.9 0 0 556.53 133.69
  Q 545.23 130.39 536.82 137.81
  Q 528.31 145.32 524.00 155.94
  Q 516.59 174.20 517.91 194.62
  Q 518.40 202.17 521.91 208.44
  Q 529.33 221.65 530.34 234.78
  C 530.81 240.95 527.91 245.06 524.62 252.36
  Q 517.04 269.16 511.93 286.43
  C 510.36 291.73 509.16 297.29 513.31 301.48
  C 517.56 305.80 523.87 303.68 526.71 298.69
  Q 540.02 275.29 552.43 254.54
  A 0.29 0.28 60.6 0 1 552.96 254.69
  Q 552.86 262.11 552.29 268.07
  C 551.39 277.52 551.12 287.84 551.34 295.25
  C 551.49 300.49 553.63 304.90 559.56 304.92
  C 565.57 304.94 566.92 300.88 569.00 295.50
  Q 573.32 284.38 575.57 271.82
  A 0.46 0.45 9.3 0 1 576.08 271.46
  L 576.10 271.46
  A 0.49 0.48 7.9 0 1 576.51 272.00
  C 575.14 283.22 573.93 288.19 574.95 296.74
  Q 575.83 304.19 582.64 304.16
  C 584.28 304.15 586.45 303.32 587.48 301.97
  A 1.74 1.73 -70.2 0 1 588.94 301.28
  C 594.18 301.51 596.55 298.97 599.58 295.59
  Q 609.88 284.08 619.57 274.08
  A 0.47 0.46 66.0 0 1 620.37 274.39
  Q 620.39 275.11 624.28 294.99
  C 625.42 300.82 627.37 305.13 634.22 304.64
  C 640.98 304.16 642.09 297.97 642.28 292.25
  Q 642.45 287.43 642.70 280.00
  Q 642.74 278.78 643.24 277.95
  A 0.29 0.28 -40.2 0 1 643.75 277.99
  C 646.15 283.97 648.98 293.93 653.60 301.38
  Q 656.32 305.76 661.58 304.60
  Q 667.17 303.38 668.65 296.02"
/>
<path stroke="#c8be98" vector-effect="non-scaling-stroke" d="
  M 781.21 136.83
  C 774.86 140.61 768.91 138.06 762.15 137.05
  Q 756.94 136.27 754.84 135.61
  Q 748.68 133.67 743.44 131.22
  A 1.20 1.19 -54.9 0 0 742.07 131.46
  L 738.94 134.59
  A 0.42 0.40 -27.8 0 0 738.82 134.94
  L 740.35 146.41
  A 1.57 1.57 0.0 0 0 741.29 147.64
  Q 750.44 151.64 760.01 154.74
  Q 763.40 155.84 766.57 156.34
  A 0.76 0.76 0.0 0 0 767.45 155.66
  Q 768.86 142.05 782.10 137.34"
/>
<path stroke="#c8be98" vector-effect="non-scaling-stroke" d="
  M 748.63 252.23
  Q 748.59 243.97 748.82 235.76
  Q 748.92 232.31 749.92 229.20
  C 753.77 217.18 760.12 208.92 767.80 197.79
  Q 768.75 196.42 773.14 191.33
  A 1.57 1.57 0.0 0 0 773.50 190.11
  L 772.57 183.15
  A 0.97 0.97 0.0 0 0 771.16 182.41
  Q 755.95 190.22 740.04 186.88
  A 0.71 0.71 0.0 0 0 739.19 187.49
  Q 738.01 197.83 733.57 206.17
  A 2.71 2.69 42.3 0 0 733.71 208.94
  C 740.56 219.19 746.73 228.11 748.31 240.62
  A 3.37 2.76 48.8 0 1 748.33 241.23
  L 747.95 246.90"
/>
<path stroke="#c8be98" vector-effect="non-scaling-stroke" d="
  M 677.00 300.59
  Q 676.09 296.59 676.10 295.52
  Q 676.15 290.71 678.35 280.18
  Q 679.96 272.43 681.76 265.44
  A 5.55 5.49 -44.7 0 0 681.79 262.80
  Q 678.93 250.62 678.17 247.32
  Q 676.79 241.25 677.63 230.73
  A 4.56 4.50 38.3 0 0 677.41 228.95
  Q 676.02 224.72 672.57 219.13
  A 1.18 1.15 -32.8 0 0 670.92 218.79
  Q 670.55 219.05 670.44 219.75
  Q 668.88 230.66 666.52 241.77
  C 665.77 245.34 664.26 249.43 662.89 252.70
  C 661.89 255.10 661.81 257.06 662.34 259.43
  Q 665.31 272.65 667.93 285.61
  Q 668.92 290.48 668.65 296.02"
/>
<path stroke="#87a1af" vector-effect="non-scaling-stroke" d="
  M 679.98 74.08
  A 16.78 16.78 0.0 0 0 663.20 57.30
  A 16.78 16.78 0.0 0 0 646.42 74.08
  A 16.78 16.78 0.0 0 0 663.20 90.86
  A 16.78 16.78 0.0 0 0 679.98 74.08"
/>
<path stroke="#d7d1b1" vector-effect="non-scaling-stroke" d="
  M 751.71 103.45
  A 0.83 0.83 0.0 0 0 752.97 102.90
  C 753.57 99.75 754.50 95.74 754.46 92.38
  Q 754.31 81.54 753.98 79.50
  Q 752.73 71.86 749.94 65.76
  Q 744.97 54.90 743.92 53.09
  C 741.72 49.31 738.37 45.25 734.17 47.88
  C 730.82 49.98 733.52 57.26 734.72 60.51
  Q 736.87 66.32 738.40 78.47
  C 739.57 87.66 738.90 96.40 733.94 103.76
  Q 729.50 110.36 725.33 114.12
  Q 724.22 115.13 717.82 120.42
  A 0.63 0.63 0.0 0 0 717.89 121.44
  Q 719.27 122.29 721.19 122.60
  A 1.68 1.67 -54.5 0 0 722.25 122.42
  C 728.69 119.01 734.33 113.49 739.31 107.82
  C 742.23 104.50 747.29 100.67 751.71 103.45"
/>
<path stroke="#d7d1b1" vector-effect="non-scaling-stroke" d="
  M 599.97 117.96
  C 591.66 111.06 585.42 102.76 586.63 91.48
  Q 587.77 80.86 591.31 70.85
  C 592.67 67.00 592.18 62.98 587.59 62.27
  C 582.36 61.47 579.39 67.39 577.48 71.48
  C 572.80 81.52 569.93 90.37 571.57 101.70
  A 1.47 1.47 0.0 0 0 572.13 102.67
  C 573.75 103.96 575.89 105.21 577.39 106.99
  Q 583.57 114.29 581.17 124.38
  A 1.87 1.86 -61.0 0 0 581.67 126.15
  L 590.22 134.71
  A 0.68 0.67 -66.7 0 0 591.37 134.25
  Q 591.67 124.20 599.92 118.89
  A 0.58 0.58 0.0 0 0 599.97 117.96"
/>
<path stroke="#c8be98" vector-effect="non-scaling-stroke" d="
  M 624.95 140.77
  C 633.48 145.94 637.20 148.84 644.44 151.90
  A 0.42 0.42 0.0 0 0 645.02 151.51
  Q 644.95 140.69 652.74 133.99
  A 0.48 0.48 0.0 0 0 652.62 133.18
  C 644.73 129.80 637.73 126.61 631.48 121.65
  Q 624.75 116.31 619.11 110.17
  Q 616.39 107.22 615.00 103.52
  Q 611.59 94.45 608.51 87.01
  C 607.52 84.61 606.12 82.61 603.46 82.01
  C 596.92 80.56 597.91 90.10 598.23 93.52
  C 599.04 102.32 601.95 108.78 605.83 116.18
  A 1.37 1.36 75.2 0 0 607.09 116.92
  C 612.75 116.74 617.84 119.07 621.40 123.46
  Q 626.69 129.98 624.52 139.79
  A 0.92 0.91 21.7 0 0 624.95 140.77"
/>
<path stroke="#d7d1b1" vector-effect="non-scaling-stroke" d="
  M 699.1744 85.0902
  A 15.01 14.59 -119.3 0 0 693.7965 105.3201
  A 15.01 14.59 -119.3 0 0 713.8656 111.2698
  A 15.01 14.59 -119.3 0 0 719.2435 91.0399
  A 15.01 14.59 -119.3 0 0 699.1744 85.0902"
/>
<path stroke="#d7d1b1" vector-effect="non-scaling-stroke" d="
  M 623.5708 85.0180
  A 15.00 14.32 -118.9 0 0 618.2833 105.0706
  A 15.00 14.32 -118.9 0 0 638.0692 111.2820
  A 15.00 14.32 -118.9 0 0 643.3567 91.2294
  A 15.00 14.32 -118.9 0 0 623.5708 85.0180"
/>
<path stroke="#c8be98" vector-effect="non-scaling-stroke" d="
  M 692.14 119.79
  C 692.20 115.45 691.74 102.15 687.99 99.04
  C 682.31 94.33 671.83 93.16 664.75 93.41
  C 659.32 93.61 651.56 95.87 647.84 100.13
  A 3.07 3.00 74.3 0 0 647.20 101.30
  Q 645.59 106.84 642.41 110.72
  C 639.65 114.09 639.98 118.94 639.77 123.61
  A 1.74 1.74 0.0 0 0 640.73 125.26
  L 654.23 131.98
  A 1.93 1.88 -42.7 0 0 655.83 132.02
  C 663.49 128.73 670.59 130.01 679.48 130.60
  A 1.53 1.51 18.1 0 0 680.84 129.92
  Q 685.82 122.30 691.34 120.82
  A 1.08 1.08 0.0 0 0 692.14 119.79"
/>
<path stroke="#c8be98" vector-effect="non-scaling-stroke" d="
  M 549.6208 114.3094
  A 15.54 15.24 -164.7 0 0 560.5886 133.1099
  A 15.54 15.24 -164.7 0 0 579.5992 122.5106
  A 15.54 15.24 -164.7 0 0 568.6314 103.7101
  A 15.54 15.24 -164.7 0 0 549.6208 114.3094"
/>
<path stroke="#c8be98" vector-effect="non-scaling-stroke" d="
  M 645.27 197.98
  C 649.79 195.54 654.81 195.93 658.84 199.09
  C 664.37 203.41 665.64 209.34 665.56 216.26
  A 0.66 0.65 89.2 0 0 666.24 216.93
  L 670.56 216.78
  A 1.01 1.01 0.0 0 0 671.48 215.47
  C 669.46 209.08 670.58 202.11 675.38 197.39
  Q 681.75 191.13 691.86 194.11
  A 0.31 0.31 0.0 0 0 692.22 193.67
  C 690.55 190.42 687.77 185.02 687.79 181.25
  Q 687.85 168.87 689.50 155.51
  A 1.29 1.28 89.7 0 1 690.60 154.39
  C 707.38 152.15 722.99 146.48 735.55 134.50
  Q 743.34 127.07 749.23 118.57
  Q 752.28 114.17 752.68 109.99
  C 753.50 101.56 745.45 104.21 742.00 107.78
  Q 735.01 115.01 729.07 120.28
  C 718.82 129.36 703.02 133.89 689.47 133.10
  C 683.09 132.72 676.37 132.71 670.51 132.03
  C 661.33 130.96 650.48 134.47 648.42 144.71
  Q 647.45 149.54 647.64 154.88
  A 0.72 0.72 0.0 0 0 648.57 155.55
  C 659.33 152.27 666.87 145.98 678.42 137.91
  Q 681.37 135.84 684.00 135.25
  C 688.14 134.33 693.08 136.56 693.79 141.10
  C 694.38 144.89 691.70 148.57 688.88 151.49
  Q 684.63 155.87 674.64 164.14
  Q 663.26 173.57 648.52 177.58
  A 0.85 0.84 -9.1 0 0 647.90 178.43
  Q 648.35 188.05 644.62 197.41
  A 0.46 0.46 0.0 0 0 645.27 197.98"
/>
<path stroke="#c8be98" vector-effect="non-scaling-stroke" d="
  M 766.8453 107.6841
  A 15.24 14.87 -116.1 0 0 760.1963 127.9119
  A 15.24 14.87 -116.1 0 0 780.2547 135.0559
  A 15.24 14.87 -116.1 0 0 786.9037 114.8281
  A 15.24 14.87 -116.1 0 0 766.8453 107.6841"
/>
<path stroke="#87a1af" vector-effect="non-scaling-stroke" d="
  M 694.14 111.22
  L 694.43 119.03
  A 0.54 0.54 0.0 0 0 695.09 119.54
  Q 700.24 118.45 706.18 119.20
  A 0.56 0.56 0.0 0 0 706.80 118.75
  L 707.27 116.43
  A 0.48 0.48 0.0 0 0 706.83 115.86
  Q 700.40 115.37 694.55 111.00
  A 0.26 0.26 0.0 0 0 694.14 111.22"
/>
<path stroke="#d7d1b1" vector-effect="non-scaling-stroke" d="
  M 721.71 115.14
  A 0.56 0.56 0.0 0 0 721.60 114.21
  Q 714.96 110.98 710.00 116.13
  A 2.14 2.14 0.0 0 0 710.81 119.63
  Q 711.67 119.93 715.40 120.08
  A 1.19 1.18 -64.1 0 0 716.18 119.81
  L 721.71 115.14"
/>
<path stroke="#87a1af" vector-effect="non-scaling-stroke" d="
  M 637.63 122.83
  L 638.10 114.25
  A 0.25 0.25 0.0 0 0 637.76 114.00
  Q 632.76 115.83 627.61 115.20
  A 0.30 0.29 66.8 0 0 627.40 115.73
  L 637.11 123.07
  A 0.33 0.32 20.0 0 0 637.63 122.83"
/>
<path stroke="#c8be98" vector-effect="non-scaling-stroke" d="
  M 606.9703 119.0628
  A 15.20 14.90 -94.3 0 0 593.2519 135.3372
  A 15.20 14.90 -94.3 0 0 609.2497 149.3772
  A 15.20 14.90 -94.3 0 0 622.9681 133.1028
  A 15.20 14.90 -94.3 0 0 606.9703 119.0628"
/>
<path stroke="#d7d1b1" vector-effect="non-scaling-stroke" d="
  M 718.69 123.88
  Q 715.31 123.83 712.46 122.57
  A 6.15 6.01 -30.5 0 0 710.38 122.06
  C 701.21 121.50 689.42 119.78 684.38 129.45
  A 0.67 0.66 17.4 0 0 684.89 130.42
  Q 702.93 132.53 718.85 124.56
  A 0.36 0.36 0.0 0 0 718.69 123.88"
/>
<path stroke="#d7d1b1" vector-effect="non-scaling-stroke" d="
  M 566.18 156.46
  C 566.24 151.88 566.43 148.09 564.77 144.37
  Q 560.04 133.73 547.69 134.97
  Q 543.36 135.40 540.98 137.00
  Q 530.50 144.00 525.75 156.19
  C 520.91 168.60 518.48 181.97 519.66 194.20
  Q 521.03 208.28 532.11 219.10
  Q 532.30 219.29 546.48 232.77
  C 550.21 236.33 553.97 241.02 554.42 246.07
  Q 554.74 249.66 554.39 258.24
  Q 552.96 293.45 552.98 293.75
  C 553.25 297.88 553.39 301.68 557.53 302.86
  Q 563.51 304.56 565.64 299.50
  C 567.80 294.42 568.73 289.41 570.78 282.65
  Q 572.99 275.40 574.10 270.17
  Q 577.69 253.29 578.69 242.00
  C 579.72 230.25 572.94 219.28 565.37 210.87
  Q 556.50 201.01 546.83 192.66
  A 0.34 0.34 0.0 0 1 546.85 192.13
  L 547.06 191.97
  A 0.76 0.75 -44.2 0 1 547.95 191.98
  L 552.89 195.71
  A 0.69 0.69 0.0 0 0 553.99 195.23
  Q 554.74 187.45 557.88 179.07
  A 0.75 0.75 0.0 0 0 557.54 178.16
  Q 544.67 171.10 534.52 161.04
  A 0.13 0.13 0.0 0 1 534.51 160.86
  L 534.67 160.65
  A 0.45 0.44 39.2 0 1 535.33 160.59
  Q 540.24 165.04 542.66 166.81
  Q 552.90 174.26 566.98 180.23
  Q 576.64 184.32 586.74 183.66
  Q 600.77 182.74 613.32 178.13
  Q 613.93 177.90 627.14 171.83
  C 630.35 170.36 632.66 168.14 632.08 164.70
  C 630.84 157.46 617.02 163.19 611.29 165.00
  Q 606.68 166.45 595.25 167.35
  C 585.22 168.14 574.78 166.36 566.66 160.09
  Q 559.06 154.22 553.72 149.77
  Q 549.67 146.39 548.83 145.98
  A 0.40 0.39 -43.8 0 1 548.85 145.26
  L 548.95 145.22
  A 1.55 1.54 -40.2 0 1 550.42 145.34
  C 555.15 148.45 560.11 153.75 565.59 156.80
  A 0.40 0.40 0.0 0 0 566.18 156.46"
/>
<path stroke="#c8be98" vector-effect="non-scaling-stroke" d="
  M 739.38 164.44
  Q 739.35 150.71 736.74 137.63
  A 0.34 0.34 0.0 0 0 736.21 137.42
  L 724.91 145.61
  A 0.83 0.81 74.7 0 0 724.58 146.21
  L 723.83 160.22
  A 0.95 0.94 -80.9 0 0 724.52 161.18
  L 738.62 165.02
  A 0.61 0.60 7.4 0 0 739.38 164.44"
/>
<path stroke="#d7d1b1" vector-effect="non-scaling-stroke" d="
  M 633.79 156.75
  Q 634.06 158.55 633.28 160.05
  A 1.35 1.33 46.4 0 0 633.26 161.25
  Q 636.51 168.12 629.87 173.16
  A 1.24 1.23 -56.2 0 0 630.30 175.34
  Q 644.59 179.07 657.79 172.19
  Q 666.77 167.50 670.38 165.10
  Q 673.42 163.08 679.26 157.85
  C 682.73 154.75 686.47 151.74 688.88 147.91
  C 690.63 145.13 692.77 141.06 689.88 138.82
  Q 686.25 136.01 682.28 138.54
  Q 659.89 152.80 657.35 154.35
  Q 646.27 161.12 634.36 156.31
  A 0.42 0.41 7.1 0 0 633.79 156.75"
/>
<path stroke="#d7d1b1" vector-effect="non-scaling-stroke" d="
  M 779.36 151.74
  L 778.72 152.74"
/>
<path stroke="#c8be98" vector-effect="non-scaling-stroke" d="
  M 778.72 152.74
  C 775.05 154.67 771.28 157.47 768.16 159.11
  C 762.60 162.04 756.68 166.35 751.27 167.47
  C 743.77 169.03 736.62 167.40 730.06 165.19
  Q 717.49 160.96 706.98 156.10
  Q 703.48 154.48 702.27 154.67
  C 699.48 155.10 697.14 158.32 698.31 161.21
  C 700.36 166.26 707.14 171.24 711.34 173.67
  Q 717.00 176.93 726.10 180.88
  Q 749.21 190.89 771.54 180.08
  Q 778.06 176.92 780.67 175.16
  Q 786.04 171.55 793.75 166.86
  A 0.28 0.28 0.0 0 1 794.17 167.12
  L 794.11 168.20
  A 0.92 0.90 -17.8 0 1 793.75 168.88
  C 787.56 173.74 783.32 176.00 774.79 180.83
  A 1.35 1.34 69.0 0 0 774.14 182.30
  C 775.59 188.98 777.94 198.75 775.54 205.02
  C 770.54 218.09 766.02 230.31 765.36 243.99
  C 764.96 252.54 768.50 257.94 774.40 263.92
  C 782.00 271.62 788.95 278.21 797.19 286.96
  Q 803.69 293.86 809.75 299.00
  C 812.42 301.26 817.19 302.40 819.60 299.41
  C 821.99 296.46 821.25 292.02 819.59 289.14
  C 814.89 281.02 807.97 271.07 801.68 262.69
  Q 797.00 256.45 795.25 252.99
  C 790.79 244.20 794.45 237.50 798.20 228.95
  Q 798.75 227.70 807.31 210.05
  Q 812.69 198.98 811.75 186.32
  Q 810.65 171.41 804.86 155.99
  C 801.72 147.63 793.93 137.57 783.93 139.21
  Q 774.89 140.69 771.49 149.51
  Q 770.48 152.15 770.17 154.31
  A 0.50 0.49 88.8 0 0 770.75 154.87
  Q 771.04 154.82 771.50 154.48
  C 773.93 152.71 776.65 150.27 779.36 151.74"
/>
<path stroke="#c5ad72" vector-effect="non-scaling-stroke" d="
  M 778.72 152.74
  Q 778.92 152.72 779.09 152.70
  A 1.08 1.05 -30.6 0 1 779.75 152.86
  Q 787.85 158.01 792.92 166.10
  A 0.20 0.20 0.0 0 0 793.22 166.15
  L 793.49 165.92
  A 0.33 0.32 57.4 0 0 793.57 165.53
  Q 788.86 156.02 779.36 151.74"
/>
<path stroke="#d7d1b1" vector-effect="non-scaling-stroke" d="
  M 584.35 157.25
  C 585.32 152.46 586.61 147.10 588.59 143.33
  A 0.44 0.44 0.0 0 0 588.19 142.68
  Q 586.34 142.75 585.01 142.59
  Q 576.66 141.62 565.19 139.60
  A 0.42 0.42 0.0 0 0 564.76 140.22
  Q 569.11 147.98 567.85 157.18
  A 1.13 1.13 0.0 0 0 569.01 158.46
  L 583.56 157.92
  A 0.83 0.83 0.0 0 0 584.35 157.25"
/>
<path stroke="#c8be98" vector-effect="non-scaling-stroke" d="
  M 632.94 159.33
  L 632.48 155.86
  A 1.87 1.86 11.3 0 0 631.56 154.49
  L 619.99 147.81
  A 0.92 0.92 0.0 0 0 619.03 147.84
  Q 607.71 155.20 597.58 147.51
  C 595.94 146.27 594.16 143.65 593.00 141.95
  A 0.56 0.56 0.0 0 0 592.15 141.87
  Q 590.43 143.53 589.43 146.19
  C 587.07 152.51 586.13 159.47 585.19 164.89
  A 0.51 0.50 -83.2 0 0 585.65 165.48
  C 591.88 165.95 598.69 165.41 604.95 163.98
  Q 619.65 160.64 622.78 159.76
  Q 628.01 158.29 631.86 160.12
  A 0.76 0.76 0.0 0 0 632.94 159.33"
/>
<path stroke="#c8be98" vector-effect="non-scaling-stroke" d="
  M 621.36 145.68
  A 0.48 0.48 0.0 0 0 621.54 146.34
  L 629.56 150.97
  A 0.71 0.71 0.0 0 0 630.62 150.39
  L 630.77 147.61
  A 1.91 1.90 16.8 0 0 629.82 145.85
  L 623.60 142.26
  A 0.23 0.22 29.4 0 0 623.29 142.34
  L 621.36 145.68"
/>
<path stroke="#d7d1b1" vector-effect="non-scaling-stroke" d="
  M 707.68 153.87
  L 721.11 159.63
  A 0.59 0.59 0.0 0 0 721.93 159.12
  L 722.55 147.71
  A 0.47 0.47 0.0 0 0 721.89 147.26
  L 707.68 153.42
  A 0.25 0.24 -45.3 0 0 707.68 153.87"
/>
<path stroke="#d7d1b1" vector-effect="non-scaling-stroke" d="
  M 634.04 153.43
  Q 639.06 155.03 644.10 155.95
  A 0.87 0.80 2.4 0 0 645.13 155.08
  Q 645.10 154.86 644.94 154.63
  C 644.41 153.87 642.77 153.18 641.43 152.66
  C 638.96 151.72 636.51 150.16 634.20 148.79
  A 1.21 1.20 -73.0 0 0 632.38 149.76
  L 632.32 150.94
  A 2.47 2.46 10.5 0 0 634.04 153.43"
/>
<path stroke="#c8be98" vector-effect="non-scaling-stroke" d="
  M 741.76 150.10
  A 0.46 0.46 0.0 0 0 741.14 150.55
  L 741.67 164.80
  A 1.04 1.04 0.0 0 0 742.64 165.80
  C 751.42 166.36 756.62 163.28 763.65 158.81
  A 0.22 0.21 -51.1 0 0 763.61 158.43
  L 741.76 150.10"
/>
<path stroke="#d7d1b1" vector-effect="non-scaling-stroke" d="
  M 692.05 155.94
  A 1.23 1.23 0.0 0 0 690.99 157.05
  Q 690.22 165.52 689.34 175.49
  C 688.73 182.34 690.70 186.09 693.50 192.63
  Q 694.41 194.77 697.51 198.50
  Q 700.94 202.62 705.61 211.43
  C 708.32 216.53 709.17 222.96 710.72 228.59
  Q 711.42 231.15 712.90 232.49
  C 718.16 237.21 721.46 242.03 721.33 249.50
  C 721.17 258.41 718.35 266.03 714.78 278.35
  Q 710.38 293.50 710.38 294.75
  A 6.40 6.08 -51.7 0 0 710.50 296.07
  C 711.17 299.38 712.16 302.33 715.53 302.98
  C 720.82 304.00 723.73 299.80 725.90 295.94
  C 730.01 288.62 732.67 282.16 736.45 274.44
  Q 741.80 263.52 744.95 250.49
  Q 745.34 248.87 746.33 242.04
  A 3.94 3.91 44.7 0 0 746.32 240.96
  Q 745.06 233.15 743.72 230.30
  Q 737.29 216.69 727.95 203.83
  Q 723.01 197.02 722.51 189.25
  Q 722.26 185.36 722.06 183.01
  A 2.38 2.37 9.6 0 0 720.64 181.02
  C 713.12 177.76 707.23 173.26 699.83 167.10
  Q 694.55 162.70 696.70 156.42
  A 0.76 0.75 5.5 0 0 695.88 155.43
  L 692.05 155.94"
/>
<path stroke="#c8be98" vector-effect="non-scaling-stroke" d="
  M 571.72 160.54
  A 0.21 0.21 0.0 0 0 571.63 160.94
  Q 577.09 163.82 582.51 164.92
  A 0.64 0.64 0.0 0 0 583.27 164.42
  L 583.98 160.87
  A 0.64 0.63 4.6 0 0 583.33 160.11
  L 571.72 160.54"
/>
<path stroke="#c8be98" vector-effect="non-scaling-stroke" d="
  M 615.65 195.62
  A 0.44 0.44 0.0 0 1 616.19 194.95
  Q 620.55 197.34 623.60 201.38
  A 0.28 0.28 0.0 0 0 624.11 201.23
  Q 624.83 188.73 627.25 175.45
  A 0.69 0.69 0.0 0 0 626.25 174.71
  Q 612.90 181.57 597.97 184.67
  Q 591.05 186.11 584.64 185.81
  A 0.40 0.40 0.0 0 0 584.23 186.18
  Q 583.34 196.70 588.24 205.51
  C 592.39 212.97 596.00 217.33 602.22 225.97
  Q 609.00 235.41 609.66 238.00
  Q 611.39 244.79 607.43 251.69
  Q 602.74 259.85 596.50 268.48
  Q 589.59 278.04 584.93 287.35
  Q 582.48 292.24 585.52 296.86
  A 3.68 3.54 3.3 0 0 586.30 297.70
  Q 589.34 300.00 592.84 299.00
  Q 594.42 298.54 598.03 294.65
  Q 622.44 268.35 624.03 266.53
  Q 630.46 259.21 635.34 251.51
  A 1.88 1.86 -35.6 0 0 635.59 250.05
  Q 633.62 241.67 633.28 233.18
  C 633.16 230.17 634.06 226.23 634.12 223.50
  A 3.53 3.45 -53.8 0 0 633.96 222.39
  Q 633.71 221.57 632.85 219.77
  Q 629.22 212.12 621.09 201.26
  C 619.47 199.10 616.98 197.16 615.65 195.62"
/>
<path stroke="#d7d1b1" vector-effect="non-scaling-stroke" d="
  M 644.90 178.37
  Q 637.14 179.39 630.04 177.70
  A 0.75 0.75 0.0 0 0 629.12 178.31
  C 628.67 181.15 626.41 189.38 627.99 192.78
  Q 628.45 193.75 636.58 208.37
  A 0.71 0.71 0.0 0 0 637.88 208.24
  C 639.35 203.54 642.15 199.73 643.07 195.37
  Q 645.30 184.82 645.90 179.36
  A 0.90 0.89 89.5 0 0 644.90 178.37"
/>
<path stroke="#c8be98" vector-effect="non-scaling-stroke" d="
  M 580.59 240.85
  A 0.18 0.18 0.0 0 0 580.94 240.84
  L 587.09 210.18
  A 5.66 5.60 38.7 0 0 586.69 206.70
  C 584.61 202.18 583.07 199.28 582.49 195.66
  Q 581.79 191.27 582.20 186.26
  A 0.58 0.58 0.0 0 0 581.69 185.63
  Q 570.77 184.35 560.74 179.55
  A 0.90 0.90 0.0 0 0 559.52 180.04
  Q 556.52 187.87 555.77 195.49
  A 2.56 2.44 -52.1 0 0 555.87 196.48
  Q 556.44 198.24 557.38 199.15
  Q 567.89 209.35 575.92 222.07
  C 578.36 225.94 580.34 230.44 580.38 234.41
  Q 580.45 240.27 580.59 240.85"
/>
<path stroke="#c8be98" vector-effect="non-scaling-stroke" d="
  M 732.02 205.35
  Q 736.04 196.00 737.56 187.88
  A 1.20 1.20 0.0 0 0 736.74 186.52
  L 724.74 182.68
  A 0.38 0.37 -78.5 0 0 724.25 183.01
  Q 723.21 195.74 731.59 205.42
  A 0.26 0.26 0.0 0 0 732.02 205.35"
/>
<path stroke="#c8be98" vector-effect="non-scaling-stroke" d="
  M 774.07 194.35
  A 0.37 0.37 0.0 0 0 773.44 194.25
  Q 762.74 206.97 755.28 221.01
  C 748.55 233.68 750.51 244.70 751.52 261.06
  C 752.17 271.46 753.98 280.29 756.12 292.69
  C 756.97 297.60 757.65 303.43 764.14 302.78
  C 770.46 302.15 770.55 292.14 770.93 287.25
  Q 771.65 277.94 772.36 266.75
  A 3.97 3.92 -62.6 0 0 771.51 264.03
  C 766.41 257.62 762.71 251.82 763.20 243.24
  Q 763.84 232.21 767.37 222.13
  Q 771.99 208.95 772.73 206.74
  C 773.89 203.25 775.32 197.44 774.07 194.35"
/>
<path stroke="#c8be98" vector-effect="non-scaling-stroke" d="
  M 636.38 213.94
  A 4.50 4.47 -54.4 0 0 635.87 210.80
  L 626.52 194.61
  A 0.27 0.27 0.0 0 0 626.02 194.74
  L 625.94 202.48
  A 2.91 2.74 -55.8 0 0 626.10 203.48
  Q 626.98 206.01 627.47 206.77
  Q 631.69 213.42 634.47 218.23
  A 0.59 0.59 0.0 0 0 635.56 218.05
  L 636.38 213.94"
/>
<path stroke="#c8be98" vector-effect="non-scaling-stroke" d="
  M 687.58 250.94
  C 685.75 261.81 678.97 279.76 677.74 293.44
  C 677.31 298.27 679.12 302.65 684.34 303.35
  C 687.69 303.81 689.96 300.68 691.26 298.01
  C 695.73 288.84 700.06 278.88 702.81 268.83
  Q 703.94 264.68 706.34 256.88
  Q 712.34 237.37 706.05 217.27
  Q 702.68 206.45 694.56 198.19
  C 690.96 194.52 684.71 194.08 680.09 196.23
  C 675.21 198.50 673.23 204.07 672.93 209.27
  Q 672.57 215.56 675.94 221.06
  C 681.20 229.62 689.17 241.45 687.58 250.94"
/>
<path stroke="#c8be98" vector-effect="non-scaling-stroke" d="
  M 657.81 302.46
  C 665.67 305.21 667.35 296.50 666.60 290.97
  Q 666.39 289.42 664.57 279.31
  C 662.69 268.87 660.64 260.91 658.26 250.22
  Q 656.43 242.05 658.93 233.47
  C 660.69 227.42 663.27 221.87 663.53 216.58
  C 663.86 209.99 661.73 201.96 655.28 199.25
  C 650.64 197.30 645.21 198.83 642.61 203.14
  Q 638.65 209.73 637.44 217.90
  Q 636.17 226.43 635.68 235.23
  Q 635.33 241.42 636.64 247.38
  Q 642.05 272.08 653.23 296.31
  Q 655.37 300.95 656.81 301.95
  A 3.78 3.71 -17.5 0 0 657.81 302.46"
/>
<path stroke="#d7d1b1" vector-effect="non-scaling-stroke" d="
  M 585.90 299.74
  C 580.22 296.27 581.30 287.99 584.56 283.32
  Q 594.68 268.82 598.98 257.78
  Q 599.87 255.50 600.20 253.99
  A 0.05 0.03 76.7 0 0 600.21 253.96
  L 606.28 239.82
  A 5.09 5.06 -48.0 0 0 606.06 235.38
  Q 603.36 230.49 600.81 227.43
  Q 594.41 219.72 589.48 211.89
  A 0.50 0.50 0.0 0 0 588.56 212.10
  C 588.23 215.17 587.91 218.79 586.99 222.39
  Q 583.45 236.24 582.75 241.24
  Q 578.27 273.09 577.77 276.43
  Q 577.02 281.43 577.04 287.24
  Q 577.08 297.48 577.14 298.28
  A 4.42 3.70 47.0 0 0 577.24 298.86
  C 578.24 302.58 582.91 302.52 585.76 301.40
  A 0.93 0.93 0.0 0 0 585.90 299.74"
/>
<path stroke="#d7d1b1" vector-effect="non-scaling-stroke" d="
  M 528.91 219.13
  Q 528.90 219.68 529.12 220.23
  C 531.95 227.43 533.75 235.56 530.65 242.89
  C 522.43 262.33 517.31 273.38 513.25 289.28
  Q 512.82 290.94 512.87 296.61
  A 2.27 2.19 -59.6 0 0 513.12 297.64
  Q 516.10 303.39 522.56 300.48
  A 2.00 1.99 -83.0 0 0 523.30 299.90
  C 530.90 290.06 535.98 278.03 542.29 268.33
  Q 547.51 260.31 552.05 252.03
  A 4.70 4.65 -26.2 0 0 552.58 250.50
  C 553.79 243.05 548.20 236.02 543.24 231.96
  Q 535.45 225.59 529.47 218.91
  A 0.32 0.32 0.0 0 0 528.91 219.13"
/>
<path stroke="#c8be98" vector-effect="non-scaling-stroke" d="
  M 661.36 252.27
  Q 661.55 251.98 661.74 251.25
  C 665.61 235.68 667.70 229.34 669.02 219.93
  A 1.06 1.05 5.5 0 0 668.03 218.73
  C 665.44 218.59 665.48 219.56 664.63 221.75
  C 660.78 231.66 658.12 241.72 660.49 252.10
  A 0.48 0.48 0.0 0 0 661.36 252.27"
/>
<path stroke="#c8be98" vector-effect="non-scaling-stroke" d="
  M 683.17 258.51
  A 0.33 0.33 0.0 0 0 683.80 258.51
  Q 684.17 257.06 684.97 253.01
  C 686.32 246.11 684.33 239.08 680.37 233.25
  A 0.47 0.47 0.0 0 0 679.51 233.48
  Q 679.16 237.95 679.84 242.49
  Q 681.09 250.91 683.17 258.51"
/>
<path stroke="#87a1af" vector-effect="non-scaling-stroke" d="
  M 709.82 289.77
  Q 712.80 279.20 718.09 259.97
  Q 720.08 252.72 719.84 249.57
  C 719.37 243.46 715.66 238.69 711.93 234.16
  A 0.40 0.40 0.0 0 0 711.22 234.42
  C 711.23 240.04 711.40 244.58 709.86 250.61
  Q 706.59 263.41 706.28 264.79
  A 2.17 2.14 -41.4 0 0 706.22 265.66
  L 709.44 289.75
  A 0.20 0.19 -41.6 0 0 709.82 289.77"
/>
<path stroke="#87a1af" vector-effect="non-scaling-stroke" d="
  M 607.50 241.81
  L 603.11 253.83
  A 0.11 0.11 0.0 0 0 603.17 253.97
  L 603.21 253.98
  A 6.35 1.33 -69.9 0 0 606.64 248.47
  L 606.75 248.17
  A 6.35 1.33 -69.9 0 0 607.68 241.75
  L 607.65 241.74
  A 0.11 0.11 0.0 0 0 607.50 241.81"
/>
<path stroke="#d7d1b1" vector-effect="non-scaling-stroke" d="
  M 635.30 254.10
  Q 630.03 262.92 623.07 270.27
  A 3.34 3.34 0.0 0 0 622.18 272.99
  Q 623.87 285.89 626.96 297.01
  Q 628.44 302.34 633.75 302.65
  C 638.18 302.91 639.66 299.27 639.96 295.76
  Q 641.48 278.11 641.88 274.60
  A 5.82 5.79 -49.9 0 0 641.69 272.34
  L 636.43 254.25
  A 0.62 0.62 0.0 0 0 635.30 254.10"
/>
<path stroke="#c8be98" vector-effect="non-scaling-stroke" d="
  M 704.26 270.56
  L 694.02 297.41
  A 1.42 1.40 -50.3 0 0 694.13 298.65
  Q 695.41 300.74 697.88 302.07
  C 703.25 304.97 708.60 300.26 708.15 294.62
  Q 707.14 282.00 705.03 270.63
  A 0.40 0.40 0.0 0 0 704.26 270.56"
/>
<path stroke="#d7d1b1" vector-effect="non-scaling-stroke" d="
  M 651.86 84.15
  C 656.44 89.31 666.62 90.14 672.16 85.97
  C 679.29 80.59 680.08 71.05 674.13 64.35
  C 668.17 57.65 658.59 57.33 652.43 63.78
  C 647.63 68.80 647.28 79.00 651.86 84.15"
/>
<path stroke="#c8be98" vector-effect="non-scaling-stroke" d="
  M 684.75 111.49
  A 17.12 17.12 0.0 0 0 667.63 94.37
  A 17.12 17.12 0.0 0 0 650.51 111.49
  A 17.12 17.12 0.0 0 0 667.63 128.61
  A 17.12 17.12 0.0 0 0 684.75 111.49"
/>
<path stroke="#c8be98" vector-effect="non-scaling-stroke" d="
  M 658.0376 99.7537
  A 15.05 14.81 -129.3 0 0 656.1094 120.7804
  A 15.05 14.81 -129.3 0 0 677.1024 123.0463
  A 15.05 14.81 -129.3 0 0 679.0306 102.0196
  A 15.05 14.81 -129.3 0 0 658.0376 99.7537"
/>
</g>
<path fill="#346087" d="
  M 1344.00 0.00
  L 1344.00 576.00
  L 0.00 576.00
  L 0.00 0.00
  L 1344.00 0.00
  Z
  M 668.65 296.02
  Q 672.65 300.97 677.00 300.59
  Q 679.47 303.79 680.79 304.27
  Q 688.50 307.07 692.42 300.19
  A 0.59 0.59 0.0 0 1 693.40 300.12
  C 695.08 302.33 697.04 304.34 699.98 304.79
  Q 706.07 305.73 708.69 299.75
  A 0.43 0.43 0.0 0 1 709.50 299.80
  C 711.27 306.18 719.36 307.16 723.26 302.25
  Q 726.44 298.26 728.33 294.80
  Q 737.95 277.21 744.69 258.49
  Q 746.58 253.22 747.95 246.90
  Q 749.06 248.77 748.63 252.23
  Q 750.40 269.75 752.67 287.25
  Q 753.50 293.57 755.22 298.98
  C 757.55 306.28 766.56 306.94 770.26 300.55
  Q 772.01 297.51 772.20 295.72
  Q 773.95 278.50 774.52 268.36
  A 0.34 0.33 19.2 0 1 775.05 268.11
  C 776.29 268.97 777.10 270.27 778.40 271.56
  Q 787.33 280.45 795.17 287.87
  C 799.97 292.41 804.61 297.79 809.06 301.32
  C 812.61 304.13 818.41 304.16 821.37 300.37
  C 824.60 296.25 823.63 291.21 820.93 287.09
  Q 810.45 271.08 799.69 256.58
  C 795.42 250.81 793.45 246.56 795.54 240.03
  Q 796.58 236.79 797.41 235.19
  C 805.64 219.27 814.88 204.35 813.90 186.90
  Q 812.82 167.72 804.36 150.16
  C 800.20 141.51 792.15 135.37 782.10 137.34
  Q 781.45 137.09 781.21 136.83
  C 789.33 131.56 793.78 121.01 787.93 112.35
  C 781.27 102.48 766.61 101.77 759.91 111.78
  C 754.82 119.40 755.69 128.62 762.64 134.71
  A 0.21 0.20 72.3 0 1 762.46 135.07
  Q 753.08 132.65 744.80 129.07
  A 0.57 0.57 0.0 0 1 744.59 128.19
  C 749.01 122.72 753.13 116.96 754.49 110.32
  A 5.30 5.29 47.0 0 0 754.55 108.61
  L 754.13 105.47
  A 2.37 2.31 49.8 0 1 754.20 104.49
  C 759.16 87.51 754.98 70.48 747.05 54.72
  Q 745.12 50.90 742.52 47.71
  C 739.90 44.48 734.16 44.21 731.84 47.83
  Q 729.72 51.13 730.72 54.38
  C 734.02 65.12 736.79 73.03 737.34 83.03
  C 737.97 94.21 732.50 106.40 723.55 112.99
  A 0.58 0.57 38.7 0 1 722.97 113.05
  L 717.77 110.82
  A 0.19 0.19 0.0 0 1 717.72 110.50
  C 724.81 104.49 724.90 94.15 718.82 87.37
  C 708.55 75.93 691.55 82.19 689.63 96.98
  A 0.40 0.39 22.5 0 1 689.00 97.24
  Q 685.85 94.80 682.11 93.60
  Q 670.83 89.99 659.44 92.08
  Q 653.12 93.24 647.71 97.35
  A 0.39 0.39 0.0 0 1 647.09 97.06
  C 646.51 87.60 637.81 79.71 628.21 81.49
  Q 617.42 83.48 614.17 95.12
  A 0.22 0.22 0.0 0 1 613.76 95.14
  Q 612.96 93.09 610.58 86.85
  C 609.19 83.20 606.21 79.32 602.09 79.71
  C 597.97 80.10 595.85 83.79 595.80 87.79
  C 595.66 98.16 598.74 107.31 603.49 116.52
  A 0.38 0.37 4.9 0 1 602.93 116.99
  C 597.84 113.10 592.65 108.84 590.11 102.83
  C 587.41 96.43 588.66 87.14 590.53 80.52
  C 592.22 74.54 594.59 68.50 593.53 65.20
  C 591.05 57.50 582.40 59.59 578.98 65.01
  Q 568.34 81.82 569.46 101.42
  A 0.38 0.38 0.0 0 1 569.01 101.81
  Q 556.44 99.56 550.21 108.91
  C 545.62 115.81 546.67 125.18 552.98 130.69
  C 561.11 137.79 571.27 137.30 578.49 129.26
  C 578.94 128.76 579.31 127.70 579.76 127.15
  A 0.30 0.30 0.0 0 1 580.20 127.13
  L 590.70 137.62
  A 1.48 1.44 -81.1 0 1 590.92 137.93
  Q 592.36 140.76 588.75 140.60
  Q 576.76 140.09 562.53 137.17
  A 1.53 1.37 63.4 0 1 562.00 136.96
  L 557.28 134.02
  A 2.83 2.79 -20.9 0 0 556.53 133.69
  Q 545.23 130.39 536.82 137.81
  Q 528.31 145.32 524.00 155.94
  Q 516.59 174.20 517.91 194.62
  Q 518.40 202.17 521.91 208.44
  Q 529.33 221.65 530.34 234.78
  C 530.81 240.95 527.91 245.06 524.62 252.36
  Q 517.04 269.16 511.93 286.43
  C 510.36 291.73 509.16 297.29 513.31 301.48
  C 517.56 305.80 523.87 303.68 526.71 298.69
  Q 540.02 275.29 552.43 254.54
  A 0.29 0.28 60.6 0 1 552.96 254.69
  Q 552.86 262.11 552.29 268.07
  C 551.39 277.52 551.12 287.84 551.34 295.25
  C 551.49 300.49 553.63 304.90 559.56 304.92
  C 565.57 304.94 566.92 300.88 569.00 295.50
  Q 573.32 284.38 575.57 271.82
  A 0.46 0.45 9.3 0 1 576.08 271.46
  L 576.10 271.46
  A 0.49 0.48 7.9 0 1 576.51 272.00
  C 575.14 283.22 573.93 288.19 574.95 296.74
  Q 575.83 304.19 582.64 304.16
  C 584.28 304.15 586.45 303.32 587.48 301.97
  A 1.74 1.73 -70.2 0 1 588.94 301.28
  C 594.18 301.51 596.55 298.97 599.58 295.59
  Q 609.88 284.08 619.57 274.08
  A 0.47 0.46 66.0 0 1 620.37 274.39
  Q 620.39 275.11 624.28 294.99
  C 625.42 300.82 627.37 305.13 634.22 304.64
  C 640.98 304.16 642.09 297.97 642.28 292.25
  Q 642.45 287.43 642.70 280.00
  Q 642.74 278.78 643.24 277.95
  A 0.29 0.28 -40.2 0 1 643.75 277.99
  C 646.15 283.97 648.98 293.93 653.60 301.38
  Q 656.32 305.76 661.58 304.60
  Q 667.17 303.38 668.65 296.02
  Z
  M 679.98 74.08
  A 16.78 16.78 0.0 0 0 663.20 57.30
  A 16.78 16.78 0.0 0 0 646.42 74.08
  A 16.78 16.78 0.0 0 0 663.20 90.86
  A 16.78 16.78 0.0 0 0 679.98 74.08
  Z"
/>
<path fill="#dae1d7" d="
  M 781.21 136.83
  C 774.86 140.61 768.91 138.06 762.15 137.05
  Q 756.94 136.27 754.84 135.61
  Q 748.68 133.67 743.44 131.22
  A 1.20 1.19 -54.9 0 0 742.07 131.46
  L 738.94 134.59
  A 0.42 0.40 -27.8 0 0 738.82 134.94
  L 740.35 146.41
  A 1.57 1.57 0.0 0 0 741.29 147.64
  Q 750.44 151.64 760.01 154.74
  Q 763.40 155.84 766.57 156.34
  A 0.76 0.76 0.0 0 0 767.45 155.66
  Q 768.86 142.05 782.10 137.34
  C 792.15 135.37 800.20 141.51 804.36 150.16
  Q 812.82 167.72 813.90 186.90
  C 814.88 204.35 805.64 219.27 797.41 235.19
  Q 796.58 236.79 795.54 240.03
  C 793.45 246.56 795.42 250.81 799.69 256.58
  Q 810.45 271.08 820.93 287.09
  C 823.63 291.21 824.60 296.25 821.37 300.37
  C 818.41 304.16 812.61 304.13 809.06 301.32
  C 804.61 297.79 799.97 292.41 795.17 287.87
  Q 787.33 280.45 778.40 271.56
  C 777.10 270.27 776.29 268.97 775.05 268.11
  A 0.34 0.33 19.2 0 0 774.52 268.36
  Q 773.95 278.50 772.20 295.72
  Q 772.01 297.51 770.26 300.55
  C 766.56 306.94 757.55 306.28 755.22 298.98
  Q 753.50 293.57 752.67 287.25
  Q 750.40 269.75 748.63 252.23
  Q 748.59 243.97 748.82 235.76
  Q 748.92 232.31 749.92 229.20
  C 753.77 217.18 760.12 208.92 767.80 197.79
  Q 768.75 196.42 773.14 191.33
  A 1.57 1.57 0.0 0 0 773.50 190.11
  L 772.57 183.15
  A 0.97 0.97 0.0 0 0 771.16 182.41
  Q 755.95 190.22 740.04 186.88
  A 0.71 0.71 0.0 0 0 739.19 187.49
  Q 738.01 197.83 733.57 206.17
  A 2.71 2.69 42.3 0 0 733.71 208.94
  C 740.56 219.19 746.73 228.11 748.31 240.62
  A 3.37 2.76 48.8 0 1 748.33 241.23
  L 747.95 246.90
  Q 746.58 253.22 744.69 258.49
  Q 737.95 277.21 728.33 294.80
  Q 726.44 298.26 723.26 302.25
  C 719.36 307.16 711.27 306.18 709.50 299.80
  A 0.43 0.43 0.0 0 0 708.69 299.75
  Q 706.07 305.73 699.98 304.79
  C 697.04 304.34 695.08 302.33 693.40 300.12
  A 0.59 0.59 0.0 0 0 692.42 300.19
  Q 688.50 307.07 680.79 304.27
  Q 679.47 303.79 677.00 300.59
  Q 676.09 296.59 676.10 295.52
  Q 676.15 290.71 678.35 280.18
  Q 679.96 272.43 681.76 265.44
  A 5.55 5.49 -44.7 0 0 681.79 262.80
  Q 678.93 250.62 678.17 247.32
  Q 676.79 241.25 677.63 230.73
  A 4.56 4.50 38.3 0 0 677.41 228.95
  Q 676.02 224.72 672.57 219.13
  A 1.18 1.15 -32.8 0 0 670.92 218.79
  Q 670.55 219.05 670.44 219.75
  Q 668.88 230.66 666.52 241.77
  C 665.77 245.34 664.26 249.43 662.89 252.70
  C 661.89 255.10 661.81 257.06 662.34 259.43
  Q 665.31 272.65 667.93 285.61
  Q 668.92 290.48 668.65 296.02
  Q 667.17 303.38 661.58 304.60
  Q 656.32 305.76 653.60 301.38
  C 648.98 293.93 646.15 283.97 643.75 277.99
  A 0.29 0.28 -40.2 0 0 643.24 277.95
  Q 642.74 278.78 642.70 280.00
  Q 642.45 287.43 642.28 292.25
  C 642.09 297.97 640.98 304.16 634.22 304.64
  C 627.37 305.13 625.42 300.82 624.28 294.99
  Q 620.39 275.11 620.37 274.39
  A 0.47 0.46 66.0 0 0 619.57 274.08
  Q 609.88 284.08 599.58 295.59
  C 596.55 298.97 594.18 301.51 588.94 301.28
  A 1.74 1.73 -70.2 0 0 587.48 301.97
  C 586.45 303.32 584.28 304.15 582.64 304.16
  Q 575.83 304.19 574.95 296.74
  C 573.93 288.19 575.14 283.22 576.51 272.00
  A 0.49 0.48 7.9 0 0 576.10 271.46
  L 576.08 271.46
  A 0.46 0.45 9.3 0 0 575.57 271.82
  Q 573.32 284.38 569.00 295.50
  C 566.92 300.88 565.57 304.94 559.56 304.92
  C 553.63 304.90 551.49 300.49 551.34 295.25
  C 551.12 287.84 551.39 277.52 552.29 268.07
  Q 552.86 262.11 552.96 254.69
  A 0.29 0.28 60.6 0 0 552.43 254.54
  Q 540.02 275.29 526.71 298.69
  C 523.87 303.68 517.56 305.80 513.31 301.48
  C 509.16 297.29 510.36 291.73 511.93 286.43
  Q 517.04 269.16 524.62 252.36
  C 527.91 245.06 530.81 240.95 530.34 234.78
  Q 529.33 221.65 521.91 208.44
  Q 518.40 202.17 517.91 194.62
  Q 516.59 174.20 524.00 155.94
  Q 528.31 145.32 536.82 137.81
  Q 545.23 130.39 556.53 133.69
  A 2.83 2.79 -20.9 0 1 557.28 134.02
  L 562.00 136.96
  A 1.53 1.37 63.4 0 0 562.53 137.17
  Q 576.76 140.09 588.75 140.60
  Q 592.36 140.76 590.92 137.93
  A 1.48 1.44 -81.1 0 0 590.70 137.62
  L 580.20 127.13
  A 0.30 0.30 0.0 0 0 579.76 127.15
  C 579.31 127.70 578.94 128.76 578.49 129.26
  C 571.27 137.30 561.11 137.79 552.98 130.69
  C 546.67 125.18 545.62 115.81 550.21 108.91
  Q 556.44 99.56 569.01 101.81
  A 0.38 0.38 0.0 0 0 569.46 101.42
  Q 568.34 81.82 578.98 65.01
  C 582.40 59.59 591.05 57.50 593.53 65.20
  C 594.59 68.50 592.22 74.54 590.53 80.52
  C 588.66 87.14 587.41 96.43 590.11 102.83
  C 592.65 108.84 597.84 113.10 602.93 116.99
  A 0.38 0.37 4.9 0 0 603.49 116.52
  C 598.74 107.31 595.66 98.16 595.80 87.79
  C 595.85 83.79 597.97 80.10 602.09 79.71
  C 606.21 79.32 609.19 83.20 610.58 86.85
  Q 612.96 93.09 613.76 95.14
  A 0.22 0.22 0.0 0 0 614.17 95.12
  Q 617.42 83.48 628.21 81.49
  C 637.81 79.71 646.51 87.60 647.09 97.06
  A 0.39 0.39 0.0 0 0 647.71 97.35
  Q 653.12 93.24 659.44 92.08
  Q 670.83 89.99 682.11 93.60
  Q 685.85 94.80 689.00 97.24
  A 0.40 0.39 22.5 0 0 689.63 96.98
  C 691.55 82.19 708.55 75.93 718.82 87.37
  C 724.90 94.15 724.81 104.49 717.72 110.50
  A 0.19 0.19 0.0 0 0 717.77 110.82
  L 722.97 113.05
  A 0.58 0.57 38.7 0 0 723.55 112.99
  C 732.50 106.40 737.97 94.21 737.34 83.03
  C 736.79 73.03 734.02 65.12 730.72 54.38
  Q 729.72 51.13 731.84 47.83
  C 734.16 44.21 739.90 44.48 742.52 47.71
  Q 745.12 50.90 747.05 54.72
  C 754.98 70.48 759.16 87.51 754.20 104.49
  A 2.37 2.31 49.8 0 0 754.13 105.47
  L 754.55 108.61
  A 5.30 5.29 47.0 0 1 754.49 110.32
  C 753.13 116.96 749.01 122.72 744.59 128.19
  A 0.57 0.57 0.0 0 0 744.80 129.07
  Q 753.08 132.65 762.46 135.07
  A 0.21 0.20 72.3 0 0 762.64 134.71
  C 755.69 128.62 754.82 119.40 759.91 111.78
  C 766.61 101.77 781.27 102.48 787.93 112.35
  C 793.78 121.01 789.33 131.56 781.21 136.83
  Z
  M 751.71 103.45
  A 0.83 0.83 0.0 0 0 752.97 102.90
  C 753.57 99.75 754.50 95.74 754.46 92.38
  Q 754.31 81.54 753.98 79.50
  Q 752.73 71.86 749.94 65.76
  Q 744.97 54.90 743.92 53.09
  C 741.72 49.31 738.37 45.25 734.17 47.88
  C 730.82 49.98 733.52 57.26 734.72 60.51
  Q 736.87 66.32 738.40 78.47
  C 739.57 87.66 738.90 96.40 733.94 103.76
  Q 729.50 110.36 725.33 114.12
  Q 724.22 115.13 717.82 120.42
  A 0.63 0.63 0.0 0 0 717.89 121.44
  Q 719.27 122.29 721.19 122.60
  A 1.68 1.67 -54.5 0 0 722.25 122.42
  C 728.69 119.01 734.33 113.49 739.31 107.82
  C 742.23 104.50 747.29 100.67 751.71 103.45
  Z
  M 599.97 117.96
  C 591.66 111.06 585.42 102.76 586.63 91.48
  Q 587.77 80.86 591.31 70.85
  C 592.67 67.00 592.18 62.98 587.59 62.27
  C 582.36 61.47 579.39 67.39 577.48 71.48
  C 572.80 81.52 569.93 90.37 571.57 101.70
  A 1.47 1.47 0.0 0 0 572.13 102.67
  C 573.75 103.96 575.89 105.21 577.39 106.99
  Q 583.57 114.29 581.17 124.38
  A 1.87 1.86 -61.0 0 0 581.67 126.15
  L 590.22 134.71
  A 0.68 0.67 -66.7 0 0 591.37 134.25
  Q 591.67 124.20 599.92 118.89
  A 0.58 0.58 0.0 0 0 599.97 117.96
  Z
  M 624.95 140.77
  C 633.48 145.94 637.20 148.84 644.44 151.90
  A 0.42 0.42 0.0 0 0 645.02 151.51
  Q 644.95 140.69 652.74 133.99
  A 0.48 0.48 0.0 0 0 652.62 133.18
  C 644.73 129.80 637.73 126.61 631.48 121.65
  Q 624.75 116.31 619.11 110.17
  Q 616.39 107.22 615.00 103.52
  Q 611.59 94.45 608.51 87.01
  C 607.52 84.61 606.12 82.61 603.46 82.01
  C 596.92 80.56 597.91 90.10 598.23 93.52
  C 599.04 102.32 601.95 108.78 605.83 116.18
  A 1.37 1.36 75.2 0 0 607.09 116.92
  C 612.75 116.74 617.84 119.07 621.40 123.46
  Q 626.69 129.98 624.52 139.79
  A 0.92 0.91 21.7 0 0 624.95 140.77
  Z
  M 699.1744 85.0902
  A 15.01 14.59 -119.3 0 0 693.7965 105.3201
  A 15.01 14.59 -119.3 0 0 713.8656 111.2698
  A 15.01 14.59 -119.3 0 0 719.2435 91.0399
  A 15.01 14.59 -119.3 0 0 699.1744 85.0902
  Z
  M 623.5708 85.0180
  A 15.00 14.32 -118.9 0 0 618.2833 105.0706
  A 15.00 14.32 -118.9 0 0 638.0692 111.2820
  A 15.00 14.32 -118.9 0 0 643.3567 91.2294
  A 15.00 14.32 -118.9 0 0 623.5708 85.0180
  Z
  M 692.14 119.79
  C 692.20 115.45 691.74 102.15 687.99 99.04
  C 682.31 94.33 671.83 93.16 664.75 93.41
  C 659.32 93.61 651.56 95.87 647.84 100.13
  A 3.07 3.00 74.3 0 0 647.20 101.30
  Q 645.59 106.84 642.41 110.72
  C 639.65 114.09 639.98 118.94 639.77 123.61
  A 1.74 1.74 0.0 0 0 640.73 125.26
  L 654.23 131.98
  A 1.93 1.88 -42.7 0 0 655.83 132.02
  C 663.49 128.73 670.59 130.01 679.48 130.60
  A 1.53 1.51 18.1 0 0 680.84 129.92
  Q 685.82 122.30 691.34 120.82
  A 1.08 1.08 0.0 0 0 692.14 119.79
  Z
  M 549.6208 114.3094
  A 15.54 15.24 -164.7 0 0 560.5886 133.1099
  A 15.54 15.24 -164.7 0 0 579.5992 122.5106
  A 15.54 15.24 -164.7 0 0 568.6314 103.7101
  A 15.54 15.24 -164.7 0 0 549.6208 114.3094
  Z
  M 645.27 197.98
  C 649.79 195.54 654.81 195.93 658.84 199.09
  C 664.37 203.41 665.64 209.34 665.56 216.26
  A 0.66 0.65 89.2 0 0 666.24 216.93
  L 670.56 216.78
  A 1.01 1.01 0.0 0 0 671.48 215.47
  C 669.46 209.08 670.58 202.11 675.38 197.39
  Q 681.75 191.13 691.86 194.11
  A 0.31 0.31 0.0 0 0 692.22 193.67
  C 690.55 190.42 687.77 185.02 687.79 181.25
  Q 687.85 168.87 689.50 155.51
  A 1.29 1.28 89.7 0 1 690.60 154.39
  C 707.38 152.15 722.99 146.48 735.55 134.50
  Q 743.34 127.07 749.23 118.57
  Q 752.28 114.17 752.68 109.99
  C 753.50 101.56 745.45 104.21 742.00 107.78
  Q 735.01 115.01 729.07 120.28
  C 718.82 129.36 703.02 133.89 689.47 133.10
  C 683.09 132.72 676.37 132.71 670.51 132.03
  C 661.33 130.96 650.48 134.47 648.42 144.71
  Q 647.45 149.54 647.64 154.88
  A 0.72 0.72 0.0 0 0 648.57 155.55
  C 659.33 152.27 666.87 145.98 678.42 137.91
  Q 681.37 135.84 684.00 135.25
  C 688.14 134.33 693.08 136.56 693.79 141.10
  C 694.38 144.89 691.70 148.57 688.88 151.49
  Q 684.63 155.87 674.64 164.14
  Q 663.26 173.57 648.52 177.58
  A 0.85 0.84 -9.1 0 0 647.90 178.43
  Q 648.35 188.05 644.62 197.41
  A 0.46 0.46 0.0 0 0 645.27 197.98
  Z
  M 766.8453 107.6841
  A 15.24 14.87 -116.1 0 0 760.1963 127.9119
  A 15.24 14.87 -116.1 0 0 780.2547 135.0559
  A 15.24 14.87 -116.1 0 0 786.9037 114.8281
  A 15.24 14.87 -116.1 0 0 766.8453 107.6841
  Z
  M 694.14 111.22
  L 694.43 119.03
  A 0.54 0.54 0.0 0 0 695.09 119.54
  Q 700.24 118.45 706.18 119.20
  A 0.56 0.56 0.0 0 0 706.80 118.75
  L 707.27 116.43
  A 0.48 0.48 0.0 0 0 706.83 115.86
  Q 700.40 115.37 694.55 111.00
  A 0.26 0.26 0.0 0 0 694.14 111.22
  Z
  M 721.71 115.14
  A 0.56 0.56 0.0 0 0 721.60 114.21
  Q 714.96 110.98 710.00 116.13
  A 2.14 2.14 0.0 0 0 710.81 119.63
  Q 711.67 119.93 715.40 120.08
  A 1.19 1.18 -64.1 0 0 716.18 119.81
  L 721.71 115.14
  Z
  M 637.63 122.83
  L 638.10 114.25
  A 0.25 0.25 0.0 0 0 637.76 114.00
  Q 632.76 115.83 627.61 115.20
  A 0.30 0.29 66.8 0 0 627.40 115.73
  L 637.11 123.07
  A 0.33 0.32 20.0 0 0 637.63 122.83
  Z
  M 606.9703 119.0628
  A 15.20 14.90 -94.3 0 0 593.2519 135.3372
  A 15.20 14.90 -94.3 0 0 609.2497 149.3772
  A 15.20 14.90 -94.3 0 0 622.9681 133.1028
  A 15.20 14.90 -94.3 0 0 606.9703 119.0628
  Z
  M 718.69 123.88
  Q 715.31 123.83 712.46 122.57
  A 6.15 6.01 -30.5 0 0 710.38 122.06
  C 701.21 121.50 689.42 119.78 684.38 129.45
  A 0.67 0.66 17.4 0 0 684.89 130.42
  Q 702.93 132.53 718.85 124.56
  A 0.36 0.36 0.0 0 0 718.69 123.88
  Z
  M 566.18 156.46
  C 566.24 151.88 566.43 148.09 564.77 144.37
  Q 560.04 133.73 547.69 134.97
  Q 543.36 135.40 540.98 137.00
  Q 530.50 144.00 525.75 156.19
  C 520.91 168.60 518.48 181.97 519.66 194.20
  Q 521.03 208.28 532.11 219.10
  Q 532.30 219.29 546.48 232.77
  C 550.21 236.33 553.97 241.02 554.42 246.07
  Q 554.74 249.66 554.39 258.24
  Q 552.96 293.45 552.98 293.75
  C 553.25 297.88 553.39 301.68 557.53 302.86
  Q 563.51 304.56 565.64 299.50
  C 567.80 294.42 568.73 289.41 570.78 282.65
  Q 572.99 275.40 574.10 270.17
  Q 577.69 253.29 578.69 242.00
  C 579.72 230.25 572.94 219.28 565.37 210.87
  Q 556.50 201.01 546.83 192.66
  A 0.34 0.34 0.0 0 1 546.85 192.13
  L 547.06 191.97
  A 0.76 0.75 -44.2 0 1 547.95 191.98
  L 552.89 195.71
  A 0.69 0.69 0.0 0 0 553.99 195.23
  Q 554.74 187.45 557.88 179.07
  A 0.75 0.75 0.0 0 0 557.54 178.16
  Q 544.67 171.10 534.52 161.04
  A 0.13 0.13 0.0 0 1 534.51 160.86
  L 534.67 160.65
  A 0.45 0.44 39.2 0 1 535.33 160.59
  Q 540.24 165.04 542.66 166.81
  Q 552.90 174.26 566.98 180.23
  Q 576.64 184.32 586.74 183.66
  Q 600.77 182.74 613.32 178.13
  Q 613.93 177.90 627.14 171.83
  C 630.35 170.36 632.66 168.14 632.08 164.70
  C 630.84 157.46 617.02 163.19 611.29 165.00
  Q 606.68 166.45 595.25 167.35
  C 585.22 168.14 574.78 166.36 566.66 160.09
  Q 559.06 154.22 553.72 149.77
  Q 549.67 146.39 548.83 145.98
  A 0.40 0.39 -43.8 0 1 548.85 145.26
  L 548.95 145.22
  A 1.55 1.54 -40.2 0 1 550.42 145.34
  C 555.15 148.45 560.11 153.75 565.59 156.80
  A 0.40 0.40 0.0 0 0 566.18 156.46
  Z
  M 739.38 164.44
  Q 739.35 150.71 736.74 137.63
  A 0.34 0.34 0.0 0 0 736.21 137.42
  L 724.91 145.61
  A 0.83 0.81 74.7 0 0 724.58 146.21
  L 723.83 160.22
  A 0.95 0.94 -80.9 0 0 724.52 161.18
  L 738.62 165.02
  A 0.61 0.60 7.4 0 0 739.38 164.44
  Z
  M 633.79 156.75
  Q 634.06 158.55 633.28 160.05
  A 1.35 1.33 46.4 0 0 633.26 161.25
  Q 636.51 168.12 629.87 173.16
  A 1.24 1.23 -56.2 0 0 630.30 175.34
  Q 644.59 179.07 657.79 172.19
  Q 666.77 167.50 670.38 165.10
  Q 673.42 163.08 679.26 157.85
  C 682.73 154.75 686.47 151.74 688.88 147.91
  C 690.63 145.13 692.77 141.06 689.88 138.82
  Q 686.25 136.01 682.28 138.54
  Q 659.89 152.80 657.35 154.35
  Q 646.27 161.12 634.36 156.31
  A 0.42 0.41 7.1 0 0 633.79 156.75
  Z
  M 779.36 151.74
  L 778.72 152.74
  C 775.05 154.67 771.28 157.47 768.16 159.11
  C 762.60 162.04 756.68 166.35 751.27 167.47
  C 743.77 169.03 736.62 167.40 730.06 165.19
  Q 717.49 160.96 706.98 156.10
  Q 703.48 154.48 702.27 154.67
  C 699.48 155.10 697.14 158.32 698.31 161.21
  C 700.36 166.26 707.14 171.24 711.34 173.67
  Q 717.00 176.93 726.10 180.88
  Q 749.21 190.89 771.54 180.08
  Q 778.06 176.92 780.67 175.16
  Q 786.04 171.55 793.75 166.86
  A 0.28 0.28 0.0 0 1 794.17 167.12
  L 794.11 168.20
  A 0.92 0.90 -17.8 0 1 793.75 168.88
  C 787.56 173.74 783.32 176.00 774.79 180.83
  A 1.35 1.34 69.0 0 0 774.14 182.30
  C 775.59 188.98 777.94 198.75 775.54 205.02
  C 770.54 218.09 766.02 230.31 765.36 243.99
  C 764.96 252.54 768.50 257.94 774.40 263.92
  C 782.00 271.62 788.95 278.21 797.19 286.96
  Q 803.69 293.86 809.75 299.00
  C 812.42 301.26 817.19 302.40 819.60 299.41
  C 821.99 296.46 821.25 292.02 819.59 289.14
  C 814.89 281.02 807.97 271.07 801.68 262.69
  Q 797.00 256.45 795.25 252.99
  C 790.79 244.20 794.45 237.50 798.20 228.95
  Q 798.75 227.70 807.31 210.05
  Q 812.69 198.98 811.75 186.32
  Q 810.65 171.41 804.86 155.99
  C 801.72 147.63 793.93 137.57 783.93 139.21
  Q 774.89 140.69 771.49 149.51
  Q 770.48 152.15 770.17 154.31
  A 0.50 0.49 88.8 0 0 770.75 154.87
  Q 771.04 154.82 771.50 154.48
  C 773.93 152.71 776.65 150.27 779.36 151.74
  Z
  M 584.35 157.25
  C 585.32 152.46 586.61 147.10 588.59 143.33
  A 0.44 0.44 0.0 0 0 588.19 142.68
  Q 586.34 142.75 585.01 142.59
  Q 576.66 141.62 565.19 139.60
  A 0.42 0.42 0.0 0 0 564.76 140.22
  Q 569.11 147.98 567.85 157.18
  A 1.13 1.13 0.0 0 0 569.01 158.46
  L 583.56 157.92
  A 0.83 0.83 0.0 0 0 584.35 157.25
  Z
  M 632.94 159.33
  L 632.48 155.86
  A 1.87 1.86 11.3 0 0 631.56 154.49
  L 619.99 147.81
  A 0.92 0.92 0.0 0 0 619.03 147.84
  Q 607.71 155.20 597.58 147.51
  C 595.94 146.27 594.16 143.65 593.00 141.95
  A 0.56 0.56 0.0 0 0 592.15 141.87
  Q 590.43 143.53 589.43 146.19
  C 587.07 152.51 586.13 159.47 585.19 164.89
  A 0.51 0.50 -83.2 0 0 585.65 165.48
  C 591.88 165.95 598.69 165.41 604.95 163.98
  Q 619.65 160.64 622.78 159.76
  Q 628.01 158.29 631.86 160.12
  A 0.76 0.76 0.0 0 0 632.94 159.33
  Z
  M 621.36 145.68
  A 0.48 0.48 0.0 0 0 621.54 146.34
  L 629.56 150.97
  A 0.71 0.71 0.0 0 0 630.62 150.39
  L 630.77 147.61
  A 1.91 1.90 16.8 0 0 629.82 145.85
  L 623.60 142.26
  A 0.23 0.22 29.4 0 0 623.29 142.34
  L 621.36 145.68
  Z
  M 707.68 153.87
  L 721.11 159.63
  A 0.59 0.59 0.0 0 0 721.93 159.12
  L 722.55 147.71
  A 0.47 0.47 0.0 0 0 721.89 147.26
  L 707.68 153.42
  A 0.25 0.24 -45.3 0 0 707.68 153.87
  Z
  M 634.04 153.43
  Q 639.06 155.03 644.10 155.95
  A 0.87 0.80 2.4 0 0 645.13 155.08
  Q 645.10 154.86 644.94 154.63
  C 644.41 153.87 642.77 153.18 641.43 152.66
  C 638.96 151.72 636.51 150.16 634.20 148.79
  A 1.21 1.20 -73.0 0 0 632.38 149.76
  L 632.32 150.94
  A 2.47 2.46 10.5 0 0 634.04 153.43
  Z
  M 741.76 150.10
  A 0.46 0.46 0.0 0 0 741.14 150.55
  L 741.67 164.80
  A 1.04 1.04 0.0 0 0 742.64 165.80
  C 751.42 166.36 756.62 163.28 763.65 158.81
  A 0.22 0.21 -51.1 0 0 763.61 158.43
  L 741.76 150.10
  Z
  M 692.05 155.94
  A 1.23 1.23 0.0 0 0 690.99 157.05
  Q 690.22 165.52 689.34 175.49
  C 688.73 182.34 690.70 186.09 693.50 192.63
  Q 694.41 194.77 697.51 198.50
  Q 700.94 202.62 705.61 211.43
  C 708.32 216.53 709.17 222.96 710.72 228.59
  Q 711.42 231.15 712.90 232.49
  C 718.16 237.21 721.46 242.03 721.33 249.50
  C 721.17 258.41 718.35 266.03 714.78 278.35
  Q 710.38 293.50 710.38 294.75
  A 6.40 6.08 -51.7 0 0 710.50 296.07
  C 711.17 299.38 712.16 302.33 715.53 302.98
  C 720.82 304.00 723.73 299.80 725.90 295.94
  C 730.01 288.62 732.67 282.16 736.45 274.44
  Q 741.80 263.52 744.95 250.49
  Q 745.34 248.87 746.33 242.04
  A 3.94 3.91 44.7 0 0 746.32 240.96
  Q 745.06 233.15 743.72 230.30
  Q 737.29 216.69 727.95 203.83
  Q 723.01 197.02 722.51 189.25
  Q 722.26 185.36 722.06 183.01
  A 2.38 2.37 9.6 0 0 720.64 181.02
  C 713.12 177.76 707.23 173.26 699.83 167.10
  Q 694.55 162.70 696.70 156.42
  A 0.76 0.75 5.5 0 0 695.88 155.43
  L 692.05 155.94
  Z
  M 571.72 160.54
  A 0.21 0.21 0.0 0 0 571.63 160.94
  Q 577.09 163.82 582.51 164.92
  A 0.64 0.64 0.0 0 0 583.27 164.42
  L 583.98 160.87
  A 0.64 0.63 4.6 0 0 583.33 160.11
  L 571.72 160.54
  Z
  M 615.65 195.62
  A 0.44 0.44 0.0 0 1 616.19 194.95
  Q 620.55 197.34 623.60 201.38
  A 0.28 0.28 0.0 0 0 624.11 201.23
  Q 624.83 188.73 627.25 175.45
  A 0.69 0.69 0.0 0 0 626.25 174.71
  Q 612.90 181.57 597.97 184.67
  Q 591.05 186.11 584.64 185.81
  A 0.40 0.40 0.0 0 0 584.23 186.18
  Q 583.34 196.70 588.24 205.51
  C 592.39 212.97 596.00 217.33 602.22 225.97
  Q 609.00 235.41 609.66 238.00
  Q 611.39 244.79 607.43 251.69
  Q 602.74 259.85 596.50 268.48
  Q 589.59 278.04 584.93 287.35
  Q 582.48 292.24 585.52 296.86
  A 3.68 3.54 3.3 0 0 586.30 297.70
  Q 589.34 300.00 592.84 299.00
  Q 594.42 298.54 598.03 294.65
  Q 622.44 268.35 624.03 266.53
  Q 630.46 259.21 635.34 251.51
  A 1.88 1.86 -35.6 0 0 635.59 250.05
  Q 633.62 241.67 633.28 233.18
  C 633.16 230.17 634.06 226.23 634.12 223.50
  A 3.53 3.45 -53.8 0 0 633.96 222.39
  Q 633.71 221.57 632.85 219.77
  Q 629.22 212.12 621.09 201.26
  C 619.47 199.10 616.98 197.16 615.65 195.62
  Z
  M 644.90 178.37
  Q 637.14 179.39 630.04 177.70
  A 0.75 0.75 0.0 0 0 629.12 178.31
  C 628.67 181.15 626.41 189.38 627.99 192.78
  Q 628.45 193.75 636.58 208.37
  A 0.71 0.71 0.0 0 0 637.88 208.24
  C 639.35 203.54 642.15 199.73 643.07 195.37
  Q 645.30 184.82 645.90 179.36
  A 0.90 0.89 89.5 0 0 644.90 178.37
  Z
  M 580.59 240.85
  A 0.18 0.18 0.0 0 0 580.94 240.84
  L 587.09 210.18
  A 5.66 5.60 38.7 0 0 586.69 206.70
  C 584.61 202.18 583.07 199.28 582.49 195.66
  Q 581.79 191.27 582.20 186.26
  A 0.58 0.58 0.0 0 0 581.69 185.63
  Q 570.77 184.35 560.74 179.55
  A 0.90 0.90 0.0 0 0 559.52 180.04
  Q 556.52 187.87 555.77 195.49
  A 2.56 2.44 -52.1 0 0 555.87 196.48
  Q 556.44 198.24 557.38 199.15
  Q 567.89 209.35 575.92 222.07
  C 578.36 225.94 580.34 230.44 580.38 234.41
  Q 580.45 240.27 580.59 240.85
  Z
  M 732.02 205.35
  Q 736.04 196.00 737.56 187.88
  A 1.20 1.20 0.0 0 0 736.74 186.52
  L 724.74 182.68
  A 0.38 0.37 -78.5 0 0 724.25 183.01
  Q 723.21 195.74 731.59 205.42
  A 0.26 0.26 0.0 0 0 732.02 205.35
  Z
  M 774.07 194.35
  A 0.37 0.37 0.0 0 0 773.44 194.25
  Q 762.74 206.97 755.28 221.01
  C 748.55 233.68 750.51 244.70 751.52 261.06
  C 752.17 271.46 753.98 280.29 756.12 292.69
  C 756.97 297.60 757.65 303.43 764.14 302.78
  C 770.46 302.15 770.55 292.14 770.93 287.25
  Q 771.65 277.94 772.36 266.75
  A 3.97 3.92 -62.6 0 0 771.51 264.03
  C 766.41 257.62 762.71 251.82 763.20 243.24
  Q 763.84 232.21 767.37 222.13
  Q 771.99 208.95 772.73 206.74
  C 773.89 203.25 775.32 197.44 774.07 194.35
  Z
  M 636.38 213.94
  A 4.50 4.47 -54.4 0 0 635.87 210.80
  L 626.52 194.61
  A 0.27 0.27 0.0 0 0 626.02 194.74
  L 625.94 202.48
  A 2.91 2.74 -55.8 0 0 626.10 203.48
  Q 626.98 206.01 627.47 206.77
  Q 631.69 213.42 634.47 218.23
  A 0.59 0.59 0.0 0 0 635.56 218.05
  L 636.38 213.94
  Z
  M 687.58 250.94
  C 685.75 261.81 678.97 279.76 677.74 293.44
  C 677.31 298.27 679.12 302.65 684.34 303.35
  C 687.69 303.81 689.96 300.68 691.26 298.01
  C 695.73 288.84 700.06 278.88 702.81 268.83
  Q 703.94 264.68 706.34 256.88
  Q 712.34 237.37 706.05 217.27
  Q 702.68 206.45 694.56 198.19
  C 690.96 194.52 684.71 194.08 680.09 196.23
  C 675.21 198.50 673.23 204.07 672.93 209.27
  Q 672.57 215.56 675.94 221.06
  C 681.20 229.62 689.17 241.45 687.58 250.94
  Z
  M 657.81 302.46
  C 665.67 305.21 667.35 296.50 666.60 290.97
  Q 666.39 289.42 664.57 279.31
  C 662.69 268.87 660.64 260.91 658.26 250.22
  Q 656.43 242.05 658.93 233.47
  C 660.69 227.42 663.27 221.87 663.53 216.58
  C 663.86 209.99 661.73 201.96 655.28 199.25
  C 650.64 197.30 645.21 198.83 642.61 203.14
  Q 638.65 209.73 637.44 217.90
  Q 636.17 226.43 635.68 235.23
  Q 635.33 241.42 636.64 247.38
  Q 642.05 272.08 653.23 296.31
  Q 655.37 300.95 656.81 301.95
  A 3.78 3.71 -17.5 0 0 657.81 302.46
  Z
  M 585.90 299.74
  C 580.22 296.27 581.30 287.99 584.56 283.32
  Q 594.68 268.82 598.98 257.78
  Q 599.87 255.50 600.20 253.99
  A 0.05 0.03 76.7 0 0 600.21 253.96
  L 606.28 239.82
  A 5.09 5.06 -48.0 0 0 606.06 235.38
  Q 603.36 230.49 600.81 227.43
  Q 594.41 219.72 589.48 211.89
  A 0.50 0.50 0.0 0 0 588.56 212.10
  C 588.23 215.17 587.91 218.79 586.99 222.39
  Q 583.45 236.24 582.75 241.24
  Q 578.27 273.09 577.77 276.43
  Q 577.02 281.43 577.04 287.24
  Q 577.08 297.48 577.14 298.28
  A 4.42 3.70 47.0 0 0 577.24 298.86
  C 578.24 302.58 582.91 302.52 585.76 301.40
  A 0.93 0.93 0.0 0 0 585.90 299.74
  Z
  M 528.91 219.13
  Q 528.90 219.68 529.12 220.23
  C 531.95 227.43 533.75 235.56 530.65 242.89
  C 522.43 262.33 517.31 273.38 513.25 289.28
  Q 512.82 290.94 512.87 296.61
  A 2.27 2.19 -59.6 0 0 513.12 297.64
  Q 516.10 303.39 522.56 300.48
  A 2.00 1.99 -83.0 0 0 523.30 299.90
  C 530.90 290.06 535.98 278.03 542.29 268.33
  Q 547.51 260.31 552.05 252.03
  A 4.70 4.65 -26.2 0 0 552.58 250.50
  C 553.79 243.05 548.20 236.02 543.24 231.96
  Q 535.45 225.59 529.47 218.91
  A 0.32 0.32 0.0 0 0 528.91 219.13
  Z
  M 661.36 252.27
  Q 661.55 251.98 661.74 251.25
  C 665.61 235.68 667.70 229.34 669.02 219.93
  A 1.06 1.05 5.5 0 0 668.03 218.73
  C 665.44 218.59 665.48 219.56 664.63 221.75
  C 660.78 231.66 658.12 241.72 660.49 252.10
  A 0.48 0.48 0.0 0 0 661.36 252.27
  Z
  M 683.17 258.51
  A 0.33 0.33 0.0 0 0 683.80 258.51
  Q 684.17 257.06 684.97 253.01
  C 686.32 246.11 684.33 239.08 680.37 233.25
  A 0.47 0.47 0.0 0 0 679.51 233.48
  Q 679.16 237.95 679.84 242.49
  Q 681.09 250.91 683.17 258.51
  Z
  M 709.82 289.77
  Q 712.80 279.20 718.09 259.97
  Q 720.08 252.72 719.84 249.57
  C 719.37 243.46 715.66 238.69 711.93 234.16
  A 0.40 0.40 0.0 0 0 711.22 234.42
  C 711.23 240.04 711.40 244.58 709.86 250.61
  Q 706.59 263.41 706.28 264.79
  A 2.17 2.14 -41.4 0 0 706.22 265.66
  L 709.44 289.75
  A 0.20 0.19 -41.6 0 0 709.82 289.77
  Z
  M 607.50 241.81
  L 603.11 253.83
  A 0.11 0.11 0.0 0 0 603.17 253.97
  L 603.21 253.98
  A 6.35 1.33 -69.9 0 0 606.64 248.47
  L 606.75 248.17
  A 6.35 1.33 -69.9 0 0 607.68 241.75
  L 607.65 241.74
  A 0.11 0.11 0.0 0 0 607.50 241.81
  Z
  M 635.30 254.10
  Q 630.03 262.92 623.07 270.27
  A 3.34 3.34 0.0 0 0 622.18 272.99
  Q 623.87 285.89 626.96 297.01
  Q 628.44 302.34 633.75 302.65
  C 638.18 302.91 639.66 299.27 639.96 295.76
  Q 641.48 278.11 641.88 274.60
  A 5.82 5.79 -49.9 0 0 641.69 272.34
  L 636.43 254.25
  A 0.62 0.62 0.0 0 0 635.30 254.10
  Z
  M 704.26 270.56
  L 694.02 297.41
  A 1.42 1.40 -50.3 0 0 694.13 298.65
  Q 695.41 300.74 697.88 302.07
  C 703.25 304.97 708.60 300.26 708.15 294.62
  Q 707.14 282.00 705.03 270.63
  A 0.40 0.40 0.0 0 0 704.26 270.56
  Z"
/>
<path fill="#d4c08b" d="
  M 751.71 103.45
  C 747.29 100.67 742.23 104.50 739.31 107.82
  C 734.33 113.49 728.69 119.01 722.25 122.42
  A 1.68 1.67 -54.5 0 1 721.19 122.60
  Q 719.27 122.29 717.89 121.44
  A 0.63 0.63 0.0 0 1 717.82 120.42
  Q 724.22 115.13 725.33 114.12
  Q 729.50 110.36 733.94 103.76
  C 738.90 96.40 739.57 87.66 738.40 78.47
  Q 736.87 66.32 734.72 60.51
  C 733.52 57.26 730.82 49.98 734.17 47.88
  C 738.37 45.25 741.72 49.31 743.92 53.09
  Q 744.97 54.90 749.94 65.76
  Q 752.73 71.86 753.98 79.50
  Q 754.31 81.54 754.46 92.38
  C 754.50 95.74 753.57 99.75 752.97 102.90
  A 0.83 0.83 0.0 0 1 751.71 103.45
  Z"
/>
<path fill="#dae1d7" d="
  M 679.98 74.08
  A 16.78 16.78 0.0 0 1 663.20 90.86
  A 16.78 16.78 0.0 0 1 646.42 74.08
  A 16.78 16.78 0.0 0 1 663.20 57.30
  A 16.78 16.78 0.0 0 1 679.98 74.08
  Z
  M 651.86 84.15
  C 656.44 89.31 666.62 90.14 672.16 85.97
  C 679.29 80.59 680.08 71.05 674.13 64.35
  C 668.17 57.65 658.59 57.33 652.43 63.78
  C 647.63 68.80 647.28 79.00 651.86 84.15
  Z"
/>
<path fill="#d4c08b" d="
  M 674.13 64.35
  C 680.08 71.05 679.29 80.59 672.16 85.97
  C 666.62 90.14 656.44 89.31 651.86 84.15
  C 647.28 79.00 647.63 68.80 652.43 63.78
  C 658.59 57.33 668.17 57.65 674.13 64.35
  Z"
/>
<path fill="#d4c08b" d="
  M 599.97 117.96
  A 0.58 0.58 0.0 0 1 599.92 118.89
  Q 591.67 124.20 591.37 134.25
  A 0.68 0.67 -66.7 0 1 590.22 134.71
  L 581.67 126.15
  A 1.87 1.86 -61.0 0 1 581.17 124.38
  Q 583.57 114.29 577.39 106.99
  C 575.89 105.21 573.75 103.96 572.13 102.67
  A 1.47 1.47 0.0 0 1 571.57 101.70
  C 569.93 90.37 572.80 81.52 577.48 71.48
  C 579.39 67.39 582.36 61.47 587.59 62.27
  C 592.18 62.98 592.67 67.00 591.31 70.85
  Q 587.77 80.86 586.63 91.48
  C 585.42 102.76 591.66 111.06 599.97 117.96
  Z"
/>
<path fill="#b69a59" d="
  M 624.52 139.79
  Q 626.69 129.98 621.40 123.46
  C 617.84 119.07 612.75 116.74 607.09 116.92
  A 1.37 1.36 75.2 0 1 605.83 116.18
  C 601.95 108.78 599.04 102.32 598.23 93.52
  C 597.91 90.10 596.92 80.56 603.46 82.01
  C 606.12 82.61 607.52 84.61 608.51 87.01
  Q 611.59 94.45 615.00 103.52
  Q 616.39 107.22 619.11 110.17
  Q 624.75 116.31 631.48 121.65
  C 637.73 126.61 644.73 129.80 652.62 133.18
  A 0.48 0.48 0.0 0 1 652.74 133.99
  Q 644.95 140.69 645.02 151.51
  A 0.42 0.42 0.0 0 1 644.44 151.90
  C 637.20 148.84 633.48 145.94 624.95 140.77
  A 0.92 0.91 21.7 0 1 624.52 139.79
  Z"
/>
<ellipse fill="#d4c08b" cx="0.00" cy="0.00" transform="translate(706.52,98.18) rotate(-119.3)" rx="15.01" ry="14.59"/>
<ellipse fill="#d4c08b" cx="0.00" cy="0.00" transform="translate(630.82,98.15) rotate(-118.9)" rx="15.00" ry="14.32"/>
<path fill="#b69a59" d="
  M 691.34 120.82
  Q 685.82 122.30 680.84 129.92
  A 1.53 1.51 18.1 0 1 679.48 130.60
  C 670.59 130.01 663.49 128.73 655.83 132.02
  A 1.93 1.88 -42.7 0 1 654.23 131.98
  L 640.73 125.26
  A 1.74 1.74 0.0 0 1 639.77 123.61
  C 639.98 118.94 639.65 114.09 642.41 110.72
  Q 645.59 106.84 647.20 101.30
  A 3.07 3.00 74.3 0 1 647.84 100.13
  C 651.56 95.87 659.32 93.61 664.75 93.41
  C 671.83 93.16 682.31 94.33 687.99 99.04
  C 691.74 102.15 692.20 115.45 692.14 119.79
  A 1.08 1.08 0.0 0 1 691.34 120.82
  Z
  M 684.75 111.49
  A 17.12 17.12 0.0 0 0 667.63 94.37
  A 17.12 17.12 0.0 0 0 650.51 111.49
  A 17.12 17.12 0.0 0 0 667.63 128.61
  A 17.12 17.12 0.0 0 0 684.75 111.49
  Z"
/>
<path fill="#dae1d7" d="
  M 684.75 111.49
  A 17.12 17.12 0.0 0 1 667.63 128.61
  A 17.12 17.12 0.0 0 1 650.51 111.49
  A 17.12 17.12 0.0 0 1 667.63 94.37
  A 17.12 17.12 0.0 0 1 684.75 111.49
  Z
  M 658.0376 99.7537
  A 15.05 14.81 -129.3 0 0 656.1094 120.7804
  A 15.05 14.81 -129.3 0 0 677.1024 123.0463
  A 15.05 14.81 -129.3 0 0 679.0306 102.0196
  A 15.05 14.81 -129.3 0 0 658.0376 99.7537
  Z"
/>
<ellipse fill="#b69a59" cx="0.00" cy="0.00" transform="translate(667.57,111.40) rotate(-129.3)" rx="15.05" ry="14.81"/>
<ellipse fill="#b69a59" cx="0.00" cy="0.00" transform="translate(564.61,118.41) rotate(-164.7)" rx="15.54" ry="15.24"/>
<path fill="#b69a59" d="
  M 645.27 197.98
  A 0.46 0.46 0.0 0 1 644.62 197.41
  Q 648.35 188.05 647.90 178.43
  A 0.85 0.84 -9.1 0 1 648.52 177.58
  Q 663.26 173.57 674.64 164.14
  Q 684.63 155.87 688.88 151.49
  C 691.70 148.57 694.38 144.89 693.79 141.10
  C 693.08 136.56 688.14 134.33 684.00 135.25
  Q 681.37 135.84 678.42 137.91
  C 666.87 145.98 659.33 152.27 648.57 155.55
  A 0.72 0.72 0.0 0 1 647.64 154.88
  Q 647.45 149.54 648.42 144.71
  C 650.48 134.47 661.33 130.96 670.51 132.03
  C 676.37 132.71 683.09 132.72 689.47 133.10
  C 703.02 133.89 718.82 129.36 729.07 120.28
  Q 735.01 115.01 742.00 107.78
  C 745.45 104.21 753.50 101.56 752.68 109.99
  Q 752.28 114.17 749.23 118.57
  Q 743.34 127.07 735.55 134.50
  C 722.99 146.48 707.38 152.15 690.60 154.39
  A 1.29 1.28 89.7 0 0 689.50 155.51
  Q 687.85 168.87 687.79 181.25
  C 687.77 185.02 690.55 190.42 692.22 193.67
  A 0.31 0.31 0.0 0 1 691.86 194.11
  Q 681.75 191.13 675.38 197.39
  C 670.58 202.11 669.46 209.08 671.48 215.47
  A 1.01 1.01 0.0 0 1 670.56 216.78
  L 666.24 216.93
  A 0.66 0.65 89.2 0 1 665.56 216.26
  C 665.64 209.34 664.37 203.41 658.84 199.09
  C 654.81 195.93 649.79 195.54 645.27 197.98
  Z"
/>
<ellipse fill="#b69a59" cx="0.00" cy="0.00" transform="translate(773.55,121.37) rotate(-116.1)" rx="15.24" ry="14.87"/>
<path fill="#346087" d="
  M 694.55 111.00
  Q 700.40 115.37 706.83 115.86
  A 0.48 0.48 0.0 0 1 707.27 116.43
  L 706.80 118.75
  A 0.56 0.56 0.0 0 1 706.18 119.20
  Q 700.24 118.45 695.09 119.54
  A 0.54 0.54 0.0 0 1 694.43 119.03
  L 694.14 111.22
  A 0.26 0.26 0.0 0 1 694.55 111.00
  Z"
/>
<path fill="#d4c08b" d="
  M 721.71 115.14
  L 716.18 119.81
  A 1.19 1.18 -64.1 0 1 715.40 120.08
  Q 711.67 119.93 710.81 119.63
  A 2.14 2.14 0.0 0 1 710.00 116.13
  Q 714.96 110.98 721.60 114.21
  A 0.56 0.56 0.0 0 1 721.71 115.14
  Z"
/>
<path fill="#346087" d="
  M 637.63 122.83
  A 0.33 0.32 20.0 0 1 637.11 123.07
  L 627.40 115.73
  A 0.30 0.29 66.8 0 1 627.61 115.20
  Q 632.76 115.83 637.76 114.00
  A 0.25 0.25 0.0 0 1 638.10 114.25
  L 637.63 122.83
  Z"
/>
<ellipse fill="#b69a59" cx="0.00" cy="0.00" transform="translate(608.11,134.22) rotate(-94.3)" rx="15.20" ry="14.90"/>
<path fill="#d4c08b" d="
  M 718.69 123.88
  A 0.36 0.36 0.0 0 1 718.85 124.56
  Q 702.93 132.53 684.89 130.42
  A 0.67 0.66 17.4 0 1 684.38 129.45
  C 689.42 119.78 701.21 121.50 710.38 122.06
  A 6.15 6.01 -30.5 0 1 712.46 122.57
  Q 715.31 123.83 718.69 123.88
  Z"
/>
<path fill="#b69a59" d="
  M 781.21 136.83
  Q 781.45 137.09 782.10 137.34
  Q 768.86 142.05 767.45 155.66
  A 0.76 0.76 0.0 0 1 766.57 156.34
  Q 763.40 155.84 760.01 154.74
  Q 750.44 151.64 741.29 147.64
  A 1.57 1.57 0.0 0 1 740.35 146.41
  L 738.82 134.94
  A 0.42 0.40 -27.8 0 1 738.94 134.59
  L 742.07 131.46
  A 1.20 1.19 -54.9 0 1 743.44 131.22
  Q 748.68 133.67 754.84 135.61
  Q 756.94 136.27 762.15 137.05
  C 768.91 138.06 774.86 140.61 781.21 136.83
  Z"
/>
<path fill="#d4c08b" d="
  M 566.18 156.46
  A 0.40 0.40 0.0 0 1 565.59 156.80
  C 560.11 153.75 555.15 148.45 550.42 145.34
  A 1.55 1.54 -40.2 0 0 548.95 145.22
  L 548.85 145.26
  A 0.40 0.39 -43.8 0 0 548.83 145.98
  Q 549.67 146.39 553.72 149.77
  Q 559.06 154.22 566.66 160.09
  C 574.78 166.36 585.22 168.14 595.25 167.35
  Q 606.68 166.45 611.29 165.00
  C 617.02 163.19 630.84 157.46 632.08 164.70
  C 632.66 168.14 630.35 170.36 627.14 171.83
  Q 613.93 177.90 613.32 178.13
  Q 600.77 182.74 586.74 183.66
  Q 576.64 184.32 566.98 180.23
  Q 552.90 174.26 542.66 166.81
  Q 540.24 165.04 535.33 160.59
  A 0.45 0.44 39.2 0 0 534.67 160.65
  L 534.51 160.86
  A 0.13 0.13 0.0 0 0 534.52 161.04
  Q 544.67 171.10 557.54 178.16
  A 0.75 0.75 0.0 0 1 557.88 179.07
  Q 554.74 187.45 553.99 195.23
  A 0.69 0.69 0.0 0 1 552.89 195.71
  L 547.95 191.98
  A 0.76 0.75 -44.2 0 0 547.06 191.97
  L 546.85 192.13
  A 0.34 0.34 0.0 0 0 546.83 192.66
  Q 556.50 201.01 565.37 210.87
  C 572.94 219.28 579.72 230.25 578.69 242.00
  Q 577.69 253.29 574.10 270.17
  Q 572.99 275.40 570.78 282.65
  C 568.73 289.41 567.80 294.42 565.64 299.50
  Q 563.51 304.56 557.53 302.86
  C 553.39 301.68 553.25 297.88 552.98 293.75
  Q 552.96 293.45 554.39 258.24
  Q 554.74 249.66 554.42 246.07
  C 553.97 241.02 550.21 236.33 546.48 232.77
  Q 532.30 219.29 532.11 219.10
  Q 521.03 208.28 519.66 194.20
  C 518.48 181.97 520.91 168.60 525.75 156.19
  Q 530.50 144.00 540.98 137.00
  Q 543.36 135.40 547.69 134.97
  Q 560.04 133.73 564.77 144.37
  C 566.43 148.09 566.24 151.88 566.18 156.46
  Z"
/>
<path fill="#b69a59" d="
  M 738.62 165.02
  L 724.52 161.18
  A 0.95 0.94 -80.9 0 1 723.83 160.22
  L 724.58 146.21
  A 0.83 0.81 74.7 0 1 724.91 145.61
  L 736.21 137.42
  A 0.34 0.34 0.0 0 1 736.74 137.63
  Q 739.35 150.71 739.38 164.44
  A 0.61 0.60 7.4 0 1 738.62 165.02
  Z"
/>
<path fill="#d4c08b" d="
  M 634.36 156.31
  Q 646.27 161.12 657.35 154.35
  Q 659.89 152.80 682.28 138.54
  Q 686.25 136.01 689.88 138.82
  C 692.77 141.06 690.63 145.13 688.88 147.91
  C 686.47 151.74 682.73 154.75 679.26 157.85
  Q 673.42 163.08 670.38 165.10
  Q 666.77 167.50 657.79 172.19
  Q 644.59 179.07 630.30 175.34
  A 1.24 1.23 -56.2 0 1 629.87 173.16
  Q 636.51 168.12 633.26 161.25
  A 1.35 1.33 46.4 0 1 633.28 160.05
  Q 634.06 158.55 633.79 156.75
  A 0.42 0.41 7.1 0 1 634.36 156.31
  Z"
/>
<path fill="#b69a59" d="
  M 778.72 152.74
  Q 778.92 152.72 779.09 152.70
  A 1.08 1.05 -30.6 0 1 779.75 152.86
  Q 787.85 158.01 792.92 166.10
  A 0.20 0.20 0.0 0 0 793.22 166.15
  L 793.49 165.92
  A 0.33 0.32 57.4 0 0 793.57 165.53
  Q 788.86 156.02 779.36 151.74
  C 776.65 150.27 773.93 152.71 771.50 154.48
  Q 771.04 154.82 770.75 154.87
  A 0.50 0.49 88.8 0 1 770.17 154.31
  Q 770.48 152.15 771.49 149.51
  Q 774.89 140.69 783.93 139.21
  C 793.93 137.57 801.72 147.63 804.86 155.99
  Q 810.65 171.41 811.75 186.32
  Q 812.69 198.98 807.31 210.05
  Q 798.75 227.70 798.20 228.95
  C 794.45 237.50 790.79 244.20 795.25 252.99
  Q 797.00 256.45 801.68 262.69
  C 807.97 271.07 814.89 281.02 819.59 289.14
  C 821.25 292.02 821.99 296.46 819.60 299.41
  C 817.19 302.40 812.42 301.26 809.75 299.00
  Q 803.69 293.86 797.19 286.96
  C 788.95 278.21 782.00 271.62 774.40 263.92
  C 768.50 257.94 764.96 252.54 765.36 243.99
  C 766.02 230.31 770.54 218.09 775.54 205.02
  C 777.94 198.75 775.59 188.98 774.14 182.30
  A 1.35 1.34 69.0 0 1 774.79 180.83
  C 783.32 176.00 787.56 173.74 793.75 168.88
  A 0.92 0.90 -17.8 0 0 794.11 168.20
  L 794.17 167.12
  A 0.28 0.28 0.0 0 0 793.75 166.86
  Q 786.04 171.55 780.67 175.16
  Q 778.06 176.92 771.54 180.08
  Q 749.21 190.89 726.10 180.88
  Q 717.00 176.93 711.34 173.67
  C 707.14 171.24 700.36 166.26 698.31 161.21
  C 697.14 158.32 699.48 155.10 702.27 154.67
  Q 703.48 154.48 706.98 156.10
  Q 717.49 160.96 730.06 165.19
  C 736.62 167.40 743.77 169.03 751.27 167.47
  C 756.68 166.35 762.60 162.04 768.16 159.11
  C 771.28 157.47 775.05 154.67 778.72 152.74
  Z"
/>
<path fill="#d4c08b" d="
  M 583.56 157.92
  L 569.01 158.46
  A 1.13 1.13 0.0 0 1 567.85 157.18
  Q 569.11 147.98 564.76 140.22
  A 0.42 0.42 0.0 0 1 565.19 139.60
  Q 576.66 141.62 585.01 142.59
  Q 586.34 142.75 588.19 142.68
  A 0.44 0.44 0.0 0 1 588.59 143.33
  C 586.61 147.10 585.32 152.46 584.35 157.25
  A 0.83 0.83 0.0 0 1 583.56 157.92
  Z"
/>
<path fill="#b69a59" d="
  M 632.94 159.33
  A 0.76 0.76 0.0 0 1 631.86 160.12
  Q 628.01 158.29 622.78 159.76
  Q 619.65 160.64 604.95 163.98
  C 598.69 165.41 591.88 165.95 585.65 165.48
  A 0.51 0.50 -83.2 0 1 585.19 164.89
  C 586.13 159.47 587.07 152.51 589.43 146.19
  Q 590.43 143.53 592.15 141.87
  A 0.56 0.56 0.0 0 1 593.00 141.95
  C 594.16 143.65 595.94 146.27 597.58 147.51
  Q 607.71 155.20 619.03 147.84
  A 0.92 0.92 0.0 0 1 619.99 147.81
  L 631.56 154.49
  A 1.87 1.86 11.3 0 1 632.48 155.86
  L 632.94 159.33
  Z"
/>
<path fill="#b69a59" d="
  M 623.60 142.26
  L 629.82 145.85
  A 1.91 1.90 16.8 0 1 630.77 147.61
  L 630.62 150.39
  A 0.71 0.71 0.0 0 1 629.56 150.97
  L 621.54 146.34
  A 0.48 0.48 0.0 0 1 621.36 145.68
  L 623.29 142.34
  A 0.23 0.22 29.4 0 1 623.60 142.26
  Z"
/>
<path fill="#d4c08b" d="
  M 707.68 153.87
  A 0.25 0.24 -45.3 0 1 707.68 153.42
  L 721.89 147.26
  A 0.47 0.47 0.0 0 1 722.55 147.71
  L 721.93 159.12
  A 0.59 0.59 0.0 0 1 721.11 159.63
  L 707.68 153.87
  Z"
/>
<path fill="#d4c08b" d="
  M 634.04 153.43
  A 2.47 2.46 10.5 0 1 632.32 150.94
  L 632.38 149.76
  A 1.21 1.20 -73.0 0 1 634.20 148.79
  C 636.51 150.16 638.96 151.72 641.43 152.66
  C 642.77 153.18 644.41 153.87 644.94 154.63
  Q 645.10 154.86 645.13 155.08
  A 0.87 0.80 2.4 0 1 644.10 155.95
  Q 639.06 155.03 634.04 153.43
  Z"
/>
<path fill="#b69a59" d="
  M 741.76 150.10
  L 763.61 158.43
  A 0.22 0.21 -51.1 0 1 763.65 158.81
  C 756.62 163.28 751.42 166.36 742.64 165.80
  A 1.04 1.04 0.0 0 1 741.67 164.80
  L 741.14 150.55
  A 0.46 0.46 0.0 0 1 741.76 150.10
  Z"
/>
<path fill="#d4c08b" d="
  M 778.72 152.74
  L 779.36 151.74
  Q 788.86 156.02 793.57 165.53
  A 0.33 0.32 57.4 0 1 793.49 165.92
  L 793.22 166.15
  A 0.20 0.20 0.0 0 1 792.92 166.10
  Q 787.85 158.01 779.75 152.86
  A 1.08 1.05 -30.6 0 0 779.09 152.70
  Q 778.92 152.72 778.72 152.74
  Z"
/>
<path fill="#d4c08b" d="
  M 696.70 156.42
  Q 694.55 162.70 699.83 167.10
  C 707.23 173.26 713.12 177.76 720.64 181.02
  A 2.38 2.37 9.6 0 1 722.06 183.01
  Q 722.26 185.36 722.51 189.25
  Q 723.01 197.02 727.95 203.83
  Q 737.29 216.69 743.72 230.30
  Q 745.06 233.15 746.32 240.96
  A 3.94 3.91 44.7 0 1 746.33 242.04
  Q 745.34 248.87 744.95 250.49
  Q 741.80 263.52 736.45 274.44
  C 732.67 282.16 730.01 288.62 725.90 295.94
  C 723.73 299.80 720.82 304.00 715.53 302.98
  C 712.16 302.33 711.17 299.38 710.50 296.07
  A 6.40 6.08 -51.7 0 1 710.38 294.75
  Q 710.38 293.50 714.78 278.35
  C 718.35 266.03 721.17 258.41 721.33 249.50
  C 721.46 242.03 718.16 237.21 712.90 232.49
  Q 711.42 231.15 710.72 228.59
  C 709.17 222.96 708.32 216.53 705.61 211.43
  Q 700.94 202.62 697.51 198.50
  Q 694.41 194.77 693.50 192.63
  C 690.70 186.09 688.73 182.34 689.34 175.49
  Q 690.22 165.52 690.99 157.05
  A 1.23 1.23 0.0 0 1 692.05 155.94
  L 695.88 155.43
  A 0.76 0.75 5.5 0 1 696.70 156.42
  Z"
/>
<path fill="#b69a59" d="
  M 571.72 160.54
  L 583.33 160.11
  A 0.64 0.63 4.6 0 1 583.98 160.87
  L 583.27 164.42
  A 0.64 0.64 0.0 0 1 582.51 164.92
  Q 577.09 163.82 571.63 160.94
  A 0.21 0.21 0.0 0 1 571.72 160.54
  Z"
/>
<path fill="#b69a59" d="
  M 615.65 195.62
  C 616.98 197.16 619.47 199.10 621.09 201.26
  Q 629.22 212.12 632.85 219.77
  Q 633.71 221.57 633.96 222.39
  A 3.53 3.45 -53.8 0 1 634.12 223.50
  C 634.06 226.23 633.16 230.17 633.28 233.18
  Q 633.62 241.67 635.59 250.05
  A 1.88 1.86 -35.6 0 1 635.34 251.51
  Q 630.46 259.21 624.03 266.53
  Q 622.44 268.35 598.03 294.65
  Q 594.42 298.54 592.84 299.00
  Q 589.34 300.00 586.30 297.70
  A 3.68 3.54 3.3 0 1 585.52 296.86
  Q 582.48 292.24 584.93 287.35
  Q 589.59 278.04 596.50 268.48
  Q 602.74 259.85 607.43 251.69
  Q 611.39 244.79 609.66 238.00
  Q 609.00 235.41 602.22 225.97
  C 596.00 217.33 592.39 212.97 588.24 205.51
  Q 583.34 196.70 584.23 186.18
  A 0.40 0.40 0.0 0 1 584.64 185.81
  Q 591.05 186.11 597.97 184.67
  Q 612.90 181.57 626.25 174.71
  A 0.69 0.69 0.0 0 1 627.25 175.45
  Q 624.83 188.73 624.11 201.23
  A 0.28 0.28 0.0 0 1 623.60 201.38
  Q 620.55 197.34 616.19 194.95
  A 0.44 0.44 0.0 0 0 615.65 195.62
  Z"
/>
<path fill="#d4c08b" d="
  M 644.90 178.37
  A 0.90 0.89 89.5 0 1 645.90 179.36
  Q 645.30 184.82 643.07 195.37
  C 642.15 199.73 639.35 203.54 637.88 208.24
  A 0.71 0.71 0.0 0 1 636.58 208.37
  Q 628.45 193.75 627.99 192.78
  C 626.41 189.38 628.67 181.15 629.12 178.31
  A 0.75 0.75 0.0 0 1 630.04 177.70
  Q 637.14 179.39 644.90 178.37
  Z"
/>
<path fill="#b69a59" d="
  M 580.59 240.85
  Q 580.45 240.27 580.38 234.41
  C 580.34 230.44 578.36 225.94 575.92 222.07
  Q 567.89 209.35 557.38 199.15
  Q 556.44 198.24 555.87 196.48
  A 2.56 2.44 -52.1 0 1 555.77 195.49
  Q 556.52 187.87 559.52 180.04
  A 0.90 0.90 0.0 0 1 560.74 179.55
  Q 570.77 184.35 581.69 185.63
  A 0.58 0.58 0.0 0 1 582.20 186.26
  Q 581.79 191.27 582.49 195.66
  C 583.07 199.28 584.61 202.18 586.69 206.70
  A 5.66 5.60 38.7 0 1 587.09 210.18
  L 580.94 240.84
  A 0.18 0.18 0.0 0 1 580.59 240.85
  Z"
/>
<path fill="#b69a59" d="
  M 748.63 252.23
  Q 749.06 248.77 747.95 246.90
  L 748.33 241.23
  A 3.37 2.76 48.8 0 0 748.31 240.62
  C 746.73 228.11 740.56 219.19 733.71 208.94
  A 2.71 2.69 42.3 0 1 733.57 206.17
  Q 738.01 197.83 739.19 187.49
  A 0.71 0.71 0.0 0 1 740.04 186.88
  Q 755.95 190.22 771.16 182.41
  A 0.97 0.97 0.0 0 1 772.57 183.15
  L 773.50 190.11
  A 1.57 1.57 0.0 0 1 773.14 191.33
  Q 768.75 196.42 767.80 197.79
  C 760.12 208.92 753.77 217.18 749.92 229.20
  Q 748.92 232.31 748.82 235.76
  Q 748.59 243.97 748.63 252.23
  Z"
/>
<path fill="#b69a59" d="
  M 732.02 205.35
  A 0.26 0.26 0.0 0 1 731.59 205.42
  Q 723.21 195.74 724.25 183.01
  A 0.38 0.37 -78.5 0 1 724.74 182.68
  L 736.74 186.52
  A 1.20 1.20 0.0 0 1 737.56 187.88
  Q 736.04 196.00 732.02 205.35
  Z"
/>
<path fill="#b69a59" d="
  M 774.07 194.35
  C 775.32 197.44 773.89 203.25 772.73 206.74
  Q 771.99 208.95 767.37 222.13
  Q 763.84 232.21 763.20 243.24
  C 762.71 251.82 766.41 257.62 771.51 264.03
  A 3.97 3.92 -62.6 0 1 772.36 266.75
  Q 771.65 277.94 770.93 287.25
  C 770.55 292.14 770.46 302.15 764.14 302.78
  C 757.65 303.43 756.97 297.60 756.12 292.69
  C 753.98 280.29 752.17 271.46 751.52 261.06
  C 750.51 244.70 748.55 233.68 755.28 221.01
  Q 762.74 206.97 773.44 194.25
  A 0.37 0.37 0.0 0 1 774.07 194.35
  Z"
/>
<path fill="#b69a59" d="
  M 636.38 213.94
  L 635.56 218.05
  A 0.59 0.59 0.0 0 1 634.47 218.23
  Q 631.69 213.42 627.47 206.77
  Q 626.98 206.01 626.10 203.48
  A 2.91 2.74 -55.8 0 1 625.94 202.48
  L 626.02 194.74
  A 0.27 0.27 0.0 0 1 626.52 194.61
  L 635.87 210.80
  A 4.50 4.47 -54.4 0 1 636.38 213.94
  Z"
/>
<path fill="#b69a59" d="
  M 687.58 250.94
  C 689.17 241.45 681.20 229.62 675.94 221.06
  Q 672.57 215.56 672.93 209.27
  C 673.23 204.07 675.21 198.50 680.09 196.23
  C 684.71 194.08 690.96 194.52 694.56 198.19
  Q 702.68 206.45 706.05 217.27
  Q 712.34 237.37 706.34 256.88
  Q 703.94 264.68 702.81 268.83
  C 700.06 278.88 695.73 288.84 691.26 298.01
  C 689.96 300.68 687.69 303.81 684.34 303.35
  C 679.12 302.65 677.31 298.27 677.74 293.44
  C 678.97 279.76 685.75 261.81 687.58 250.94
  Z"
/>
<path fill="#b69a59" d="
  M 656.81 301.95
  Q 655.37 300.95 653.23 296.31
  Q 642.05 272.08 636.64 247.38
  Q 635.33 241.42 635.68 235.23
  Q 636.17 226.43 637.44 217.90
  Q 638.65 209.73 642.61 203.14
  C 645.21 198.83 650.64 197.30 655.28 199.25
  C 661.73 201.96 663.86 209.99 663.53 216.58
  C 663.27 221.87 660.69 227.42 658.93 233.47
  Q 656.43 242.05 658.26 250.22
  C 660.64 260.91 662.69 268.87 664.57 279.31
  Q 666.39 289.42 666.60 290.97
  C 667.35 296.50 665.67 305.21 657.81 302.46
  A 3.78 3.71 -17.5 0 1 656.81 301.95
  Z"
/>
<path fill="#d4c08b" d="
  M 585.90 299.74
  A 0.93 0.93 0.0 0 1 585.76 301.40
  C 582.91 302.52 578.24 302.58 577.24 298.86
  A 4.42 3.70 47.0 0 1 577.14 298.28
  Q 577.08 297.48 577.04 287.24
  Q 577.02 281.43 577.77 276.43
  Q 578.27 273.09 582.75 241.24
  Q 583.45 236.24 586.99 222.39
  C 587.91 218.79 588.23 215.17 588.56 212.10
  A 0.50 0.50 0.0 0 1 589.48 211.89
  Q 594.41 219.72 600.81 227.43
  Q 603.36 230.49 606.06 235.38
  A 5.09 5.06 -48.0 0 1 606.28 239.82
  L 600.21 253.96
  A 0.05 0.03 76.7 0 1 600.20 253.99
  Q 599.87 255.50 598.98 257.78
  Q 594.68 268.82 584.56 283.32
  C 581.30 287.99 580.22 296.27 585.90 299.74
  Z"
/>
<path fill="#b69a59" d="
  M 677.00 300.59
  Q 672.65 300.97 668.65 296.02
  Q 668.92 290.48 667.93 285.61
  Q 665.31 272.65 662.34 259.43
  C 661.81 257.06 661.89 255.10 662.89 252.70
  C 664.26 249.43 665.77 245.34 666.52 241.77
  Q 668.88 230.66 670.44 219.75
  Q 670.55 219.05 670.92 218.79
  A 1.18 1.15 -32.8 0 1 672.57 219.13
  Q 676.02 224.72 677.41 228.95
  A 4.56 4.50 38.3 0 1 677.63 230.73
  Q 676.79 241.25 678.17 247.32
  Q 678.93 250.62 681.79 262.80
  A 5.55 5.49 -44.7 0 1 681.76 265.44
  Q 679.96 272.43 678.35 280.18
  Q 676.15 290.71 676.10 295.52
  Q 676.09 296.59 677.00 300.59
  Z"
/>
<path fill="#d4c08b" d="
  M 528.91 219.13
  A 0.32 0.32 0.0 0 1 529.47 218.91
  Q 535.45 225.59 543.24 231.96
  C 548.20 236.02 553.79 243.05 552.58 250.50
  A 4.70 4.65 -26.2 0 1 552.05 252.03
  Q 547.51 260.31 542.29 268.33
  C 535.98 278.03 530.90 290.06 523.30 299.90
  A 2.00 1.99 -83.0 0 1 522.56 300.48
  Q 516.10 303.39 513.12 297.64
  A 2.27 2.19 -59.6 0 1 512.87 296.61
  Q 512.82 290.94 513.25 289.28
  C 517.31 273.38 522.43 262.33 530.65 242.89
  C 533.75 235.56 531.95 227.43 529.12 220.23
  Q 528.90 219.68 528.91 219.13
  Z"
/>
<path fill="#b69a59" d="
  M 661.36 252.27
  A 0.48 0.48 0.0 0 1 660.49 252.10
  C 658.12 241.72 660.78 231.66 664.63 221.75
  C 665.48 219.56 665.44 218.59 668.03 218.73
  A 1.06 1.05 5.5 0 1 669.02 219.93
  C 667.70 229.34 665.61 235.68 661.74 251.25
  Q 661.55 251.98 661.36 252.27
  Z"
/>
<path fill="#b69a59" d="
  M 683.17 258.51
  Q 681.09 250.91 679.84 242.49
  Q 679.16 237.95 679.51 233.48
  A 0.47 0.47 0.0 0 1 680.37 233.25
  C 684.33 239.08 686.32 246.11 684.97 253.01
  Q 684.17 257.06 683.80 258.51
  A 0.33 0.33 0.0 0 1 683.17 258.51
  Z"
/>
<path fill="#346087" d="
  M 709.82 289.77
  A 0.20 0.19 -41.6 0 1 709.44 289.75
  L 706.22 265.66
  A 2.17 2.14 -41.4 0 1 706.28 264.79
  Q 706.59 263.41 709.86 250.61
  C 711.40 244.58 711.23 240.04 711.22 234.42
  A 0.40 0.40 0.0 0 1 711.93 234.16
  C 715.66 238.69 719.37 243.46 719.84 249.57
  Q 720.08 252.72 718.09 259.97
  Q 712.80 279.20 709.82 289.77
  Z"
/>
<path fill="#346087" d="
  M 607.50 241.81
  A 0.11 0.11 0.0 0 1 607.65 241.74
  L 607.68 241.75
  A 6.35 1.33 -69.9 0 1 606.75 248.17
  L 606.64 248.47
  A 6.35 1.33 -69.9 0 1 603.21 253.98
  L 603.17 253.97
  A 0.11 0.11 0.0 0 1 603.11 253.83
  L 607.50 241.81
  Z"
/>
<path fill="#d4c08b" d="
  M 635.30 254.10
  A 0.62 0.62 0.0 0 1 636.43 254.25
  L 641.69 272.34
  A 5.82 5.79 -49.9 0 1 641.88 274.60
  Q 641.48 278.11 639.96 295.76
  C 639.66 299.27 638.18 302.91 633.75 302.65
  Q 628.44 302.34 626.96 297.01
  Q 623.87 285.89 622.18 272.99
  A 3.34 3.34 0.0 0 1 623.07 270.27
  Q 630.03 262.92 635.30 254.10
  Z"
/>
<path fill="#b69a59" d="
  M 704.26 270.56
  A 0.40 0.40 0.0 0 1 705.03 270.63
  Q 707.14 282.00 708.15 294.62
  C 708.60 300.26 703.25 304.97 697.88 302.07
  Q 695.41 300.74 694.13 298.65
  A 1.42 1.40 -50.3 0 1 694.02 297.41
  L 704.26 270.56
  Z"
/>
</svg>
